<svg width="168" height="64" viewBox="0 0 168 64" fill="none" xmlns="http://www.w3.org/2000/svg">
<path d="M0.0362549 5.25741V0.05373C6.35478 -0.338476 11.9198 1.40638 16.617 5.62182C22.0029 10.4487 24.3438 16.5603 24.0627 23.7868H18.8282C19.1679 18.5028 17.5774 13.8674 13.7943 10.1245C10.0205 6.40314 5.39434 4.87755 0.0362549 5.25741Z" fill="#ED2224"/>
<path d="M19.4335 26.1154C20.2766 26.1154 21.0764 26.066 21.8577 26.1432C22.1202 26.171 22.4167 26.4613 22.5958 26.7083C24.6186 29.4846 26.6229 32.2826 28.6395 35.0651C28.8526 35.3554 29.0688 35.6457 29.3498 36.0193C30.1929 34.8674 30.9742 33.8174 31.7401 32.752C33.1144 30.8651 34.5164 29.0029 35.8289 27.0666C36.3385 26.313 36.8913 25.9764 37.7838 26.0938C38.2254 26.1555 38.6886 26.1061 39.192 26.1061V44.5799H36.5886V30.828C36.3045 31.1863 36.0976 31.4302 35.9061 31.6835C34.2292 33.9224 32.5554 36.1583 30.8846 38.3973C29.8841 39.7376 28.7291 39.7376 27.7563 38.4096C26.0423 36.0904 24.3252 33.768 22.6113 31.4488C22.4877 31.282 22.3549 31.1245 22.1635 30.8898V44.5923H19.4489V26.103L19.4366 26.1092L19.4335 26.1154Z" fill="#ED2224"/>
<path d="M92.3869 44.6169H89.6724V26.1061C90.7965 26.1061 91.8959 26.0999 92.986 26.1061C95.3485 26.1339 97.7296 25.9949 100.064 26.245C102.689 26.5199 104.656 28.5921 105.024 30.9886C105.404 33.4746 104.162 35.8031 101.784 37.06C101.599 37.1558 101.405 37.2546 101.074 37.4275C102.683 39.8116 104.264 42.1525 105.95 44.6571C104.777 44.6571 103.749 44.6911 102.733 44.6293C102.504 44.6169 102.263 44.2834 102.096 44.0425C100.855 42.2205 99.6041 40.3953 98.4028 38.5455C98.0508 37.9989 97.6709 37.7456 96.9946 37.7641C95.4968 37.8136 93.999 37.7796 92.3808 37.7796V44.6169H92.3869ZM95.9631 35.0866V35.1484C97.186 35.0866 98.4213 35.1144 99.6227 34.9261C100.929 34.7315 101.979 33.4746 102.136 32.1991C102.282 31.004 101.55 29.7872 100.243 29.2375C99.7184 29.0152 99.1255 28.8577 98.5572 28.8361C96.7475 28.7866 94.9378 28.8361 93.1281 28.8083C92.5815 28.8021 92.353 28.9658 92.3622 29.5402C92.3838 31.1368 92.39 32.7241 92.3622 34.3208C92.3499 34.9508 92.6247 35.1144 93.1899 35.0928C94.1071 35.065 95.0274 35.0866 95.9508 35.0866H95.9569H95.9631Z" fill="#ED2224"/>
<path d="M68.7217 26.1555H82.3346V28.7805H71.5629V33.8082H80.843V36.5289H71.5474V41.9518H82.3408V44.5954H68.7217V26.1555Z" fill="#ED2224"/>
<path d="M148.401 44.583C148.25 44.6232 148.222 44.6386 148.188 44.6448C145.483 44.8023 145.344 44.8517 144.433 42.3379C143.812 40.6115 142.913 40.0186 141.091 40.1823C138.93 40.3768 136.734 40.244 134.56 40.2162C134.019 40.2101 133.732 40.3737 133.525 40.8864C133.105 41.9364 132.593 42.9586 132.173 44.0086C131.972 44.512 131.688 44.7189 131.144 44.6849C130.474 44.6355 129.798 44.6726 129.01 44.6726C129.121 44.3483 129.183 44.0982 129.285 43.8635C131.793 38.2058 134.313 32.5574 136.799 26.8936C137.067 26.2852 137.413 26.1833 138.022 26.0937C139.748 25.8374 140.557 26.5076 141.227 28.1382C143.383 33.3727 145.758 38.527 148.043 43.7121C148.16 43.987 148.272 44.2649 148.401 44.5954L148.407 44.583H148.401ZM142.178 37.4554C140.983 34.6852 139.831 32.0139 138.627 29.2283C137.426 32.0262 136.271 34.7037 135.091 37.4554H142.175H142.178Z" fill="#ED2224"/>
<path d="M49.8742 44.6232H47.0979V26.1617C47.382 26.1401 47.6507 26.1061 47.9132 26.1123C51.1311 26.1525 54.3707 26.0228 57.567 26.313C60.3433 26.5601 62.3538 29.2839 62.1994 31.9614C62.0264 34.9323 59.7257 37.4801 56.9154 37.6376C54.8648 37.755 52.7988 37.7055 50.7482 37.687C50.0657 37.6808 49.8372 37.8878 49.8557 38.5795C49.8958 40.5683 49.868 42.5572 49.868 44.6232H49.8742ZM49.9236 34.9817C52.0978 34.9817 54.1514 35.0311 56.202 34.9694C57.777 34.92 59.1173 33.5797 59.2069 32.1251C59.3088 30.5223 58.3638 29.1203 56.6529 28.9689C54.4417 28.7682 52.2058 28.9195 49.9267 28.9195V34.9848L49.9236 34.9817Z" fill="#ED2224"/>
<path d="M15.7677 23.7806H10.5949C11.5122 17.9994 6.69142 12.4468 0.076416 13.4814V8.28695C4.81995 7.81136 8.88097 9.1918 12.1267 12.6661C15.0482 15.7883 16.2217 19.525 15.7647 23.7714V23.7775L15.7677 23.7806Z" fill="#ED2224"/>
<path d="M116.531 28.8144H112.704V26.1709H123.43V28.8237C122.312 28.8237 121.219 28.836 120.122 28.8237C119.675 28.8237 119.446 28.941 119.446 29.4444C119.468 33.5271 119.468 37.6066 119.48 41.6893C119.48 41.7449 119.529 41.8005 119.591 41.9456H123.424V44.62H112.698V41.9827H116.531V28.8175V28.8144Z" fill="#ED2224"/>
<path d="M1.00292 26.1493H11.6944V28.8237C10.632 28.8237 9.56659 28.8361 8.50424 28.8237C8.04101 28.8176 7.73836 28.9009 7.74453 29.4599C7.75689 33.5086 7.75689 37.5603 7.77233 41.609C7.77233 41.6924 7.82792 41.7758 7.88968 41.9333H11.6944V44.5984H0.993652V41.9734H4.88174C4.90953 41.572 4.94351 41.2755 4.94351 40.9728C4.94351 37.2577 4.92189 33.5487 4.96512 29.8336C4.9713 29.0245 4.74277 28.7434 3.93056 28.799C2.98556 28.867 2.0313 28.8114 1.00909 28.8114V26.137L1.00292 26.1493Z" fill="#ED2224"/>
<path d="M167.619 44.6386H154.201V26.1833H156.86V41.9303H167.625V44.6386H167.619Z" fill="#ED2224"/>
<path d="M2.54085 23.7869C2.29996 22.3724 1.49085 21.5417 0.00540441 21.3842C0.00540441 19.9327 -0.0162132 18.5245 0.0270221 17.1224C0.0270221 16.9155 0.323493 16.5913 0.530404 16.5419C2.67055 16.0385 4.55746 16.6098 6.06143 18.1786C7.55923 19.7474 8.02864 21.6313 7.46349 23.7869H2.54085Z" fill="#ED2224"/>
<path d="M51.0648 60.1495C50.3545 60.1495 49.6935 60.0371 49.0821 59.8123C48.4706 59.5785 47.9356 59.2458 47.477 58.8142C47.0184 58.3826 46.6632 57.8701 46.4115 57.2766C46.1597 56.6741 46.0338 56.0132 46.0338 55.2939C46.0338 54.6105 46.1687 53.9765 46.4384 53.392C46.7082 52.8076 47.0769 52.2995 47.5445 51.8679C48.012 51.4273 48.5516 51.0901 49.163 50.8563C49.7745 50.6135 50.4264 50.4921 51.1188 50.4921C51.6583 50.4921 52.1798 50.5686 52.6834 50.7214C53.1959 50.8653 53.6545 51.0586 54.0592 51.3014C54.4728 51.5442 54.8055 51.8095 55.0573 52.0972L54.1401 53.2302C53.8434 52.9604 53.5331 52.7311 53.2094 52.5423C52.8857 52.3445 52.544 52.1961 52.1843 52.0972C51.8246 51.9893 51.4425 51.9353 51.0378 51.9353C50.5793 51.9353 50.1386 52.0163 49.716 52.1781C49.2934 52.34 48.9157 52.5693 48.583 52.866C48.2593 53.1538 47.9986 53.5044 47.8007 53.9181C47.6119 54.3317 47.5175 54.7903 47.5175 55.2939C47.5175 55.8334 47.6119 56.3144 47.8007 56.7371C47.9986 57.1597 48.2683 57.5194 48.61 57.8161C48.9607 58.1038 49.3563 58.3242 49.797 58.477C50.2466 58.6299 50.7231 58.7063 51.2267 58.7063C51.6673 58.7063 52.0674 58.6524 52.4271 58.5445C52.7868 58.4276 53.115 58.2792 53.4117 58.0994C53.7085 57.9105 53.9782 57.7172 54.221 57.5194L54.9359 58.7198C54.7021 58.9446 54.3829 59.1694 53.9782 59.3942C53.5826 59.61 53.133 59.7898 52.6294 59.9337C52.1349 60.0776 51.6133 60.1495 51.0648 60.1495ZM57.0623 60.0146L61.2436 50.5731H62.8487L67.0165 60.0146H65.4384L62.7138 53.8641C62.6509 53.7472 62.5789 53.5899 62.498 53.392C62.4261 53.1942 62.3451 52.9874 62.2552 52.7716C62.1743 52.5468 62.0934 52.331 62.0124 52.1242C61.9405 51.9084 61.8776 51.724 61.8236 51.5712L62.2013 51.5577C62.1293 51.7465 62.0529 51.9443 61.972 52.1511C61.9 52.358 61.8236 52.5693 61.7427 52.7851C61.6618 52.9919 61.5808 53.1942 61.4999 53.392C61.419 53.5809 61.3425 53.7562 61.2706 53.9181L58.573 60.0146H57.0623ZM58.8967 57.7487L59.4497 56.3459H64.4807L64.8854 57.7487H58.8967ZM69.8255 60.0146V50.5731H71.2552L75.1802 56.0222L74.5867 56.0087L78.5252 50.5731H79.928V60.0146H78.4713V56.0627C78.4713 55.2894 78.4893 54.579 78.5252 53.9316C78.5612 53.2751 78.6331 52.6142 78.741 51.9488L78.9029 52.4883L75.3016 57.3036H74.4114L70.864 52.5018L71.0124 51.9488C71.1203 52.5963 71.1922 53.2437 71.2282 53.8911C71.2642 54.5385 71.2822 55.2624 71.2822 56.0627V60.0146H69.8255ZM89.1618 60.0146V50.5731H93.9365C94.476 50.5731 94.9661 50.7034 95.4067 50.9642C95.8563 51.216 96.2115 51.5622 96.4723 52.0028C96.742 52.4434 96.8769 52.9335 96.8769 53.473C96.8769 54.0305 96.7375 54.534 96.4588 54.9836C96.18 55.4332 95.8069 55.7974 95.3393 56.0762C94.8717 56.3459 94.3546 56.4808 93.7882 56.4808H90.6185V60.0146H89.1618ZM90.6185 55.078H93.7072C94.004 55.078 94.2782 55.0061 94.53 54.8622C94.7818 54.7094 94.9796 54.5115 95.1235 54.2688C95.2763 54.026 95.3528 53.7607 95.3528 53.473C95.3528 53.1942 95.2763 52.9424 95.1235 52.7176C94.9796 52.4928 94.7818 52.313 94.53 52.1781C94.2782 52.0432 94.004 51.9758 93.7072 51.9758H90.6185V55.078ZM100.134 60.0146V50.5731H104.99C105.538 50.5731 106.042 50.7034 106.5 50.9642C106.959 51.225 107.328 51.5802 107.606 52.0298C107.885 52.4704 108.024 52.9694 108.024 53.5269C108.024 54.0664 107.876 54.5655 107.579 55.0241C107.292 55.4737 106.905 55.8334 106.419 56.1031C105.943 56.3729 105.417 56.5078 104.841 56.5078H101.591V60.0146H100.134ZM106.703 60.0146L103.843 55.7524L105.367 55.4152L108.496 60.0281L106.703 60.0146ZM101.591 55.105H104.828C105.133 55.105 105.412 55.0331 105.664 54.8892C105.916 54.7453 106.118 54.552 106.271 54.3092C106.424 54.0664 106.5 53.8012 106.5 53.5134C106.5 53.2167 106.415 52.9559 106.244 52.7311C106.082 52.4973 105.862 52.313 105.583 52.1781C105.304 52.0432 104.994 51.9758 104.652 51.9758H101.591V55.105ZM116.283 60.1495C115.528 60.1495 114.831 60.0281 114.193 59.7854C113.563 59.5336 113.01 59.1874 112.534 58.7468C112.066 58.3062 111.702 57.7936 111.441 57.2091C111.189 56.6157 111.063 55.9772 111.063 55.2939C111.063 54.6105 111.189 53.9765 111.441 53.392C111.702 52.7986 112.066 52.2815 112.534 51.8409C113.01 51.4003 113.563 51.0586 114.193 50.8158C114.831 50.5641 115.528 50.4382 116.283 50.4382C117.047 50.4382 117.744 50.5596 118.374 50.8023C119.012 51.0451 119.565 51.3913 120.033 51.8409C120.509 52.2815 120.874 52.7986 121.125 53.392C121.386 53.9765 121.517 54.6105 121.517 55.2939C121.517 55.9772 121.386 56.6157 121.125 57.2091C120.874 57.7936 120.509 58.3107 120.033 58.7603C119.565 59.2009 119.012 59.5426 118.374 59.7854C117.744 60.0281 117.047 60.1495 116.283 60.1495ZM116.297 58.7333C116.845 58.7333 117.344 58.6479 117.794 58.477C118.252 58.2972 118.648 58.0544 118.981 57.7487C119.313 57.4339 119.57 57.0698 119.75 56.6561C119.938 56.2335 120.033 55.7794 120.033 55.2939C120.033 54.8083 119.938 54.3587 119.75 53.9451C119.57 53.5224 119.313 53.1583 118.981 52.8525C118.648 52.5378 118.252 52.295 117.794 52.1242C117.335 51.9443 116.836 51.8544 116.297 51.8544C115.748 51.8544 115.245 51.9443 114.786 52.1242C114.327 52.295 113.927 52.5333 113.586 52.839C113.253 53.1448 112.997 53.5089 112.817 53.9316C112.637 54.3452 112.547 54.7993 112.547 55.2939C112.547 55.7794 112.637 56.2335 112.817 56.6561C112.997 57.0788 113.253 57.4429 113.586 57.7487C113.927 58.0544 114.327 58.2972 114.786 58.477C115.245 58.6479 115.748 58.7333 116.297 58.7333Z" fill="black"/>
</svg>
