<svg width="19" height="19" viewBox="0 0 19 19" fill="none" xmlns="http://www.w3.org/2000/svg">
<path d="M3.16699 14.2502C3.16699 13.4103 3.50062 12.6049 4.09449 12.011C4.68835 11.4171 5.49381 11.0835 6.33366 11.0835H12.667C13.5068 11.0835 14.3123 11.4171 14.9062 12.011C15.5 12.6049 15.8337 13.4103 15.8337 14.2502C15.8337 14.6701 15.6668 15.0728 15.3699 15.3697C15.073 15.6667 14.6703 15.8335 14.2503 15.8335H4.75033C4.3304 15.8335 3.92767 15.6667 3.63074 15.3697C3.33381 15.0728 3.16699 14.6701 3.16699 14.2502Z" stroke="black" stroke-width="1.97917" stroke-linejoin="round"/>
<path d="M9.5 7.9165C10.8117 7.9165 11.875 6.85318 11.875 5.5415C11.875 4.22983 10.8117 3.1665 9.5 3.1665C8.18832 3.1665 7.125 4.22983 7.125 5.5415C7.125 6.85318 8.18832 7.9165 9.5 7.9165Z" stroke="black" stroke-width="1.97917"/>
</svg>
