<svg width="22" height="22" viewBox="0 0 22 22" fill="none" xmlns="http://www.w3.org/2000/svg">
<path d="M2.99964 15.5C2.99964 16.2956 3.31572 17.0587 3.87832 17.6213C4.44093 18.1839 5.204 18.5 5.99964 18.5C5.99964 19.163 6.26304 19.7989 6.73188 20.2678C7.20072 20.7366 7.8366 21 8.49964 21C9.16269 21 9.79857 20.7366 10.2674 20.2678C10.7363 19.7989 10.9996 19.163 10.9996 18.5C10.9996 19.163 11.263 19.7989 11.7319 20.2678C12.2007 20.7366 12.8366 21 13.4996 21C14.1627 21 14.7986 20.7366 15.2674 20.2678C15.7363 19.7989 15.9996 19.163 15.9996 18.5C16.5316 18.5002 17.0541 18.3588 17.5135 18.0905C17.9729 17.8222 18.3527 17.4366 18.6139 16.9731C18.8751 16.5097 19.0084 15.9851 19.0001 15.4532C18.9918 14.9212 18.8422 14.4011 18.5666 13.946C19.2511 13.8137 19.8682 13.4473 20.3119 12.9097C20.7556 12.372 20.9983 11.6966 20.9983 10.9995C20.9983 10.3024 20.7556 9.62701 20.3119 9.08934C19.8682 8.55167 19.2511 8.18525 18.5666 8.053C18.842 7.59796 18.9914 7.0779 18.9995 6.54611C19.0077 6.01432 18.8744 5.48992 18.6132 5.02663C18.352 4.56334 17.9723 4.17781 17.513 3.90956C17.0538 3.6413 16.5315 3.49996 15.9996 3.5C15.9996 2.83696 15.7363 2.20107 15.2674 1.73223C14.7986 1.26339 14.1627 1 13.4996 1C12.8366 1 12.2007 1.26339 11.7319 1.73223C11.263 2.20107 10.9996 2.83696 10.9996 3.5C10.9996 2.83696 10.7363 2.20107 10.2674 1.73223C9.79857 1.26339 9.16269 1 8.49964 1C7.8366 1 7.20072 1.26339 6.73188 1.73223C6.26304 2.20107 5.99964 2.83696 5.99964 3.5C5.46779 3.49996 4.94549 3.6413 4.48625 3.90956C4.027 4.17781 3.64733 4.56334 3.38612 5.02663C3.12492 5.48992 2.99157 6.01432 2.99975 6.54611C3.00792 7.0779 3.15732 7.59796 3.43264 8.053C2.74818 8.18525 2.13112 8.55167 1.6874 9.08934C1.24367 9.62701 1.00098 10.3024 1.00098 10.9995C1.00098 11.6966 1.24367 12.372 1.6874 12.9097C2.13112 13.4473 2.74818 13.8137 3.43264 13.946C3.14913 14.4147 2.99939 14.9522 2.99964 15.5Z" stroke="black" stroke-width="1.5" stroke-linecap="round" stroke-linejoin="round"/>
<path d="M6.5 13.5L8.342 7.974C8.38824 7.83609 8.47664 7.7162 8.59471 7.63126C8.71278 7.54632 8.85455 7.50062 9 7.50062C9.14545 7.50062 9.28722 7.54632 9.40529 7.63126C9.52336 7.7162 9.61176 7.83609 9.658 7.974L11.5 13.5M14.5 7.5V13.5M7.5 11.5H10.5" stroke="black" stroke-width="1.5" stroke-linecap="round" stroke-linejoin="round"/>
</svg>
