<svg width="29" height="29" viewBox="0 0 29 29" fill="none" xmlns="http://www.w3.org/2000/svg">
<path d="M17.4839 26.7237C23.2369 26.3428 27.8184 21.6953 28.1951 15.8612C28.268 14.72 28.268 13.5375 28.1951 12.3962C27.8184 6.56347 23.2369 1.91872 17.4839 1.5351C15.4969 1.40415 13.5034 1.40415 11.5164 1.5351C5.76337 1.91735 1.18187 6.56347 0.805116 12.3976C0.732279 13.5514 0.732279 14.7087 0.805116 15.8626C0.942616 17.987 1.88174 19.9546 2.98862 21.6156C3.63074 22.7775 3.20724 24.2281 2.53762 25.4972C2.05637 26.4116 1.81437 26.8681 2.00824 27.1981C2.20074 27.5281 2.63387 27.5391 3.49874 27.5597C5.21062 27.601 6.36424 27.117 7.27999 26.4418C7.79837 26.0582 8.05824 25.8671 8.23699 25.8451C8.41574 25.8231 8.76912 25.9688 9.47312 26.2576C10.1056 26.5188 10.8412 26.6797 11.515 26.7251C13.4744 26.8543 15.5217 26.8543 17.4852 26.7251L17.4839 26.7237Z" stroke="#FF0000" stroke-width="1.5" stroke-linejoin="round"/>
<path d="M8.3125 18.625L10.8453 11.0267C10.9088 10.8371 11.0304 10.6723 11.1927 10.5555C11.3551 10.4387 11.55 10.3758 11.75 10.3758C11.95 10.3758 12.1449 10.4387 12.3073 10.5555C12.4696 10.6723 12.5912 10.8371 12.6547 11.0267L15.1875 18.625M19.3125 10.375V18.625M9.6875 15.875H13.8125" stroke="#FF0000" stroke-width="1.5" stroke-linecap="round" stroke-linejoin="round"/>
</svg>
