<svg width="26" height="26" viewBox="0 0 26 26" fill="none" xmlns="http://www.w3.org/2000/svg">
<circle cx="13" cy="13" r="13" fill="#FF0000"/>
<path d="M19.625 12.7083V11.125H18.0417V9.54167C18.0404 9.12213 17.8732 8.72013 17.5765 8.42347C17.2799 8.1268 16.8779 7.95959 16.4583 7.95833H14.875V6.375H13.2917V7.95833H11.7083V6.375H10.125V7.95833H8.54167C8.12213 7.95959 7.72013 8.1268 7.42347 8.42347C7.1268 8.72013 6.95959 9.12213 6.95833 9.54167V11.125H5.375V12.7083H6.95833V14.2917H5.375V15.875H6.95833V17.4583C6.95959 17.8779 7.1268 18.2799 7.42347 18.5765C7.72013 18.8732 8.12213 19.0404 8.54167 19.0417H10.125V20.625H11.7083V19.0417H13.2917V20.625H14.875V19.0417H16.4583C16.8779 19.0404 17.2799 18.8732 17.5765 18.5765C17.8732 18.2799 18.0404 17.8779 18.0417 17.4583V15.875H19.625V14.2917H18.0417V12.7083H19.625ZM16.4583 17.4583H8.54167V9.54167H16.4583V17.4583Z" fill="white"/>
<path d="M11.9939 10.3334H10.9291L9.33789 16.6667H10.1509L10.5183 15.1823H12.3518L12.7096 16.6667H13.5503L11.9939 10.3334ZM10.6251 14.5482L11.4311 11.0855H11.4675L12.2457 14.5482H10.6251ZM14.2763 10.3334H15.068V16.6667H14.2763V10.3334Z" fill="white"/>
</svg>
