<svg width="26" height="27" viewBox="0 0 26 27" fill="none" xmlns="http://www.w3.org/2000/svg">
<path d="M12 2V1C12 0.734784 12.1054 0.48043 12.2929 0.292893C12.4804 0.105357 12.7348 0 13 0C13.2652 0 13.5196 0.105357 13.7071 0.292893C13.8946 0.48043 14 0.734784 14 1V2C14 2.26522 13.8946 2.51957 13.7071 2.70711C13.5196 2.89464 13.2652 3 13 3C12.7348 3 12.4804 2.89464 12.2929 2.70711C12.1054 2.51957 12 2.26522 12 2ZM22 6C22.1314 6.0001 22.2615 5.97432 22.3829 5.92414C22.5042 5.87395 22.6146 5.80033 22.7075 5.7075L23.7075 4.7075C23.8951 4.51986 24.0006 4.26536 24.0006 4C24.0006 3.73464 23.8951 3.48014 23.7075 3.2925C23.5199 3.10486 23.2654 2.99944 23 2.99944C22.7346 2.99944 22.4801 3.10486 22.2925 3.2925L21.2925 4.2925C21.1525 4.43236 21.0571 4.61061 21.0185 4.80469C20.9798 4.99878 20.9996 5.19997 21.0754 5.38279C21.1511 5.56561 21.2794 5.72185 21.444 5.83172C21.6086 5.94159 21.8021 6.00016 22 6ZM3.2925 5.7075C3.48014 5.89514 3.73464 6.00056 4 6.00056C4.26536 6.00056 4.51986 5.89514 4.7075 5.7075C4.89514 5.51986 5.00056 5.26536 5.00056 5C5.00056 4.73464 4.89514 4.48014 4.7075 4.2925L3.7075 3.2925C3.51986 3.10486 3.26536 2.99944 3 2.99944C2.73464 2.99944 2.48014 3.10486 2.2925 3.2925C2.10486 3.48014 1.99944 3.73464 1.99944 4C1.99944 4.26536 2.10486 4.51986 2.2925 4.7075L3.2925 5.7075ZM14.1675 9.01375C14.0374 8.99075 13.9041 8.99374 13.7751 9.02257C13.6462 9.05139 13.5243 9.10548 13.4164 9.1817C13.3085 9.25791 13.2168 9.35475 13.1465 9.46662C13.0763 9.57849 13.0289 9.70317 13.0071 9.83346C12.9853 9.96375 12.9895 10.0971 13.0195 10.2257C13.0495 10.3544 13.1048 10.4758 13.182 10.583C13.2592 10.6902 13.3569 10.781 13.4694 10.8502C13.5819 10.9194 13.707 10.9657 13.8375 10.9862C16.2087 11.385 18 13.54 18 16C18 16.2652 18.1054 16.5196 18.2929 16.7071C18.4804 16.8946 18.7348 17 19 17C19.2652 17 19.5196 16.8946 19.7071 16.7071C19.8946 16.5196 20 16.2652 20 16C20 12.575 17.4913 9.57125 14.165 9.01375H14.1675ZM26 22V25C26 25.5304 25.7893 26.0391 25.4142 26.4142C25.0391 26.7893 24.5304 27 24 27H2C1.46957 27 0.960859 26.7893 0.585786 26.4142C0.210714 26.0391 0 25.5304 0 25V22C0 21.4696 0.210714 20.9609 0.585786 20.5858C0.960859 20.2107 1.46957 20 2 20V16C1.99996 14.5484 2.28723 13.1111 2.84526 11.771C3.4033 10.431 4.22105 9.21461 5.25138 8.19207C6.28171 7.16952 7.50425 6.36102 8.84851 5.81316C10.1928 5.26531 11.6322 4.98895 13.0837 5C19.1025 5.045 24 10.0363 24 16.125V20C24.5304 20 25.0391 20.2107 25.4142 20.5858C25.7893 20.9609 26 21.4696 26 22ZM4 20H22V16.125C22 11.125 17.9938 7.03625 13.0688 7H13C10.6131 7 8.32387 7.94821 6.63604 9.63604C4.94821 11.3239 4 13.6131 4 16V20ZM24 25V22H2V25H24Z" fill="#FF0000"/>
</svg>
