<svg width="19" height="17" viewBox="0 0 19 17" fill="none" xmlns="http://www.w3.org/2000/svg">
<path d="M17.667 0.333252H1.33366C1.02424 0.333252 0.727493 0.456168 0.508701 0.674961C0.289908 0.893753 0.166992 1.1905 0.166992 1.49992V15.4999C0.166992 15.8093 0.289908 16.1061 0.508701 16.3249C0.727493 16.5437 1.02424 16.6666 1.33366 16.6666H17.667C17.9764 16.6666 18.2732 16.5437 18.492 16.3249C18.7107 16.1061 18.8337 15.8093 18.8337 15.4999V1.49992C18.8337 1.1905 18.7107 0.893753 18.492 0.674961C18.2732 0.456168 17.9764 0.333252 17.667 0.333252ZM4.20366 2.66659C4.54978 2.66659 4.88812 2.76922 5.17591 2.96151C5.46369 3.15381 5.68799 3.42712 5.82045 3.74689C5.9529 4.06666 5.98756 4.41853 5.92003 4.75799C5.85251 5.09746 5.68584 5.40928 5.4411 5.65402C5.19635 5.89876 4.88453 6.06544 4.54507 6.13296C4.2056 6.20048 3.85373 6.16583 3.53396 6.03337C3.21419 5.90092 2.94088 5.67662 2.74859 5.38883C2.55629 5.10105 2.45366 4.7627 2.45366 4.41658C2.45366 3.95246 2.63803 3.50734 2.96622 3.17915C3.29441 2.85096 3.73953 2.66659 4.20366 2.66659ZM2.50033 13.7499V11.3583L6.00033 7.81158C6.10962 7.70294 6.25747 7.64196 6.41158 7.64196C6.56568 7.64196 6.71353 7.70294 6.82283 7.81158L8.33366 9.28742L3.85366 13.7499H2.50033ZM16.5003 13.7499H5.50449L9.13866 10.1158L12.2887 6.96575C12.398 6.85711 12.5458 6.79612 12.6999 6.79612C12.854 6.79612 13.0019 6.85711 13.1112 6.96575L16.5003 10.3549V13.7499Z" fill="#FF0000"/>
</svg>
