<svg width="18" height="14" viewBox="0 0 18 14" fill="none" xmlns="http://www.w3.org/2000/svg">
<path d="M15.667 7.41915V2.83331C15.667 2.6123 15.5792 2.40034 15.4229 2.24406C15.2666 2.08778 15.0547 1.99998 14.8337 1.99998H3.16699C2.94598 1.99998 2.73402 2.08778 2.57774 2.24406C2.42146 2.40034 2.33366 2.6123 2.33366 2.83331V11.1666C2.33366 11.3877 2.42146 11.5996 2.57774 11.7559C2.73402 11.9122 2.94598 12 3.16699 12H6.08699L9.74533 5.89831C9.94057 5.57284 10.2074 5.29609 10.5255 5.08905C10.8436 4.88202 11.2046 4.75013 11.5813 4.70339C11.958 4.65665 12.3403 4.69628 12.6994 4.81928C13.0584 4.94229 13.3848 5.14543 13.6537 5.41331L15.667 7.41915ZM15.667 9.77165L12.477 6.59331C12.3873 6.50411 12.2785 6.43649 12.1588 6.39559C12.0391 6.35468 11.9117 6.34156 11.7861 6.35722C11.6606 6.37288 11.5403 6.41691 11.4343 6.48597C11.3284 6.55503 11.2395 6.64731 11.1745 6.75581L8.03033 12H14.8337C15.0547 12 15.2666 11.9122 15.4229 11.7559C15.5792 11.5996 15.667 11.3877 15.667 11.1666V9.77165ZM3.16699 0.333313H14.8337C15.4967 0.333313 16.1326 0.596705 16.6014 1.06555C17.0703 1.53439 17.3337 2.17027 17.3337 2.83331V11.1666C17.3337 11.8297 17.0703 12.4656 16.6014 12.9344C16.1326 13.4033 15.4967 13.6666 14.8337 13.6666H3.16699C2.50395 13.6666 1.86807 13.4033 1.39923 12.9344C0.930384 12.4656 0.666992 11.8297 0.666992 11.1666L0.666992 2.83331C0.666992 2.17027 0.930384 1.53439 1.39923 1.06555C1.86807 0.596705 2.50395 0.333313 3.16699 0.333313ZM5.66699 7.83331C5.00395 7.83331 4.36807 7.56992 3.89923 7.10108C3.43038 6.63224 3.16699 5.99635 3.16699 5.33331C3.16699 4.67027 3.43038 4.03439 3.89923 3.56555C4.36807 3.09671 5.00395 2.83331 5.66699 2.83331C6.33003 2.83331 6.96592 3.09671 7.43476 3.56555C7.9036 4.03439 8.16699 4.67027 8.16699 5.33331C8.16699 5.99635 7.9036 6.63224 7.43476 7.10108C6.96592 7.56992 6.33003 7.83331 5.66699 7.83331ZM5.66699 6.16665C5.88801 6.16665 6.09997 6.07885 6.25625 5.92257C6.41253 5.76629 6.50033 5.55433 6.50033 5.33331C6.50033 5.1123 6.41253 4.90034 6.25625 4.74406C6.09997 4.58778 5.88801 4.49998 5.66699 4.49998C5.44598 4.49998 5.23402 4.58778 5.07774 4.74406C4.92146 4.90034 4.83366 5.1123 4.83366 5.33331C4.83366 5.55433 4.92146 5.76629 5.07774 5.92257C5.23402 6.07885 5.44598 6.16665 5.66699 6.16665Z" fill="black"/>
</svg>
