<svg width="128" height="82" viewBox="0 0 128 82" fill="none" xmlns="http://www.w3.org/2000/svg">
<g clip-path="url(#clip0_127_2298)">
<path d="M10.8871 54.8849C10.3768 55.2885 10.2694 55.9608 10.5648 56.9025C10.8334 57.7364 11.4645 58.7719 12.4581 60.0094C16.4594 64.9591 21.2262 69.0747 26.7583 72.3566C32.2905 75.6385 38.2121 78.0594 44.523 79.6195C50.8607 81.2067 57.3327 82.0002 63.939 82.0002C72.3984 82.0002 80.4549 80.763 88.1085 78.288C95.7621 75.84 102.154 72.3968 107.283 67.9583C109.082 66.3714 109.982 65.1071 109.982 64.1654C109.982 63.8157 109.834 63.466 109.539 63.1163C109.136 62.713 108.653 62.5785 108.089 62.713C107.525 62.8473 106.733 63.1836 105.712 63.7217C100.797 66.3041 94.8089 68.3619 87.746 69.8953C80.7101 71.4554 73.3652 72.2355 65.7116 72.2355C56.2318 72.2355 47.0742 70.9444 38.2389 68.3619C29.4036 65.7794 21.5753 61.7445 14.7542 56.2569C13.7606 55.4769 12.9548 54.979 12.3372 54.7638C11.7464 54.5486 11.263 54.5891 10.8871 54.8849Z" fill="#008BD6"/>
<path d="M100.392 56.9046C99.8284 57.4426 99.6807 58.0075 99.9493 58.5995C100.137 59.0299 100.5 59.2718 101.037 59.3257C101.574 59.4064 102.339 59.3525 103.333 59.1644C104.944 58.8147 106.623 58.5724 108.368 58.4379C110.114 58.3304 111.631 58.3572 112.92 58.5186C114.209 58.707 115.015 59.0299 115.337 59.487C115.821 60.2135 115.646 61.7466 114.814 64.0871C114.008 66.4273 112.907 68.7003 111.51 70.9062C110.973 71.7938 110.651 72.4932 110.544 73.0045C110.436 73.5155 110.571 73.9459 110.946 74.2956C111.188 74.5376 111.457 74.6587 111.752 74.6587C112.531 74.6587 113.659 73.9727 115.136 72.6009C117.795 70.2875 119.661 67.5437 120.735 64.3695C121.326 62.7285 121.688 61.007 121.823 59.2046C121.957 57.4024 121.756 56.1111 121.218 55.331C120.708 54.5777 119.58 53.959 117.835 53.475C116.116 52.9908 114.384 52.7485 112.638 52.7485C109.228 52.7485 105.992 53.5557 102.93 55.1697C101.802 55.7884 100.957 56.3667 100.392 56.9046Z" fill="#008BD6"/>
<path d="M9.58212 45.1944C3.87092 45.1944 0 41.1263 0 35.0877C0 27.7778 5.7112 23.2011 14.7222 23.2011C16.3086 23.2011 17.2605 23.2647 18.022 23.4554V22.6926C18.022 18.4974 16.5625 16.5269 13.5165 16.5269C11.1051 16.5269 9.39175 17.9253 8.75717 20.4043C8.5668 21.1671 8.12259 21.5484 7.48802 21.4213L1.90374 20.4043C1.14224 20.2772 0.824956 19.7686 1.01533 19.0059C2.4114 13.3486 7.17073 10.1704 14.0876 10.1704C22.2737 10.1704 26.5888 14.6835 26.5888 23.1376V43.4146C26.5888 44.0503 26.1446 44.4952 25.5735 44.4952H20.3065C19.6719 44.4952 19.2912 44.1138 19.1642 43.4146L18.3393 39.6643H17.9585C16.4356 43.2239 13.453 45.1944 9.58212 45.1944ZM12.8819 38.7744C16.2452 38.7744 18.022 35.7233 18.022 30.0661V28.032C17.3874 27.9049 16.6894 27.8413 15.9279 27.8413C11.5493 27.8413 8.82063 30.1932 8.82063 34.0706C8.82063 36.931 10.4071 38.7744 12.8819 38.7744Z" fill="#008BD6"/>
<path d="M32.6726 0H39.2722C39.8433 0 40.2875 0.508515 40.2875 1.14416V43.4145C40.2875 44.0501 39.8433 44.4951 39.2722 44.4951H32.6726C32.1014 44.4951 31.7207 44.0501 31.7207 43.4145V1.14416C31.7207 0.508515 32.1014 0 32.6726 0Z" fill="#008BD6"/>
<path d="M59.0074 10.1704C67.1934 10.1704 72.8412 17.3532 72.8412 27.4599V29.1126C72.8412 29.8118 72.397 30.1932 71.8259 30.1932H53.3597C53.7404 35.6598 55.5807 38.4566 59.0074 38.4566C61.4822 38.4566 63.4494 37.3124 64.1475 34.1978C64.2744 33.4986 64.6551 33.2443 65.2897 33.3714L71.3182 34.7063C71.9528 34.8334 72.2701 35.2784 72.0162 35.9776C69.9856 41.9526 65.2897 45.1944 59.0074 45.1944C50.3137 45.1944 44.4121 38.2023 44.4121 27.9049C44.4121 17.6075 50.4406 10.1704 59.0074 10.1704ZM64.1475 24.536C63.7033 19.5144 61.9899 16.9082 59.0074 16.9082C56.0883 16.9082 54.0577 19.6415 53.4231 24.536H64.1475Z" fill="#008BD6"/>
<path d="M81.1665 44.4951C81.5472 44.4951 82.0549 44.1773 82.1818 43.8595L87.0046 33.2442H87.2584L92.0177 43.6688C92.2081 44.1137 92.7792 44.4951 93.2869 44.4951H99.8865C100.648 44.4951 101.029 43.923 100.648 43.2238L92.5889 27.4599L100.267 12.268C100.648 11.5052 100.267 10.9331 99.4423 10.9331H93.16C92.7158 10.9331 92.2716 11.2509 92.0812 11.6323L87.5757 21.4212H87.3219L82.8164 11.5687C82.6895 11.2509 82.1818 10.9331 81.8011 10.9331H74.9476C74.1227 10.9331 73.7419 11.5052 74.1227 12.268L81.7376 27.3963L73.7419 43.1603C73.3612 43.8595 73.7419 44.4951 74.5669 44.4951H81.1665Z" fill="#008BD6"/>
<path d="M110.993 45.1944C105.282 45.1944 101.411 41.1263 101.411 35.0877C101.411 27.7778 107.122 23.2011 116.133 23.2011C117.72 23.2011 118.672 23.2647 119.433 23.4554V22.6926C119.433 18.4974 117.974 16.5269 114.928 16.5269C112.516 16.5269 110.803 17.9253 110.168 20.4043C109.978 21.1671 109.534 21.5484 108.899 21.4213L103.315 20.4043C102.553 20.2772 102.236 19.7686 102.426 19.0059C103.823 13.3486 108.582 10.1704 115.499 10.1704C123.685 10.1704 128 14.6835 128 23.1376V43.4146C128 44.0503 127.556 44.4952 126.985 44.4952H121.718C121.083 44.4952 120.702 44.1138 120.575 43.4146L119.75 39.6643H119.37C117.847 43.2239 114.864 45.1944 110.993 45.1944ZM114.293 38.7744C117.656 38.7744 119.433 35.7233 119.433 30.0661V28.032C118.799 27.9049 118.101 27.8413 117.339 27.8413C112.96 27.8413 110.232 30.1932 110.232 34.0706C110.232 36.931 111.818 38.7744 114.293 38.7744Z" fill="#008BD6"/>
</g>
<defs>
<clipPath id="clip0_127_2298">
<rect width="128" height="82" fill="white"/>
</clipPath>
</defs>
</svg>
