<svg width="13" height="14" viewBox="0 0 13 14" fill="none" xmlns="http://www.w3.org/2000/svg">
<path d="M2.0875 3.96875C1.84375 3.725 1.84375 3.325 2.0875 3.08125C2.14532 3.02331 2.214 2.97734 2.28961 2.94598C2.36522 2.91462 2.44627 2.89847 2.52813 2.89847C2.60998 2.89847 2.69103 2.91462 2.76664 2.94598C2.84225 2.97734 2.91093 3.02331 2.96875 3.08125L7.16875 6.44375L7.3875 6.61875C7.875 7.10625 7.875 7.9 7.3875 8.3875C6.9 8.875 6.10625 8.875 5.61875 8.3875L5.44375 8.16875L2.0875 3.96875ZM6.5 12.5C7.82608 12.5 9.09785 11.9732 10.0355 11.0355C10.9732 10.0979 11.5 8.82608 11.5 7.5C11.5 6.11875 10.9375 4.86875 10.0375 3.9625L10.9187 3.08125C11.5 3.66087 11.961 4.34961 12.2752 5.10792C12.5895 5.86622 12.7508 6.67915 12.75 7.5C12.75 9.1576 12.0915 10.7473 10.9194 11.9194C9.74732 13.0915 8.1576 13.75 6.5 13.75C5.67924 13.75 4.86651 13.5883 4.10823 13.2742C3.34994 12.9602 2.66095 12.4998 2.08058 11.9194C0.90848 10.7473 0.25 9.1576 0.25 7.5H1.5C1.5 8.82608 2.02678 10.0979 2.96447 11.0355C3.90215 11.9732 5.17392 12.5 6.5 12.5ZM6.5 0.625C6.83152 0.625 7.14946 0.756696 7.38388 0.991117C7.6183 1.22554 7.75 1.54348 7.75 1.875C7.75 2.20652 7.6183 2.52446 7.38388 2.75888C7.14946 2.9933 6.83152 3.125 6.5 3.125C6.16848 3.125 5.85054 2.9933 5.61612 2.75888C5.3817 2.52446 5.25 2.20652 5.25 1.875C5.25 1.54348 5.3817 1.22554 5.61612 0.991117C5.85054 0.756696 6.16848 0.625 6.5 0.625Z" fill="black"/>
</svg>
