<svg width="13" height="17" viewBox="0 0 13 17" fill="none" xmlns="http://www.w3.org/2000/svg">
<path d="M11.3493 0.583496H1.65137C1.25782 0.583915 0.880502 0.740439 0.602218 1.01872C0.323935 1.29701 0.167411 1.67432 0.166992 2.06787V11.7658C0.166992 12.5844 0.832784 13.2502 1.65137 13.2502H5.70866V14.8335H2.54199V16.4168H10.4587V14.8335H7.29199V13.2502H11.3493C11.7428 13.2497 12.1201 13.0932 12.3984 12.8149C12.6767 12.5367 12.8332 12.1593 12.8337 11.7658V2.06787C12.8332 1.67432 12.6767 1.29701 12.3984 1.01872C12.1201 0.740439 11.7428 0.583915 11.3493 0.583496ZM11.2503 11.6668H1.75033V2.16683H11.2503V11.6668Z" fill="black"/>
<path d="M6.49967 10.0833C8.24609 10.0833 9.66634 8.66308 9.66634 6.91667C9.66634 5.17025 8.24609 3.75 6.49967 3.75C4.75326 3.75 3.33301 5.17025 3.33301 6.91667C3.33301 8.66308 4.75326 10.0833 6.49967 10.0833ZM6.49967 5.33333C7.37288 5.33333 8.08301 6.04346 8.08301 6.91667C8.08301 7.78988 7.37288 8.5 6.49967 8.5C5.62647 8.5 4.91634 7.78988 4.91634 6.91667C4.91634 6.04346 5.62647 5.33333 6.49967 5.33333Z" fill="black"/>
</svg>
