<svg width="20" height="18" viewBox="0 0 20 18" fill="none" xmlns="http://www.w3.org/2000/svg">
<path d="M7.50176 15.4167H12.4976L12.0393 13.5833H7.96009L7.50176 15.4167ZM7.24967 11.75H12.7497C14.0177 11.75 15.0988 11.303 15.9928 10.4089C16.8869 9.51486 17.3336 8.43411 17.333 7.16667C17.3324 5.89922 16.8854 4.81847 15.9919 3.92442C15.0985 3.03036 14.0177 2.58333 12.7497 2.58333H7.24967C5.98162 2.58333 4.90087 3.03036 4.00742 3.92442C3.11398 4.81847 2.66695 5.89922 2.66634 7.16667C2.66573 8.43411 3.11276 9.51517 4.00742 10.4098C4.90209 11.3045 5.98284 11.7512 7.24967 11.75ZM9.99967 9C9.49551 9 9.06406 8.82064 8.70534 8.46192C8.34662 8.10319 8.16695 7.67144 8.16634 7.16667C8.16573 6.66189 8.3454 6.23044 8.70534 5.87233C9.06529 5.51422 9.49673 5.33456 9.99967 5.33333C10.5026 5.33211 10.9344 5.51178 11.2949 5.87233C11.6555 6.23289 11.8348 6.66433 11.833 7.16667C11.8312 7.669 11.6518 8.10075 11.2949 8.46192C10.938 8.82308 10.5063 9.00244 9.99967 9ZM4.95801 6.25C5.21773 6.25 5.43559 6.162 5.61159 5.986C5.78759 5.81 5.87529 5.59244 5.87467 5.33333C5.87406 5.07422 5.78606 4.85667 5.61067 4.68067C5.43529 4.50467 5.21773 4.41667 4.95801 4.41667C4.69829 4.41667 4.48073 4.50467 4.30534 4.68067C4.12995 4.85667 4.04195 5.07422 4.04134 5.33333C4.04073 5.59244 4.12873 5.81031 4.30534 5.98692C4.48195 6.16353 4.69951 6.25122 4.95801 6.25ZM2.66634 17.25V15.4167H5.62259L6.10384 13.4917C4.59134 13.2319 3.3349 12.5099 2.33451 11.3256C1.33412 10.1412 0.833619 8.75494 0.833008 7.16667C0.833008 5.37917 1.45573 3.863 2.70117 2.61817C3.94662 1.37333 5.46279 0.750611 7.24967 0.75H12.7497C14.5372 0.75 16.0536 1.37272 17.2991 2.61817C18.5445 3.86361 19.167 5.37978 19.1663 7.16667C19.1663 8.75556 18.6658 10.1422 17.6648 11.3265C16.6638 12.5108 15.4074 13.2326 13.8955 13.4917L14.3768 15.4167H17.333V17.25H2.66634ZM9.99967 10.8333C11.008 10.8333 11.8712 10.4743 12.5893 9.75625C13.3073 9.03819 13.6663 8.175 13.6663 7.16667C13.6663 6.15833 13.3073 5.29514 12.5893 4.57708C11.8712 3.85903 11.008 3.5 9.99967 3.5C8.99134 3.5 8.12815 3.85903 7.41009 4.57708C6.69204 5.29514 6.33301 6.15833 6.33301 7.16667C6.33301 8.175 6.69204 9.03819 7.41009 9.75625C8.12815 10.4743 8.99134 10.8333 9.99967 10.8333Z" fill="black"/>
</svg>
