<svg width="23" height="19" viewBox="0 0 23 19" fill="none" xmlns="http://www.w3.org/2000/svg">
<path d="M22.3195 2.78959C21.5091 3.14879 20.6495 3.38447 19.7692 3.48877C20.6936 2.93197 21.3864 2.06058 21.7203 1.0344C20.848 1.54954 19.8947 1.91322 18.9009 2.10999C18.2318 1.39742 17.3464 0.925411 16.3818 0.767097C15.4172 0.608783 14.4274 0.773004 13.5656 1.23431C12.7038 1.69563 12.0183 2.42827 11.6151 3.31873C11.2119 4.2092 11.1137 5.20776 11.3356 6.15971C9.57024 6.07068 7.84327 5.61155 6.26674 4.81209C4.69021 4.01263 3.29934 2.89071 2.18434 1.51909C1.79002 2.19704 1.58256 2.96745 1.58312 3.75174C1.58226 4.48269 1.76211 5.20251 2.10665 5.84716C2.45119 6.49181 2.94975 7.04129 3.55796 7.44671C2.85307 7.42432 2.16368 7.23412 1.54702 6.8919V6.94656C1.54656 7.972 1.90109 8.96599 2.5504 9.75967C3.19971 10.5534 4.10375 11.0978 5.10896 11.3005C4.73702 11.4022 4.34721 11.4528 3.93952 11.4521C3.65352 11.4535 3.37509 11.4273 3.10421 11.3737C3.38785 12.2559 3.94014 13.0274 4.68382 13.5802C5.4275 14.1331 6.32539 14.4397 7.2519 14.4571C5.38819 15.911 3.02603 16.5707 0.678711 16.2928C2.70782 17.6001 5.07115 18.2941 7.48496 18.2913C15.6525 18.2913 20.1157 11.5243 20.1157 5.65852C20.1164 5.46602 20.113 5.27456 20.1054 5.08412C20.9755 4.45953 21.7253 3.68248 22.3185 2.79062" fill="black"/>
</svg>
