<svg width="15" height="15" viewBox="0 0 15 15" fill="none" xmlns="http://www.w3.org/2000/svg">
<path d="M14.2531 10.8646C14.1818 10.8646 12.5827 10.5796 12.5827 5.91669C12.5827 2.62335 10.6668 0.572937 7.50016 0.572937C4.3335 0.572937 2.41766 2.62335 2.41766 5.91669C2.41766 10.6667 0.763079 10.8646 0.770996 10.8646C0.613524 10.8646 0.462501 10.9272 0.351151 11.0385C0.239802 11.1499 0.177246 11.3009 0.177246 11.4584C0.177246 11.6158 0.239802 11.7668 0.351151 11.8782C0.462501 11.9895 0.613524 12.0521 0.770996 12.0521H4.59475C4.72691 12.7256 5.08893 13.3322 5.61889 13.7683C6.14886 14.2044 6.81385 14.4428 7.50016 14.4428C8.18647 14.4428 8.85147 14.2044 9.38144 13.7683C9.9114 13.3322 10.2734 12.7256 10.4056 12.0521H14.2372C14.3947 12.0521 14.5457 11.9895 14.6571 11.8782C14.7684 11.7668 14.831 11.6158 14.831 11.4584C14.831 11.3009 14.7684 11.1499 14.6571 11.0385C14.5457 10.9272 14.3947 10.8646 14.2372 10.8646H14.2531ZM7.50016 13.2396C7.13307 13.2389 6.77523 13.1243 6.47603 12.9116C6.17683 12.6989 5.95102 12.3986 5.82975 12.0521H9.17058C9.04931 12.3986 8.82349 12.6989 8.52429 12.9116C8.2251 13.1243 7.86726 13.2389 7.50016 13.2396ZM2.56016 10.8646C3.13016 10.0017 3.60516 8.4896 3.60516 5.91669C3.60516 3.34377 5.03016 1.76044 7.50016 1.76044C9.97016 1.76044 11.3952 3.27252 11.3952 5.91669C11.3952 8.56085 11.8702 10.0017 12.4402 10.8646H2.56016Z" fill="black"/>
</svg>
