<svg width="14" height="20" viewBox="0 0 14 20" fill="none" xmlns="http://www.w3.org/2000/svg">
<path d="M9.75 5.1875V0.375H8.375V3.8125C8.375 3.99484 8.30257 4.1697 8.17364 4.29864C8.04471 4.42757 7.86984 4.5 7.6875 4.5C7.50516 4.5 7.33029 4.42757 7.20136 4.29864C7.07243 4.1697 7 3.99484 7 3.8125V0.375H0.8125C0.630164 0.375 0.455295 0.447433 0.326364 0.576364C0.197433 0.705295 0.125 0.880164 0.125 1.0625V8.625H13.875V1.0625C13.875 0.880164 13.8026 0.705295 13.6736 0.576364C13.5447 0.447433 13.3698 0.375 13.1875 0.375H11.125V5.1875C11.125 5.36984 11.0526 5.5447 10.9236 5.67364C10.7947 5.80257 10.6198 5.875 10.4375 5.875C10.2552 5.875 10.0803 5.80257 9.95136 5.67364C9.82243 5.5447 9.75 5.36984 9.75 5.1875ZM13.875 10H0.125V11.375C0.125 12.1043 0.414731 12.8038 0.930456 13.3195C1.44618 13.8353 2.14565 14.125 2.875 14.125H4.9375V17.5625C4.9375 18.1095 5.1548 18.6341 5.54159 19.0209C5.92839 19.4077 6.45299 19.625 7 19.625C7.54701 19.625 8.07161 19.4077 8.45841 19.0209C8.8452 18.6341 9.0625 18.1095 9.0625 17.5625V14.125H11.125C11.8543 14.125 12.5538 13.8353 13.0695 13.3195C13.5853 12.8038 13.875 12.1043 13.875 11.375V10Z" fill="#FF0000"/>
</svg>
