<svg width="30" height="23" viewBox="0 0 30 23" fill="none" xmlns="http://www.w3.org/2000/svg">
<path d="M22.5 21C24.1576 21 25.7473 20.3416 26.9194 19.1695C28.0915 17.9974 28.75 16.4076 28.75 14.75C28.75 13.0924 28.0915 11.5027 26.9194 10.3306C25.7473 9.15853 24.1576 8.50005 22.5 8.50005C22.1685 6.34516 20.9945 4.41023 19.2364 3.12092C17.4782 1.83161 15.2799 1.29352 13.125 1.62504C10.9701 1.95657 9.03519 3.13053 7.74587 4.88869C6.45656 6.64684 5.91848 8.84516 6.25 11C4.92392 11 3.65215 11.5268 2.71447 12.4645C1.77678 13.4022 1.25 14.674 1.25 16C1.25 17.3261 1.77678 18.5979 2.71447 19.5356C3.65215 20.4733 4.92392 21 6.25 21H22.5Z" stroke="#FF0000" stroke-width="2.5" stroke-linecap="round" stroke-linejoin="round"/>
</svg>
