<svg width="68" height="59" viewBox="0 0 68 59" fill="none" xmlns="http://www.w3.org/2000/svg">
<rect y="0.304352" width="67.8261" height="58.6957" rx="6.52174" fill="#FF0000" fill-opacity="0.24"/>
<path d="M34.996 39.7609C35.0802 40.9402 35.3498 42.0859 35.7878 43.1304H23.9943C21.4672 43.1304 19.2601 42.288 17.4405 40.4853C15.6378 38.7163 14.728 36.5429 14.728 33.9989C14.728 31.8087 15.3851 29.8544 16.6992 28.1359C18.6704 25.5582 19.7824 25.3223 21.8884 24.8505C22.596 22.2728 23.9943 20.1837 26.1003 18.5832C28.2063 16.9826 30.5987 16.1739 33.2606 16.1739C36.546 16.1739 39.3258 17.3196 41.6172 19.6109C43.9085 21.9022 45.0541 24.6821 45.0541 27.9674H45.2226C43.9759 28.0853 42.7797 28.3549 41.6845 28.8098V27.9674C41.6845 25.6424 40.8422 23.6544 39.2248 22.0033C37.5737 20.3859 35.5856 19.5435 33.2606 19.5435C30.9356 19.5435 28.9476 20.3859 27.2965 22.0033C25.6791 23.6544 24.8367 25.6424 24.8367 27.9674H23.9943C22.3601 27.9674 20.9786 28.5402 19.8329 29.7027C18.6704 30.8484 18.0976 32.2299 18.0976 33.8641C18.0976 35.4984 18.6704 36.8799 19.8329 38.0761C20.9786 39.188 22.3601 39.7609 23.9943 39.7609H34.996ZM45.0541 32.1794V29.6522L41.2634 33.4429L45.0541 37.2337V34.7065C46.1712 34.7065 47.2425 35.1503 48.0324 35.9402C48.8223 36.7301 49.2661 37.8014 49.2661 38.9185C49.2661 39.5924 49.1144 40.2326 48.828 40.8054L50.6644 42.6419C51.372 41.5804 51.7932 40.3 51.7932 38.9185C51.7932 35.1951 48.7775 32.1794 45.0541 32.1794ZM45.0541 43.1304C43.937 43.1304 42.8657 42.6867 42.0758 41.8968C41.2859 41.1069 40.8422 40.0356 40.8422 38.9185C40.8422 38.2446 40.9938 37.6044 41.2802 37.0315L39.4438 35.1951C38.7362 36.2565 38.315 37.537 38.315 38.9185C38.315 42.6419 41.3307 45.6576 45.0541 45.6576V48.1848L48.8449 44.394L45.0541 40.6033V43.1304Z" fill="#FF0000"/>
</svg>
