<svg width="62" height="60" viewBox="0 0 62 60" fill="none" xmlns="http://www.w3.org/2000/svg">
<path d="M11.748 45.7629C5.31797 45.7629 0.105469 40.7454 0.105469 34.5554C0.105469 28.3654 5.31797 23.3504 11.748 23.3504C12.7305 18.9454 16.233 15.3504 20.9355 13.9179C25.6355 12.4879 30.8255 13.4354 34.5455 16.4179C38.2655 19.3929 39.9505 23.9354 38.9705 28.3404H41.4455C46.228 28.3404 50.1055 32.2404 50.1055 37.0554C50.1055 41.8704 46.228 45.7729 41.443 45.7729H11.748" fill="#FF0000"/>
<path opacity="0.52" d="M20.5898 45.7629C14.1598 45.7629 8.94727 40.7454 8.94727 34.5554C8.94727 28.3654 14.1598 23.3504 20.5898 23.3504C21.5723 18.9454 25.0748 15.3504 29.7773 13.9179C34.4773 12.4879 39.6673 13.4354 43.3873 16.4179C47.1073 19.3929 48.7923 23.9354 47.8123 28.3404H50.2873C55.0698 28.3404 58.9473 32.2404 58.9473 37.0554C58.9473 41.8704 55.0698 45.7729 50.2848 45.7729H20.5898" fill="#FF0000"/>
</svg>
