<svg width="24" height="24" viewBox="0 0 24 24" fill="none" xmlns="http://www.w3.org/2000/svg">
<path d="M8.15 10.4833L15.85 6.51667M8.15 13.5167L15.85 17.4833M1.5 12C1.5 12.9283 1.86875 13.8185 2.52513 14.4749C3.1815 15.1313 4.07174 15.5 5 15.5C5.92826 15.5 6.8185 15.1313 7.47487 14.4749C8.13125 13.8185 8.5 12.9283 8.5 12C8.5 11.0717 8.13125 10.1815 7.47487 9.52513C6.8185 8.86875 5.92826 8.5 5 8.5C4.07174 8.5 3.1815 8.86875 2.52513 9.52513C1.86875 10.1815 1.5 11.0717 1.5 12ZM15.5 5C15.5 5.92826 15.8687 6.8185 16.5251 7.47487C17.1815 8.13125 18.0717 8.5 19 8.5C19.9283 8.5 20.8185 8.13125 21.4749 7.47487C22.1313 6.8185 22.5 5.92826 22.5 5C22.5 4.07174 22.1313 3.1815 21.4749 2.52513C20.8185 1.86875 19.9283 1.5 19 1.5C18.0717 1.5 17.1815 1.86875 16.5251 2.52513C15.8687 3.1815 15.5 4.07174 15.5 5ZM15.5 19C15.5 19.9283 15.8687 20.8185 16.5251 21.4749C17.1815 22.1313 18.0717 22.5 19 22.5C19.9283 22.5 20.8185 22.1313 21.4749 21.4749C22.1313 20.8185 22.5 19.9283 22.5 19C22.5 18.0717 22.1313 17.1815 21.4749 16.5251C20.8185 15.8687 19.9283 15.5 19 15.5C18.0717 15.5 17.1815 15.8687 16.5251 16.5251C15.8687 17.1815 15.5 18.0717 15.5 19Z" stroke="#FF0000" stroke-width="2" stroke-linecap="round" stroke-linejoin="round"/>
</svg>
