<svg width="12" height="8" viewBox="0 0 12 8" fill="none" xmlns="http://www.w3.org/2000/svg">
<path d="M2.66699 2.66663V5.33329M4.66699 2.66663V5.33329M6.66699 2.66663V5.33329M2.00033 0.666626H9.33366C9.68728 0.666626 10.0264 0.807102 10.2765 1.05715C10.5265 1.3072 10.667 1.64634 10.667 1.99996V2.33329C10.667 2.4217 10.7021 2.50648 10.7646 2.569C10.8271 2.63151 10.9119 2.66663 11.0003 2.66663C11.0887 2.66663 11.1735 2.70174 11.236 2.76426C11.2985 2.82677 11.3337 2.91155 11.3337 2.99996V4.99996C11.3337 5.08836 11.2985 5.17315 11.236 5.23566C11.1735 5.29817 11.0887 5.33329 11.0003 5.33329C10.9119 5.33329 10.8271 5.36841 10.7646 5.43092C10.7021 5.49344 10.667 5.57822 10.667 5.66663V5.99996C10.667 6.35358 10.5265 6.69272 10.2765 6.94277C10.0264 7.19282 9.68728 7.33329 9.33366 7.33329H2.00033C1.6467 7.33329 1.30756 7.19282 1.05752 6.94277C0.807468 6.69272 0.666992 6.35358 0.666992 5.99996V1.99996C0.666992 1.64634 0.807468 1.3072 1.05752 1.05715C1.30756 0.807102 1.6467 0.666626 2.00033 0.666626Z" stroke="#FF0000" stroke-width="1.33333" stroke-linecap="round" stroke-linejoin="round"/>
</svg>
