<svg width="20" height="20" viewBox="0 0 20 20" fill="none" xmlns="http://www.w3.org/2000/svg">
<path d="M19.7952 9.166C19.8595 9.10565 19.9108 9.03287 19.946 8.95207C19.9812 8.87127 19.9997 8.78415 20.0002 8.696V3.358C20.0102 3.024 19.9242 2.719 19.7302 2.468C19.5002 2.172 19.1522 2.024 18.7012 2H13.1832C13.0032 2 12.8302 2.07 12.7032 2.194L3.6882 10.992C3.5022 11.212 3.4152 11.483 3.4482 11.766C3.4752 12 3.5722 12.216 3.7702 12.439L9.2132 17.675C9.42225 17.8793 9.70289 17.9938 9.9952 17.994C10.2702 17.994 10.5272 17.896 10.8132 17.676L19.7952 9.166ZM18.6452 8.419L10.0172 16.599L4.8952 11.674L13.4652 3.314H18.6452V8.419ZM10.0242 3.32H13.0142C13.1018 3.32132 13.1888 3.30538 13.2702 3.27307C13.3517 3.24077 13.4259 3.19274 13.4888 3.13173C13.5517 3.07072 13.6019 2.99793 13.6366 2.9175C13.6713 2.83707 13.6899 2.75059 13.6912 2.663C13.6912 2.3 13.3872 2.005 13.0132 2.005H9.7422C9.5622 2.005 9.3892 2.075 9.2622 2.199L0.247196 10.997C0.0601959 11.217 -0.0258045 11.489 0.00719643 11.772C0.0341969 12.006 0.131197 12.221 0.329197 12.445L5.7712 17.681C5.98041 17.8849 6.26103 17.9991 6.5532 17.999C6.8292 17.999 7.0852 17.902 7.3722 17.681L8.7132 16.41C8.77684 16.3508 8.82782 16.2793 8.86304 16.1998C8.89826 16.1203 8.917 16.0345 8.91812 15.9476C8.91924 15.8606 8.90273 15.7744 8.86957 15.694C8.83641 15.6137 8.78729 15.5408 8.7252 15.48C8.59789 15.3546 8.4269 15.2835 8.24822 15.2816C8.06953 15.2798 7.8971 15.3473 7.7672 15.47L6.5762 16.604L1.4532 11.68L10.0242 3.32ZM15.5042 8.165C16.6262 8.165 17.5362 7.283 17.5362 6.195C17.5362 5.105 16.6262 4.223 15.5042 4.223C14.3822 4.223 13.4732 5.105 13.4732 6.194C13.4732 7.283 14.3832 8.165 15.5042 8.165ZM15.5042 6.851C15.4166 6.85232 15.3296 6.83638 15.2482 6.80407C15.1667 6.77177 15.0925 6.72374 15.0296 6.66273C14.9667 6.60172 14.9165 6.52893 14.8818 6.4485C14.847 6.36807 14.8285 6.28159 14.8272 6.194C14.8285 6.10641 14.847 6.01993 14.8818 5.9395C14.9165 5.85907 14.9667 5.78628 15.0296 5.72527C15.0925 5.66426 15.1667 5.61623 15.2482 5.58393C15.3296 5.55162 15.4166 5.53568 15.5042 5.537C15.5919 5.53554 15.679 5.55139 15.7605 5.58363C15.8421 5.61588 15.9165 5.66388 15.9794 5.72491C16.0424 5.78593 16.0927 5.85877 16.1275 5.93926C16.1623 6.01976 16.1809 6.10632 16.1822 6.194C16.1822 6.557 15.8782 6.851 15.5042 6.851Z" fill="black"/>
</svg>
