<svg width="19" height="18" viewBox="0 0 19 18" fill="none" xmlns="http://www.w3.org/2000/svg">
<path d="M5.625 0.25L5 0.875V2.78375C5.41543 2.73833 5.83457 2.73833 6.25 2.78375V1.5H17.5V7.75H15.3663L13.75 9.36625V7.75H11.2162C11.2617 8.16543 11.2617 8.58457 11.2162 9H12.5V10.875L13.5675 11.3175L15.8837 9H18.125L18.75 8.375V0.875L18.125 0.25H5.625Z" fill="black"/>
<path fill-rule="evenodd" clip-rule="evenodd" d="M8.02125 12.0364C8.80948 11.5204 9.41009 10.7637 9.73374 9.87893C10.0574 8.99415 10.0868 8.02854 9.81755 7.12571C9.54832 6.22289 8.99484 5.43109 8.23945 4.86809C7.48406 4.30509 6.56711 4.00098 5.625 4.00098C4.68289 4.00098 3.76594 4.30509 3.01055 4.86809C2.25516 5.43109 1.70168 6.22289 1.43245 7.12571C1.16322 8.02854 1.19261 8.99415 1.51626 9.87893C1.83991 10.7637 2.44052 11.5204 3.22875 12.0364C2.2633 12.491 1.44708 13.2108 0.875373 14.1119C0.303666 15.0129 6.02882e-05 16.058 0 17.1251L0 17.7501H1.25V17.1251C1.28837 15.9904 1.76611 14.915 2.58239 14.1258C3.39867 13.3367 4.48963 12.8956 5.625 12.8956C6.76037 12.8956 7.85133 13.3367 8.66761 14.1258C9.48389 14.915 9.96163 15.9904 10 17.1251V17.7501H11.25V17.1251C11.2499 16.058 10.9463 15.0129 10.3746 14.1119C9.80292 13.2108 8.9867 12.491 8.02125 12.0364ZM5.625 11.5001C4.7962 11.5001 4.00134 11.1709 3.41529 10.5848C2.82924 9.9988 2.5 9.20394 2.5 8.37514C2.5 7.54634 2.82924 6.75148 3.41529 6.16543C4.00134 5.57938 4.7962 5.25014 5.625 5.25014C6.4538 5.25014 7.24866 5.57938 7.83471 6.16543C8.42076 6.75148 8.75 7.54634 8.75 8.37514C8.75 9.20394 8.42076 9.9988 7.83471 10.5848C7.24866 11.1709 6.4538 11.5001 5.625 11.5001Z" fill="black"/>
</svg>
