<svg width="18" height="18" viewBox="0 0 18 18" fill="none" xmlns="http://www.w3.org/2000/svg">
<path fill-rule="evenodd" clip-rule="evenodd" d="M2.17926 2.87487C2.01627 3.01229 1.91454 3.20883 1.89645 3.42126C1.87837 3.63369 1.94541 3.84459 2.08283 4.00759C2.22025 4.17058 2.41679 4.27231 2.62922 4.2904C2.84164 4.30848 3.05255 4.24144 3.21555 4.10402C4.84143 2.73665 6.88161 1.95873 9.00512 1.89645C11.1257 1.95801 13.1628 2.73616 14.7844 4.10402C14.8646 4.17497 14.9582 4.22917 15.0597 4.26343C15.1611 4.29769 15.2684 4.31133 15.3752 4.30354C15.4821 4.29575 15.5862 4.26668 15.6816 4.21806C15.7771 4.16943 15.8618 4.10222 15.9309 4.02038C15.9999 3.93854 16.052 3.84372 16.0839 3.74148C16.1158 3.63925 16.1269 3.53168 16.1166 3.42508C16.1064 3.31848 16.0749 3.215 16.0241 3.12074C15.9733 3.02647 15.9041 2.94332 15.8207 2.87616C13.9027 1.26047 11.4904 0.348267 8.98326 0.290588C6.48866 0.357772 4.08925 1.26879 2.17926 2.87487ZM5.33698 5.41545C5.24696 5.47463 5.16976 5.55131 5.10997 5.64093C5.05018 5.73054 5.00903 5.83127 4.98895 5.93711C4.96886 6.04295 4.97027 6.15175 4.99308 6.25704C5.01589 6.36233 5.05964 6.46196 5.12173 6.55C5.18381 6.63804 5.26297 6.7127 5.35449 6.76953C5.446 6.82637 5.54802 6.86422 5.65446 6.88084C5.7609 6.89746 5.86959 6.89251 5.97408 6.86628C6.07857 6.84005 6.17672 6.79308 6.26269 6.72816C7.12797 6.11873 8.0704 5.78573 9.02183 5.73302C9.97326 5.78316 10.9208 6.11487 11.7861 6.7243C11.9604 6.84706 12.1762 6.89557 12.3863 6.85916C12.5963 6.82275 12.7832 6.70441 12.906 6.53016C13.0287 6.35591 13.0772 6.14004 13.0408 5.93002C13.0044 5.72001 12.8861 5.53306 12.7118 5.4103C11.6023 4.62987 10.3513 4.18373 9.05655 4.12459H8.98198C7.69112 4.18759 6.44269 4.63502 5.33698 5.41545Z" fill="black"/>
<path fill-rule="evenodd" clip-rule="evenodd" d="M11.5461 11.9019C11.5461 11.4287 11.9318 11.0366 12.4204 11.0366H13.539C13.7197 11.0358 13.8962 11.091 14.0442 11.1946C14.1923 11.2982 14.3046 11.4451 14.3657 11.6152C14.4011 11.7146 14.4558 11.8061 14.5266 11.8844C14.5975 11.9627 14.683 12.0263 14.7784 12.0716C14.8738 12.1168 14.9772 12.1428 15.0826 12.1481C15.1881 12.1534 15.2935 12.1379 15.393 12.1024C15.4924 12.067 15.5839 12.0123 15.6622 11.9415C15.7405 11.8707 15.8041 11.7851 15.8494 11.6897C15.8946 11.5943 15.9206 11.491 15.9259 11.3855C15.9312 11.2801 15.9157 11.1746 15.8803 11.0752C15.7078 10.5929 15.3902 10.1758 14.9713 9.88116C14.5523 9.5865 14.0524 9.42872 13.5403 9.42945H12.4204C11.0537 9.42945 9.93896 10.5313 9.93896 11.9019V15.2383C9.93896 16.6089 11.0537 17.7107 12.4204 17.7107H13.539C13.8643 17.7114 14.1866 17.648 14.4875 17.5241C14.7883 17.4002 15.0618 17.2183 15.2924 16.9887C15.5229 16.7591 15.706 16.4864 15.8311 16.186C15.9563 15.8857 16.021 15.5637 16.0217 15.2383V14.1262C16.0217 13.913 15.937 13.7086 15.7863 13.5579C15.6356 13.4073 15.4312 13.3226 15.2181 13.3226H13.5403C13.3271 13.3226 13.1227 13.4073 12.972 13.5579C12.8213 13.7086 12.7367 13.913 12.7367 14.1262C12.7367 14.3393 12.8213 14.5437 12.972 14.6944C13.1227 14.8451 13.3271 14.9297 13.5403 14.9297H14.4145V15.2383C14.4132 15.4689 14.3203 15.6896 14.1564 15.8518C13.9925 16.0141 13.7709 16.1046 13.5403 16.1036H12.4204C12.1898 16.1046 11.9682 16.0141 11.8042 15.8518C11.6403 15.6896 11.5475 15.4689 11.5461 15.2383V11.9019ZM6.87254 9.42945C6.70374 9.42994 6.53696 9.46618 6.38316 9.53576C6.22937 9.60534 6.09206 9.7067 5.98025 9.83316L2.27868 14.0374C2.12555 14.2119 2.02592 14.4269 1.99171 14.6565C1.9575 14.8861 1.99015 15.1207 2.08576 15.3323C2.18137 15.5439 2.33589 15.7234 2.53085 15.8495C2.7258 15.9755 2.95295 16.0428 3.18511 16.0432H6.45468V16.9072C6.45468 17.1203 6.53934 17.3247 6.69004 17.4754C6.84074 17.6261 7.04513 17.7107 7.25825 17.7107C7.47137 17.7107 7.67576 17.6261 7.82646 17.4754C7.97716 17.3247 8.06182 17.1203 8.06182 16.9072V16.0419H8.37682C8.58994 16.0419 8.79433 15.9572 8.94503 15.8065C9.09573 15.6558 9.18039 15.4514 9.18039 15.2383C9.18039 15.0252 9.09573 14.8208 8.94503 14.6701C8.79433 14.5194 8.58994 14.4347 8.37682 14.4347H8.06182V10.62C8.06182 10.3046 7.93652 10.0021 7.71349 9.77906C7.49045 9.55603 7.18795 9.42945 6.87254 9.42945ZM6.45597 11.7257V14.4347H4.07097L6.45597 11.7257Z" fill="black"/>
</svg>
