<svg width="12" height="20" viewBox="0 0 12 20" fill="none" xmlns="http://www.w3.org/2000/svg">
<path d="M11 6.6665C11 3.90508 8.76142 1.6665 6 1.6665C3.23858 1.6665 1 3.90508 1 6.6665V9.99984C1 12.7613 3.23858 14.9998 6 14.9998C8.76142 14.9998 11 12.7613 11 9.99984V6.6665Z" stroke="black" stroke-width="1.66667" stroke-linecap="round" stroke-linejoin="round"/>
<path d="M6.00033 15V18.3333M2.66699 18.3333H9.33366" stroke="black" stroke-width="1.66667" stroke-linecap="round" stroke-linejoin="round"/>
<path d="M6 9.5835C7.38071 9.5835 8.5 8.46421 8.5 7.0835C8.5 5.70278 7.38071 4.5835 6 4.5835C4.61929 4.5835 3.5 5.70278 3.5 7.0835C3.5 8.46421 4.61929 9.5835 6 9.5835Z" stroke="black" stroke-width="1.66667" stroke-linecap="round" stroke-linejoin="round"/>
<path d="M6.00033 12.9167C6.46056 12.9167 6.83366 12.5436 6.83366 12.0833C6.83366 11.6231 6.46056 11.25 6.00033 11.25C5.54009 11.25 5.16699 11.6231 5.16699 12.0833C5.16699 12.5436 5.54009 12.9167 6.00033 12.9167Z" fill="black"/>
</svg>
