<svg width="15" height="17" viewBox="0 0 15 17" fill="none" xmlns="http://www.w3.org/2000/svg">
<path fill-rule="evenodd" clip-rule="evenodd" d="M6.86578 1.04803C7.05977 0.940315 7.27801 0.883789 7.4999 0.883789C7.7218 0.883789 7.94003 0.940315 8.13403 1.04803L13.834 4.2147C14.2489 4.44508 14.5062 4.88208 14.5062 5.35708V11.6429C14.5062 12.1179 14.2489 12.5549 13.834 12.7853L8.13403 15.952C7.94003 16.0597 7.7218 16.1162 7.4999 16.1162C7.27801 16.1162 7.05977 16.0597 6.86578 15.952L1.16578 12.7853C0.962021 12.6721 0.792246 12.5065 0.674061 12.3057C0.555876 12.1048 0.493586 11.876 0.493652 11.6429V5.35708C0.493652 4.88208 0.750944 4.44508 1.16578 4.2147L6.86578 1.04803ZM7.55769 2.0867C7.54002 2.07686 7.52013 2.07169 7.4999 2.07169C7.47967 2.07169 7.45978 2.07686 7.44211 2.0867L1.74211 5.25337C1.72375 5.26359 1.70844 5.27851 1.69773 5.29659C1.68702 5.31467 1.6813 5.33527 1.68115 5.35628V11.6437C1.68115 11.6865 1.7049 11.726 1.74211 11.7466L7.44211 14.9133C7.45978 14.9231 7.47967 14.9283 7.4999 14.9283C7.52013 14.9283 7.54002 14.9231 7.55769 14.9133L13.2577 11.7466C13.2761 11.7364 13.2914 11.7215 13.3021 11.7034C13.3128 11.6853 13.3185 11.6647 13.3187 11.6437V5.35708C13.3186 5.33593 13.313 5.31516 13.3023 5.29693C13.2916 5.2787 13.2762 5.26366 13.2577 5.25337L7.55769 2.0867Z" fill="black"/>
<path fill-rule="evenodd" clip-rule="evenodd" d="M3.73926 8.49998C3.73926 7.50266 4.13544 6.54618 4.84066 5.84096C5.54587 5.13575 6.50235 4.73956 7.49967 4.73956C8.497 4.73956 9.45348 5.13575 10.1587 5.84096C10.8639 6.54618 11.2601 7.50266 11.2601 8.49998C11.2601 9.4973 10.8639 10.4538 10.1587 11.159C9.45348 11.8642 8.497 12.2604 7.49967 12.2604C6.50235 12.2604 5.54587 11.8642 4.84066 11.159C4.13544 10.4538 3.73926 9.4973 3.73926 8.49998ZM7.49967 5.92706C6.81729 5.92706 6.16286 6.19814 5.68035 6.68065C5.19783 7.16317 4.92676 7.8176 4.92676 8.49998C4.92676 9.18236 5.19783 9.83679 5.68035 10.3193C6.16286 10.8018 6.81729 11.0729 7.49967 11.0729C8.18205 11.0729 8.83649 10.8018 9.319 10.3193C9.80152 9.83679 10.0726 9.18236 10.0726 8.49998C10.0726 7.8176 9.80152 7.16317 9.319 6.68065C8.83649 6.19814 8.18205 5.92706 7.49967 5.92706Z" fill="black"/>
</svg>
