<svg width="108" height="103" viewBox="0 0 108 103" fill="none" xmlns="http://www.w3.org/2000/svg">
<path d="M32.7412 65.4823C50.8236 65.4823 65.4823 50.8236 65.4823 32.7412C65.4823 14.6587 50.8236 0 32.7412 0C14.6587 0 0 14.6587 0 32.7412C0 50.8236 14.6587 65.4823 32.7412 65.4823Z" fill="#4285F4"/>
<path d="M107.274 35.935C107.274 39.6108 104.294 42.5898 100.62 42.5898C96.945 42.5898 93.9648 39.6108 93.9648 35.935C93.9648 32.2594 96.945 29.2803 100.62 29.2803C104.294 29.2803 107.274 32.2594 107.274 35.935Z" fill="#34A853"/>
<path d="M95.2955 52.1728C95.2955 59.5229 89.3372 65.4819 81.9863 65.4819C74.6346 65.4819 68.6768 59.5229 68.6768 52.1728C68.6768 44.8222 74.6349 38.8633 81.9863 38.8633C89.3374 38.8633 95.2955 44.8224 95.2955 52.1728Z" fill="#EA4335"/>
<path d="M97.9573 86.5106C97.9573 95.3313 90.8077 102.481 81.9861 102.481C73.1645 102.481 66.0146 95.3313 66.0146 86.5106C66.0146 77.6902 73.1643 70.5396 81.9861 70.5396C90.8077 70.5396 97.9573 77.6902 97.9573 86.5106Z" fill="#FBBC05"/>
</svg>
