<svg width="40" height="40" viewBox="0 0 40 40" fill="none" xmlns="http://www.w3.org/2000/svg">
<circle cx="20" cy="20" r="20" fill="#FF0000"/>
<path d="M15.0003 7.8623C14.8047 7.8623 14.6171 7.94001 14.4788 8.07831C14.3405 8.21662 14.2628 8.40421 14.2628 8.5998V31.3998C14.2611 31.4971 14.279 31.5938 14.3155 31.684C14.352 31.7743 14.4062 31.8562 14.475 31.9251C14.5439 31.9939 14.6258 32.0482 14.7161 32.0846C14.8063 32.1211 14.903 32.139 15.0003 32.1373H24.2628C24.3628 32.1424 24.4627 32.1271 24.5566 32.0923C24.6504 32.0575 24.7362 32.004 24.8087 31.935C24.8812 31.866 24.9389 31.783 24.9783 31.691C25.0177 31.599 25.0379 31.4999 25.0378 31.3998V8.5998C25.0346 8.40521 24.9559 8.21949 24.8182 8.08187C24.6806 7.94426 24.4949 7.86552 24.3003 7.8623H15.0003ZM15.0003 8.1373H24.2878C24.4116 8.13726 24.5306 8.18559 24.6193 8.27198C24.7081 8.35837 24.7595 8.47601 24.7628 8.5998V31.3998C24.7596 31.5215 24.7099 31.6373 24.6238 31.7233C24.5378 31.8094 24.422 31.8591 24.3003 31.8623H15.0003C14.8776 31.8623 14.76 31.8136 14.6733 31.7268C14.5865 31.6401 14.5378 31.5225 14.5378 31.3998V8.5998C14.5378 8.47714 14.5865 8.3595 14.6733 8.27277C14.76 8.18603 14.8776 8.1373 15.0003 8.1373ZM16.7003 10.6748L16.5128 10.8748V19.7748H16.9253C17.0391 18.0648 18.3541 17.2098 19.6678 17.2098C20.9828 17.2098 22.2966 18.0648 22.4128 19.7748H22.8378V10.8748L22.6503 10.6748H16.7003ZM19.6128 11.7123C20.149 11.722 20.6603 11.9402 21.0383 12.3206C21.4164 12.7009 21.6314 13.2136 21.6378 13.7498C21.6313 14.2837 21.4154 14.7937 21.0367 15.17C20.658 15.5464 20.1467 15.7591 19.6128 15.7623C19.0757 15.7623 18.5607 15.549 18.1809 15.1692C17.8012 14.7894 17.5878 14.2744 17.5878 13.7373C17.5878 13.2002 17.8012 12.6852 18.1809 12.3054C18.5607 11.9257 19.0757 11.7123 19.6128 11.7123ZM19.6128 11.9873V12.0123C19.2656 12.0098 18.9256 12.1107 18.6359 12.302C18.3462 12.4934 18.12 12.7665 17.986 13.0868C17.852 13.4071 17.8162 13.76 17.8834 14.1006C17.9505 14.4412 18.1174 14.7542 18.3629 14.9997C18.6084 15.2452 18.9214 15.4121 19.262 15.4792C19.6026 15.5464 19.9555 15.5107 20.2758 15.3767C20.5961 15.2427 20.8693 15.0164 21.0606 14.7267C21.2519 14.437 21.3528 14.097 21.3503 13.7498C21.344 13.2886 21.1597 12.8477 20.8359 12.5192C20.5121 12.1907 20.0739 12.0002 19.6128 11.9873ZM19.6216 12.7998C19.7449 12.8011 19.8667 12.8267 19.9802 12.8752C20.0936 12.9237 20.1963 12.9941 20.2824 13.0823C20.3686 13.1706 20.4365 13.275 20.4823 13.3895C20.528 13.504 20.5507 13.6265 20.5491 13.7498C20.5458 13.9963 20.4455 14.2315 20.2701 14.4047C20.0946 14.5778 19.858 14.6748 19.6116 14.6748C19.3726 14.6766 19.142 14.587 18.9668 14.4244C18.7917 14.2617 18.6853 14.0384 18.6693 13.7999C18.6533 13.5615 18.729 13.3259 18.8809 13.1414C19.0328 12.9569 19.2495 12.8374 19.4866 12.8073C19.5314 12.8024 19.5765 12.7999 19.6216 12.7998ZM19.6116 13.4248C19.5287 13.4248 19.4492 13.4577 19.3906 13.5163C19.332 13.5749 19.2991 13.6544 19.2991 13.7373C19.2991 13.8202 19.332 13.8997 19.3906 13.9583C19.4492 14.0169 19.5287 14.0498 19.6116 14.0498C19.6944 14.0498 19.7739 14.0169 19.8325 13.9583C19.8911 13.8997 19.9241 13.8202 19.9241 13.7373C19.9241 13.6544 19.8911 13.5749 19.8325 13.5163C19.7739 13.4577 19.6944 13.4248 19.6116 13.4248ZM19.6678 17.5336C18.2303 17.5736 17.2766 18.5811 17.2428 20.0198C17.4428 22.8948 21.8053 23.4723 22.1116 19.9948C22.0341 18.4586 21.0791 17.6048 19.6678 17.5336ZM19.7178 18.0123C19.9721 18.0181 20.2228 18.0743 20.4553 18.1776C20.6878 18.2808 20.8975 18.4292 21.0723 18.614C21.2471 18.7988 21.3836 19.0164 21.4738 19.2543C21.564 19.4922 21.6061 19.7455 21.5978 19.9998C21.5816 20.4992 21.3718 20.9728 21.0128 21.3203C20.6538 21.6679 20.1737 21.8622 19.6741 21.8623C19.1848 21.8608 18.7145 21.673 18.3588 21.3372C18.003 21.0014 17.7884 20.5428 17.7586 20.0544C17.7289 19.5661 17.8862 19.0848 18.1985 18.7082C18.5109 18.3317 18.9549 18.0882 19.4403 18.0273C19.5316 18.0173 19.6234 18.0122 19.7153 18.0123M19.6728 18.3873C19.2617 18.3873 18.8675 18.5506 18.5768 18.8413C18.2861 19.132 18.1228 19.5262 18.1228 19.9373C18.1228 20.3484 18.2861 20.7426 18.5768 21.0333C18.8675 21.324 19.2617 21.4873 19.6728 21.4873C20.0839 21.4873 20.4781 21.324 20.7688 21.0333C21.0595 20.7426 21.2228 20.3484 21.2228 19.9373C21.2228 19.5262 21.0595 19.132 20.7688 18.8413C20.4781 18.5506 20.0839 18.3873 19.6728 18.3873ZM22.3978 20.2248C22.2128 22.0936 21.0866 22.7361 19.6603 22.7373C18.9755 22.729 18.3175 22.47 17.8107 22.0093C17.304 21.5487 16.9836 20.9182 16.9103 20.2373H16.5103V28.9998L16.6978 29.1998H22.6478L22.8353 28.9998V20.2248H22.3978Z" fill="white"/>
</svg>
