<svg width="14" height="20" viewBox="0 0 14 20" fill="none" xmlns="http://www.w3.org/2000/svg">
<path d="M6.875 15.1232C6.3947 15.1233 5.92943 14.9558 5.55943 14.6496C5.18943 14.3433 4.93791 13.9176 4.84825 13.4457C3.49955 13.0289 2.31185 12.207 1.4465 11.0917C0.793217 10.2505 0.344333 9.26893 0.135255 8.22452C-0.0738223 7.18012 -0.0373744 6.10143 0.241724 5.07352C0.520822 4.04561 1.03494 3.09661 1.74351 2.30137C2.45209 1.50614 3.33575 0.886411 4.3248 0.491083C5.31384 0.0957544 6.38121 -0.0643643 7.44271 0.0233566C8.50422 0.111077 9.53082 0.444239 10.4415 0.996561C11.3523 1.54888 12.1222 2.30526 12.6906 3.20603C13.2591 4.10679 13.6104 5.12732 13.717 6.18709C13.7541 6.56522 13.442 6.87322 13.0625 6.87322C12.683 6.87322 12.3791 6.56384 12.3338 6.18709C12.211 5.21474 11.8307 4.29283 11.2322 3.51677C10.6336 2.74071 9.83856 2.13868 8.92928 1.77298C8.01999 1.40729 7.0295 1.2912 6.0603 1.43674C5.0911 1.58228 4.17839 1.98415 3.41661 2.60078C2.65483 3.21741 2.07166 4.02639 1.72743 4.94402C1.38321 5.86165 1.29044 6.8546 1.45871 7.82011C1.62699 8.78563 2.05021 9.68864 2.68457 10.4357C3.31894 11.1828 4.14141 11.7468 5.06687 12.0693C5.24184 11.7501 5.49816 11.4829 5.80982 11.2949C6.12147 11.1068 6.47734 11.0045 6.8413 10.9985C7.20525 10.9925 7.56432 11.0829 7.88203 11.2605C8.19975 11.4381 8.46479 11.6967 8.65024 12.0099C8.83569 12.3232 8.93495 12.6799 8.93792 13.0439C8.94089 13.4079 8.84748 13.7662 8.66718 14.0824C8.48687 14.3986 8.22609 14.6614 7.91132 14.8442C7.59655 15.0271 7.239 15.1233 6.875 15.1232ZM1.375 13.0607V13.0236C0.999031 12.6869 0.654754 12.3164 0.3465 11.9167C0.120609 12.2555 4.4371e-05 12.6535 0 13.0607V13.7482C0 16.4583 2.5575 19.2482 6.875 19.2482C11.1925 19.2482 13.75 16.4583 13.75 13.7482V13.0607C13.75 12.5137 13.5327 11.9891 13.1459 11.6023C12.7591 11.2155 12.2345 10.9982 11.6875 10.9982H9.625C9.92612 11.397 10.1406 11.8645 10.2437 12.3732H11.6875C11.8698 12.3732 12.0447 12.4457 12.1736 12.5746C12.3026 12.7035 12.375 12.8784 12.375 13.0607V13.7482C12.375 15.7255 10.406 17.8732 6.875 17.8732C3.344 17.8732 1.375 15.7255 1.375 13.7482V13.0607ZM6.875 9.62322C6.08824 9.62319 5.32528 9.89304 4.7135 10.3877C4.11234 10.0194 3.61599 9.50271 3.27214 8.88725C2.92829 8.27178 2.74848 7.57822 2.75 6.87322C2.7502 6.15406 2.93842 5.44746 3.29597 4.82349C3.65352 4.19952 4.16799 3.67987 4.78835 3.31608C5.4087 2.95229 6.11339 2.75701 6.8325 2.7496C7.55162 2.74219 8.26018 2.92291 8.8879 3.27384C9.51562 3.62477 10.0407 4.13371 10.411 4.75018C10.7814 5.36666 10.9841 6.06923 10.9991 6.78823C11.0141 7.50723 10.8409 8.21766 10.4966 8.84906C10.1524 9.48046 9.64902 10.0109 9.0365 10.3877C8.42472 9.89304 7.66176 9.62319 6.875 9.62322ZM4.125 6.87322C4.125 7.60256 4.41473 8.30204 4.93046 8.81776C5.44618 9.33349 6.14565 9.62322 6.875 9.62322C7.60435 9.62322 8.30382 9.33349 8.81954 8.81776C9.33527 8.30204 9.625 7.60256 9.625 6.87322C9.625 6.14387 9.33527 5.4444 8.81954 4.92867C8.30382 4.41295 7.60435 4.12322 6.875 4.12322C6.14565 4.12322 5.44618 4.41295 4.93046 4.92867C4.41473 5.4444 4.125 6.14387 4.125 6.87322Z" fill="black"/>
</svg>
