<svg width="17" height="17" viewBox="0 0 17 17" fill="none" xmlns="http://www.w3.org/2000/svg">
<path d="M1.4165 4.25002C1.4165 3.49857 1.71502 2.7779 2.24637 2.24655C2.77772 1.7152 3.49839 1.41669 4.24984 1.41669H12.7498C13.5013 1.41669 14.222 1.7152 14.7533 2.24655C15.2847 2.7779 15.5832 3.49857 15.5832 4.25002V12.75C15.5832 13.5015 15.2847 14.2221 14.7533 14.7535C14.222 15.2848 13.5013 15.5834 12.7498 15.5834H4.24984C3.49839 15.5834 2.77772 15.2848 2.24637 14.7535C1.71502 14.2221 1.4165 13.5015 1.4165 12.75V4.25002Z" stroke="black" stroke-linecap="round" stroke-linejoin="round"/>
<path d="M6.02083 7.79167C6.99884 7.79167 7.79167 6.99884 7.79167 6.02083C7.79167 5.04283 6.99884 4.25 6.02083 4.25C5.04283 4.25 4.25 5.04283 4.25 6.02083C4.25 6.99884 5.04283 7.79167 6.02083 7.79167Z" stroke="black" stroke-linecap="round" stroke-linejoin="round"/>
<path d="M10.2892 8.93992L4.25 15.5834H12.8442C13.5707 15.5834 14.2674 15.2948 14.7811 14.7811C15.2947 14.2674 15.5833 13.5707 15.5833 12.8443V12.75C15.5833 12.42 15.4594 12.2932 15.2362 12.0488L12.3817 8.93567C12.2486 8.79055 12.0868 8.67474 11.9065 8.59565C11.7262 8.51656 11.5314 8.47592 11.3345 8.47632C11.1376 8.47672 10.943 8.51815 10.763 8.59798C10.5831 8.6778 10.4217 8.79426 10.2892 8.93992Z" stroke="black" stroke-linecap="round" stroke-linejoin="round"/>
</svg>
