<svg width="26" height="26" viewBox="0 0 26 26" fill="none" xmlns="http://www.w3.org/2000/svg">
<circle cx="13" cy="13" r="13" fill="#FF0000"/>
<path d="M17.0415 10.375L16.7929 10.3856C16.5047 9.55421 15.9644 8.83338 15.2471 8.3236C14.5299 7.81382 13.6715 7.54049 12.7915 7.54169C10.4476 7.54169 8.5415 9.44782 8.5415 11.7917L8.54221 11.8809C7.93437 12.039 7.39605 12.394 7.01143 12.8905C6.62681 13.387 6.4176 13.997 6.4165 14.625C6.4165 16.1876 7.68725 17.4584 9.24984 17.4584H12.7915V14.2099L11.8756 15.1258C11.81 15.1918 11.732 15.2442 11.646 15.2799C11.5601 15.3157 11.4679 15.3341 11.3748 15.3341C11.2818 15.3341 11.1896 15.3157 11.1037 15.2799C11.0177 15.2442 10.9397 15.1918 10.874 15.1258C10.7413 14.993 10.6667 14.8128 10.6667 14.625C10.6667 14.4372 10.7413 14.2571 10.874 14.1242L12.9983 11.9999C13.0641 11.934 13.1423 11.8816 13.2284 11.8459C13.3144 11.8102 13.4067 11.7918 13.4998 11.7918C13.593 11.7918 13.6853 11.8102 13.7713 11.8459C13.8574 11.8816 13.9355 11.934 14.0013 11.9999L16.1256 14.1242C16.2584 14.2571 16.3331 14.4372 16.3331 14.625C16.3331 14.8129 16.2584 14.993 16.1256 15.1258C15.9928 15.2586 15.8127 15.3333 15.6248 15.3333C15.437 15.3333 15.2569 15.2586 15.124 15.1258L14.2082 14.2099V17.4584H17.0415C18.9944 17.4584 20.5832 15.8696 20.5832 13.9167C20.5832 11.9638 18.9944 10.375 17.0415 10.375Z" fill="white"/>
</svg>
