<svg width="53" height="53" viewBox="0 0 53 53" fill="none" xmlns="http://www.w3.org/2000/svg">
<circle opacity="0.22" cx="26.5" cy="26.5" r="26.5" fill="#BDBDBD"/>
<path d="M42.0993 26.8516C43.1028 26.8516 43.9882 26.0312 43.9882 24.9707C44.0472 24.4434 43.8111 23.9746 43.3389 23.5645L28.2691 10.4102C27.9149 10.1172 27.4427 10 27.0295 10C26.6163 10 26.1441 10.0586 25.7309 10.4688L10.5903 23.5645C10.1771 23.9746 10 24.4434 10 24.9707C10 26.0254 10.8264 26.8516 11.8889 26.8516H13.7778V36.25C13.7778 38.3184 15.4719 40 17.5556 40H36.4681C38.5635 40 40.2576 38.3125 40.2458 36.2324L40.2045 26.8457H42.0934L42.0993 26.8516ZM25.1111 22.1875C25.1111 21.6719 25.5361 21.25 26.0556 21.25H27.9444C28.4639 21.25 28.8889 21.6719 28.8889 22.1875V25H31.7222C32.2417 25 32.6667 25.4219 32.6667 25.9375V27.8125C32.6667 28.3281 32.2417 28.75 31.7222 28.75H28.8889V31.5625C28.8889 32.0781 28.4639 32.5 27.9444 32.5H26.0556C25.5361 32.5 25.1111 32.0781 25.1111 31.5625V28.75H22.2778C21.7583 28.75 21.3333 28.3281 21.3333 27.8125V25.9375C21.3333 25.4219 21.7583 25 22.2778 25H25.1111V22.1875Z" fill="#BDBDBD"/>
</svg>
