<svg width="27" height="27" viewBox="0 0 27 27" fill="none" xmlns="http://www.w3.org/2000/svg">
<path d="M13.0447 0.137728C13.3444 0.0786025 13.6538 0.0786025 13.9549 0.137728C14.3 0.203728 14.6135 0.367352 14.905 0.518602L14.9779 0.557102L26.3492 6.4421C26.517 6.52905 26.6577 6.66045 26.7559 6.82195C26.8541 6.98345 26.9061 7.16884 26.906 7.35785V18.2176C26.906 18.6067 26.9088 19.0192 26.7782 19.4029C26.6632 19.737 26.478 20.0427 26.235 20.2994C25.9532 20.5936 25.5847 20.782 25.2409 20.9594L25.1543 21.0047L13.9742 26.7907C13.8276 26.8667 13.6649 26.9063 13.4998 26.9063C13.3347 26.9063 13.172 26.8667 13.0254 26.7907L1.84529 21.0047L1.75867 20.9594C1.41492 20.782 1.04642 20.5936 0.764542 20.2994C0.521572 20.0427 0.336377 19.737 0.221417 19.4029C0.0907923 19.0179 0.0921674 18.6054 0.0935424 18.2162V7.35785C0.0935271 7.16884 0.145461 6.98345 0.24367 6.82195C0.34188 6.66045 0.482586 6.52905 0.650417 6.4421L12.0203 0.557102L12.0932 0.519977C12.386 0.367352 12.6982 0.203728 13.0447 0.137728ZM13.3554 2.19473C13.2247 2.25643 13.0954 2.32107 12.9677 2.3886L3.41829 7.33173L7.30542 9.23473L17.4199 4.1431L14.0305 2.3886C13.9028 2.32107 13.7735 2.25643 13.6428 2.19473L13.563 2.16173M19.6818 5.31323L9.63054 10.3732L13.4998 12.2652L23.5813 7.33173L19.6818 5.31323ZM12.4685 24.1782V14.0582L8.34354 12.0384V13.4134C8.34354 13.6869 8.23489 13.9492 8.0415 14.1426C7.8481 14.336 7.5858 14.4446 7.31229 14.4446C7.03879 14.4446 6.77649 14.336 6.58309 14.1426C6.38969 13.9492 6.28104 13.6869 6.28104 13.4134V11.0291L2.15604 9.0106V18.1186C2.15604 18.3757 2.15604 18.5229 2.16292 18.6342L2.17529 18.7415C2.19308 18.7895 2.21966 18.8338 2.25367 18.8721C2.26054 18.8776 2.28254 18.8955 2.34167 18.9299C2.43517 18.9876 2.56579 19.0536 2.79267 19.1719L12.4685 24.1782Z" fill="black"/>
</svg>
