<svg width="16" height="16" viewBox="0 0 16 16" fill="none" xmlns="http://www.w3.org/2000/svg">
<path d="M8 15.5C6.9625 15.5 5.9875 15.303 5.075 14.909C4.1625 14.515 3.36875 13.9808 2.69375 13.3063C2.01875 12.6318 1.4845 11.838 1.091 10.925C0.697501 10.012 0.500501 9.037 0.500001 8C0.499501 6.963 0.696501 5.988 1.091 5.075C1.4855 4.162 2.01975 3.36825 2.69375 2.69375C3.36775 2.01925 4.1615 1.485 5.075 1.091C5.9885 0.697 6.9635 0.5 8 0.5C9.0365 0.5 10.0115 0.697 10.925 1.091C11.8385 1.485 12.6323 2.01925 13.3063 2.69375C13.9803 3.36825 14.5148 4.162 14.9098 5.075C15.3048 5.988 15.5015 6.963 15.5 8C15.4985 9.037 15.3015 10.012 14.909 10.925C14.5165 11.838 13.9823 12.6318 13.3063 13.3063C12.6303 13.9808 11.8365 14.5152 10.925 14.9097C10.0135 15.3042 9.0385 15.501 8 15.5ZM8 14C9.675 14 11.0938 13.4187 12.2563 12.2562C13.4187 11.0937 14 9.675 14 8C14 6.325 13.4187 4.90625 12.2563 3.74375C11.0938 2.58125 9.675 2 8 2C6.325 2 4.90625 2.58125 3.74375 3.74375C2.58125 4.90625 2 6.325 2 8C2 9.675 2.58125 11.0937 3.74375 12.2562C4.90625 13.4187 6.325 14 8 14ZM7.98125 13.25C8.15625 13.25 8.3095 13.1845 8.441 13.0535C8.5725 12.9225 8.638 12.7692 8.6375 12.5938V12.3125C9.2625 12.2 9.8 11.9562 10.25 11.5812C10.7 11.2062 10.925 10.65 10.925 9.9125C10.925 9.3875 10.775 8.90625 10.475 8.46875C10.175 8.03125 9.575 7.65 8.675 7.325C7.925 7.075 7.40625 6.85625 7.11875 6.66875C6.83125 6.48125 6.6875 6.225 6.6875 5.9C6.6875 5.575 6.80325 5.31875 7.03475 5.13125C7.26625 4.94375 7.6005 4.85 8.0375 4.85C8.2875 4.85 8.50625 4.89375 8.69375 4.98125C8.88125 5.06875 9.0375 5.1875 9.1625 5.3375C9.2875 5.4875 9.42825 5.5905 9.58475 5.6465C9.74125 5.7025 9.888 5.6995 10.025 5.6375C10.2125 5.5625 10.3408 5.43425 10.4098 5.25275C10.4788 5.07125 10.463 4.90575 10.3625 4.75625C10.1625 4.46875 9.91575 4.225 9.62225 4.025C9.32875 3.825 9.013 3.7125 8.675 3.6875V3.40625C8.675 3.23125 8.6095 3.07825 8.4785 2.94725C8.3475 2.81625 8.19425 2.7505 8.01875 2.75C7.84325 2.7495 7.69025 2.81525 7.55975 2.94725C7.42925 3.07925 7.3635 3.23225 7.3625 3.40625V3.6875C6.7375 3.825 6.25 4.1 5.9 4.5125C5.55 4.925 5.375 5.3875 5.375 5.9C5.375 6.4875 5.547 6.9625 5.891 7.325C6.235 7.6875 6.7755 8 7.5125 8.2625C8.3 8.55 8.847 8.80625 9.1535 9.03125C9.46 9.25625 9.613 9.55 9.6125 9.9125C9.6125 10.325 9.46575 10.6283 9.17225 10.8222C8.87875 11.0162 8.5255 11.113 8.1125 11.1125C7.7875 11.1125 7.49375 11.0345 7.23125 10.8785C6.96875 10.7225 6.75 10.488 6.575 10.175C6.475 10 6.34375 9.88125 6.18125 9.81875C6.01875 9.75625 5.85625 9.75625 5.69375 9.81875C5.51875 9.88125 5.3905 10 5.309 10.175C5.2275 10.35 5.2245 10.5188 5.3 10.6812C5.5 11.1062 5.76875 11.4532 6.10625 11.7222C6.44375 11.9912 6.85 12.1755 7.325 12.275V12.5938C7.325 12.7688 7.39075 12.922 7.52225 13.0535C7.65375 13.185 7.80675 13.2505 7.98125 13.25Z" fill="black"/>
</svg>
