<svg width="23" height="23" viewBox="0 0 23 23" fill="none" xmlns="http://www.w3.org/2000/svg">
<path d="M11.5 13.0625C17.5156 13.0625 22.4375 16.9688 22.4375 20.0938C22.4375 20.7154 22.1906 21.3115 21.751 21.751C21.3115 22.1906 20.7154 22.4375 20.0938 22.4375H2.90625C2.28465 22.4375 1.68851 22.1906 1.24897 21.751C0.80943 21.3115 0.5625 20.7154 0.5625 20.0938C0.5625 16.9688 5.48438 13.0625 11.5 13.0625ZM11.5 0.5625C12.9504 0.5625 14.3414 1.13867 15.367 2.16426C16.3926 3.18985 16.9688 4.58085 16.9688 6.03125C16.9688 7.48165 16.3926 8.87265 15.367 9.89824C14.3414 10.9238 12.9504 11.5 11.5 11.5C10.0496 11.5 8.6586 10.9238 7.63301 9.89824C6.60742 8.87265 6.03125 7.48165 6.03125 6.03125C6.03125 4.58085 6.60742 3.18985 7.63301 2.16426C8.6586 1.13867 10.0496 0.5625 11.5 0.5625Z" fill="black"/>
</svg>
