<svg width="24" height="22" viewBox="0 0 24 22" fill="none" xmlns="http://www.w3.org/2000/svg">
<path d="M8.75 0.75C9.435 0.75 10.0635 1.006 10.521 1.479C10.9785 1.9525 11.25 2.6285 11.25 3.444C11.25 4.2555 10.982 5.07 10.545 5.6865C10.11 6.3 9.48 6.75 8.75 6.75C8.02 6.75 7.39 6.3 6.955 5.6865C6.518 5.07 6.25 4.2555 6.25 3.4445C6.25 2.6285 6.5215 1.9525 6.9795 1.479C7.4365 1.006 8.065 0.75 8.75 0.75ZM3.25 5.25C3.935 5.25 4.5635 5.506 5.021 5.979C5.4785 6.4525 5.75 7.1285 5.75 7.944C5.75 8.7555 5.482 9.57 5.045 10.1865C4.61 10.8 3.98 11.25 3.25 11.25C2.52 11.25 1.89 10.8 1.455 10.1865C1.018 9.57 0.75 8.755 0.75 7.9445C0.75 7.1285 1.0215 6.4525 1.4795 5.979C1.9365 5.506 2.565 5.25 3.25 5.25ZM12 8.75C8.438 8.75 5.487 11.7825 4.558 15.585C4.146 17.272 4.7745 19.0815 6.3245 19.939C7.556 20.621 9.399 21.25 11.9995 21.25C14.6005 21.25 16.4435 20.621 17.6755 19.939C19.225 19.0815 19.8535 17.272 19.4415 15.5855C18.513 11.7825 15.5615 8.75 12 8.75ZM20.75 5.25C20.065 5.25 19.4365 5.506 18.9795 5.979C18.5215 6.4525 18.25 7.1285 18.25 7.944C18.25 8.7555 18.518 9.57 18.955 10.1865C19.39 10.8 20.02 11.25 20.75 11.25C21.48 11.25 22.11 10.8 22.545 10.1865C22.982 9.57 23.25 8.7555 23.25 7.9445C23.25 7.1285 22.9785 6.4525 22.521 5.979C22.0635 5.506 21.435 5.25 20.75 5.25ZM15.25 0.75C14.565 0.75 13.9365 1.006 13.4795 1.479C13.0215 1.9525 12.75 2.6285 12.75 3.444C12.75 4.2555 13.018 5.07 13.455 5.6865C13.89 6.3 14.52 6.75 15.25 6.75C15.98 6.75 16.61 6.3 17.045 5.6865C17.482 5.07 17.75 4.2555 17.75 3.4445C17.75 2.6285 17.4785 1.9525 17.021 1.479C16.5635 1.006 15.935 0.75 15.25 0.75Z" fill="black"/>
</svg>
