<svg width="18" height="18" viewBox="0 0 18 18" fill="none" xmlns="http://www.w3.org/2000/svg">
<path d="M1.5 2.33333C1.5 2.11232 1.5878 1.90036 1.74408 1.74408C1.90036 1.5878 2.11232 1.5 2.33333 1.5H15.6667C15.8877 1.5 16.0996 1.5878 16.2559 1.74408C16.4122 1.90036 16.5 2.11232 16.5 2.33333V4C16.5 4.22101 16.4122 4.43298 16.2559 4.58926C16.0996 4.74554 15.8877 4.83333 15.6667 4.83333H2.33333C2.11232 4.83333 1.90036 4.74554 1.74408 4.58926C1.5878 4.43298 1.5 4.22101 1.5 4V2.33333ZM5.66667 10.6667C5.66667 11.5507 6.01786 12.3986 6.64298 13.0237C7.2681 13.6488 8.11594 14 9 14C9.88405 14 10.7319 13.6488 11.357 13.0237C11.9821 12.3986 12.3333 11.5507 12.3333 10.6667C12.3333 9.78261 11.9821 8.93476 11.357 8.30964C10.7319 7.68452 9.88405 7.33333 9 7.33333C8.11594 7.33333 7.2681 7.68452 6.64298 8.30964C6.01786 8.93476 5.66667 9.78261 5.66667 10.6667Z" stroke="black" stroke-width="1.66667" stroke-linecap="round" stroke-linejoin="round"/>
<path d="M14.8337 4.8335V10.6668C14.8337 12.2139 14.2191 13.6977 13.1251 14.7916C12.0312 15.8856 10.5474 16.5002 9.00033 16.5002C7.45323 16.5002 5.9695 15.8856 4.87554 14.7916C3.78157 13.6977 3.16699 12.2139 3.16699 10.6668V4.8335M9.00033 10.6668H9.00866" stroke="black" stroke-width="1.66667" stroke-linecap="round" stroke-linejoin="round"/>
</svg>
