<svg width="18" height="14" viewBox="0 0 18 14" fill="none" xmlns="http://www.w3.org/2000/svg">
<path d="M1.5 6.625C1.5 4.15975 1.5 2.92675 2.181 2.0965C2.30557 1.94474 2.44474 1.80557 2.5965 1.681C3.4275 1 4.659 1 7.125 1C9.59025 1 10.8233 1 11.6535 1.681C11.8053 1.80557 11.9444 1.94474 12.069 2.0965C12.75 2.9275 12.75 4.159 12.75 6.625V7.375C12.75 9.84025 12.75 11.0733 12.069 11.9035C11.9444 12.0553 11.8053 12.1944 11.6535 12.319C10.8225 13 9.591 13 7.125 13C4.65975 13 3.42675 13 2.5965 12.319C2.44474 12.1944 2.30557 12.0553 2.181 11.9035C1.5 11.0725 1.5 9.841 1.5 7.375V6.625ZM12.75 5.125L13.2435 4.87825C14.703 4.1485 15.4335 3.78325 15.966 4.11325C16.5 4.44325 16.5 5.25925 16.5 6.8905V7.1095C16.5 8.7415 16.5 9.55675 15.9667 9.88675C15.4327 10.2167 14.703 9.8515 13.2443 9.12175L12.75 8.875V5.125Z" stroke="black" stroke-width="1.125"/>
</svg>
