<svg width="21" height="21" viewBox="0 0 21 21" fill="none" xmlns="http://www.w3.org/2000/svg">
<path d="M1.5 4.875V3.75C1.5 3.15326 1.73705 2.58097 2.15901 2.15901C2.58097 1.73705 3.15326 1.5 3.75 1.5H6M1.5 16.125V17.25C1.5 17.8467 1.73705 18.419 2.15901 18.841C2.58097 19.2629 3.15326 19.5 3.75 19.5H6M15 1.5H17.25C17.8467 1.5 18.419 1.73705 18.841 2.15901C19.2629 2.58097 19.5 3.15326 19.5 3.75V4.875M15 19.5H17.25C17.8467 19.5 18.419 19.2629 18.841 18.841C19.2629 18.419 19.5 17.8467 19.5 17.25V16.125M2.625 10.5H18.375" stroke="#FF0000" stroke-width="2.25" stroke-linecap="round" stroke-linejoin="round"/>
</svg>
