<svg width="20" height="18" viewBox="0 0 20 18" fill="none" xmlns="http://www.w3.org/2000/svg">
<path d="M12.7502 1.89582C12.7502 0.905823 11.5823 0.382407 10.8435 1.03874L6.72491 4.70082C6.5992 4.81282 6.43677 4.87479 6.26841 4.87499H2.896C2.3493 4.87499 1.82498 5.09204 1.43824 5.47843C1.05149 5.86483 0.833982 6.38897 0.833496 6.93566V11.0579C0.833496 11.6049 1.05079 12.1295 1.43759 12.5163C1.82438 12.9031 2.34899 13.1204 2.896 13.1204H6.26933C6.43769 13.1206 6.60012 13.1826 6.72583 13.2946L10.8426 16.9548C11.5814 17.6121 12.7502 17.0877 12.7502 16.0987V1.89582ZM7.63975 5.72749L11.3752 2.40549V15.589L7.63975 12.2679C7.26225 11.9321 6.7746 11.7465 6.26933 11.7463H2.896C2.71366 11.7463 2.53879 11.6739 2.40986 11.545C2.28093 11.416 2.2085 11.2412 2.2085 11.0588V6.93566C2.2085 6.75332 2.28093 6.57845 2.40986 6.44952C2.53879 6.32059 2.71366 6.24816 2.896 6.24816H6.26933C6.77448 6.24828 7.26212 6.06301 7.63975 5.72749ZM16.4095 3.40557C16.556 3.29704 16.7396 3.25114 16.9199 3.27796C17.1002 3.30477 17.2625 3.40211 17.3711 3.54857C18.5401 5.12542 19.1698 7.03706 19.1668 8.99999C19.1696 10.963 18.5395 12.8747 17.3702 14.4514C17.317 14.5255 17.2497 14.5882 17.172 14.636C17.0944 14.6838 17.008 14.7157 16.9179 14.7298C16.8279 14.7439 16.7359 14.7399 16.6474 14.7182C16.5588 14.6964 16.4755 14.6572 16.4023 14.6029C16.329 14.5486 16.2673 14.4803 16.2207 14.402C16.1741 14.3236 16.1436 14.2368 16.1308 14.1465C16.1181 14.0562 16.1235 13.9643 16.1466 13.8761C16.1697 13.7879 16.2102 13.7052 16.2656 13.6328C17.2594 12.2929 17.7946 10.6682 17.7918 8.99999C17.7944 7.33206 17.2592 5.70774 16.2656 4.36807C16.2117 4.29546 16.1728 4.21294 16.1509 4.12524C16.129 4.03754 16.1246 3.94638 16.1379 3.85698C16.1513 3.76758 16.1822 3.68169 16.2288 3.60423C16.2754 3.52678 16.3368 3.45927 16.4095 3.40557ZM14.7146 5.67157C14.794 5.62852 14.8811 5.60152 14.9709 5.59214C15.0607 5.58275 15.1515 5.59115 15.2381 5.61686C15.3246 5.64256 15.4053 5.68508 15.4754 5.74196C15.5456 5.79885 15.6038 5.869 15.6468 5.94841C16.1382 6.85682 16.4168 7.89632 16.4168 8.99999C16.4173 10.065 16.1527 11.1134 15.6468 12.0507C15.6039 12.1301 15.5457 12.2003 15.4755 12.2573C15.4054 12.3142 15.3248 12.3568 15.2382 12.3826C15.1517 12.4084 15.0609 12.4169 14.971 12.4076C14.8812 12.3983 14.794 12.3714 14.7146 12.3284C14.6351 12.2854 14.5649 12.2272 14.508 12.1571C14.451 12.087 14.4084 12.0064 14.3826 11.9198C14.3568 11.8332 14.3483 11.7424 14.3576 11.6526C14.3669 11.5627 14.3939 11.4756 14.4368 11.3962C14.8218 10.6839 15.0418 9.86807 15.0418 8.99907C15.0421 8.16253 14.8342 7.33907 14.4368 6.60291C14.3502 6.44256 14.3308 6.25439 14.3829 6.07975C14.435 5.90511 14.5543 5.7583 14.7146 5.67157Z" fill="black"/>
</svg>
