<svg width="30" height="23" viewBox="0 0 30 23" fill="none" xmlns="http://www.w3.org/2000/svg">
<path d="M28.125 9.1875H26.8594L23.6039 1.86328C23.4566 1.53191 23.2163 1.25037 22.9122 1.05277C22.6081 0.855175 22.2533 0.750004 21.8906 0.75H8.10937C7.74673 0.750004 7.39186 0.855175 7.08777 1.05277C6.78368 1.25037 6.54342 1.53191 6.39609 1.86328L3.14062 9.1875H1.875C1.62636 9.1875 1.3879 9.28627 1.21209 9.46209C1.03627 9.6379 0.9375 9.87636 0.9375 10.125C0.9375 10.3736 1.03627 10.6121 1.21209 10.7879C1.3879 10.9637 1.62636 11.0625 1.875 11.0625H2.8125V20.4375C2.8125 20.9348 3.01004 21.4117 3.36167 21.7633C3.71331 22.115 4.19022 22.3125 4.6875 22.3125H7.5C7.99728 22.3125 8.47419 22.115 8.82582 21.7633C9.17746 21.4117 9.375 20.9348 9.375 20.4375V19.5H20.625V20.4375C20.625 20.9348 20.8225 21.4117 21.1742 21.7633C21.5258 22.115 22.0027 22.3125 22.5 22.3125H25.3125C25.8098 22.3125 26.2867 22.115 26.6383 21.7633C26.99 21.4117 27.1875 20.9348 27.1875 20.4375V11.0625H28.125C28.3736 11.0625 28.6121 10.9637 28.7879 10.7879C28.9637 10.6121 29.0625 10.3736 29.0625 10.125C29.0625 9.87636 28.9637 9.6379 28.7879 9.46209C28.6121 9.28627 28.3736 9.1875 28.125 9.1875ZM9.375 14.8125H6.5625C6.31386 14.8125 6.0754 14.7137 5.89959 14.5379C5.72377 14.3621 5.625 14.1236 5.625 13.875C5.625 13.6264 5.72377 13.3879 5.89959 13.2121C6.0754 13.0363 6.31386 12.9375 6.5625 12.9375H9.375C9.62364 12.9375 9.8621 13.0363 10.0379 13.2121C10.2137 13.3879 10.3125 13.6264 10.3125 13.875C10.3125 14.1236 10.2137 14.3621 10.0379 14.5379C9.8621 14.7137 9.62364 14.8125 9.375 14.8125ZM23.4375 14.8125H20.625C20.3764 14.8125 20.1379 14.7137 19.9621 14.5379C19.7863 14.3621 19.6875 14.1236 19.6875 13.875C19.6875 13.6264 19.7863 13.3879 19.9621 13.2121C20.1379 13.0363 20.3764 12.9375 20.625 12.9375H23.4375C23.6861 12.9375 23.9246 13.0363 24.1004 13.2121C24.2762 13.3879 24.375 13.6264 24.375 13.875C24.375 14.1236 24.2762 14.3621 24.1004 14.5379C23.9246 14.7137 23.6861 14.8125 23.4375 14.8125ZM5.19258 9.1875L8.10937 2.625H21.8906L24.8074 9.1875H5.19258Z" fill="black"/>
</svg>
