<svg width="16" height="16" viewBox="0 0 16 16" fill="none" xmlns="http://www.w3.org/2000/svg">
<path d="M12.0001 7.33132C11.7388 6.79799 11.0321 6.01465 9.58011 6.04799C9.58011 6.04799 8.42878 5.99799 7.12678 5.99799C5.82545 5.99799 5.21611 6.02799 4.17345 6.04799C3.50611 6.03132 2.23745 6.18132 1.65345 7.56465C1.26945 8.73132 1.25345 11.1827 1.48678 12.416C1.53678 13.0493 1.87078 13.9333 2.90545 14.4C3.53878 14.7333 4.55745 14.6 5.32545 14.6667M3.98945 5.46399C3.95611 3.88065 3.88945 2.63065 5.72478 1.59665C6.34211 1.34665 7.26011 1.12999 8.39478 1.66332C9.57945 2.37999 9.72745 3.13865 9.83011 3.32999C10.1134 4.08065 9.96345 5.14732 9.99678 5.58065" stroke="black" stroke-linecap="round"/>
<path d="M10.3335 13.1566C10.3335 13.3527 10.2947 13.5468 10.2194 13.7278C10.144 13.9089 10.0336 14.0732 9.89453 14.2114C9.75542 14.3496 9.59035 14.4589 9.40882 14.533C9.2273 14.6071 9.0329 14.6446 8.83683 14.6433C8.01283 14.6433 7.3335 13.9859 7.3335 13.1566C7.33456 12.7589 7.49352 12.3779 7.77543 12.0973C8.05734 11.8168 8.43912 11.6597 8.83683 11.6606C9.66083 11.6606 10.3335 12.3273 10.3335 13.1566Z" stroke="black"/>
<path d="M10.1504 11.8599L11.4771 10.5653M11.4771 10.5653L12.4177 9.6606C12.6337 9.4766 13.0671 9.04593 13.5824 9.5386L14.6671 10.5653M11.4771 10.5653L12.5511 11.5959" stroke="black" stroke-linecap="round"/>
</svg>
