<svg width="40" height="40" viewBox="0 0 40 40" fill="none" xmlns="http://www.w3.org/2000/svg">
<circle cx="20" cy="20" r="20" fill="#FF0000"/>
<path d="M14.9998 7.86249C14.8042 7.86249 14.6166 7.94019 14.4783 8.0785C14.34 8.2168 14.2623 8.40439 14.2623 8.59999V31.4C14.2606 31.4973 14.2785 31.594 14.315 31.6842C14.3515 31.7745 14.4057 31.8564 14.4746 31.9253C14.5434 31.9941 14.6254 32.0483 14.7156 32.0848C14.8058 32.1213 14.9025 32.1392 14.9998 32.1375H24.2623C24.3623 32.1426 24.4622 32.1273 24.5561 32.0925C24.6499 32.0577 24.7357 32.0042 24.8082 31.9352C24.8807 31.8662 24.9384 31.7832 24.9778 31.6912C25.0172 31.5991 25.0374 31.5001 25.0373 31.4V8.59999C25.0341 8.40539 24.9554 8.21967 24.8177 8.08206C24.6801 7.94444 24.4944 7.8657 24.2998 7.86249H14.9998ZM14.9998 8.13749H24.2873C24.4112 8.13744 24.5301 8.18577 24.6188 8.27216C24.7076 8.35856 24.7591 8.47619 24.7623 8.59999V31.4C24.7592 31.5217 24.7094 31.6375 24.6234 31.7235C24.5373 31.8096 24.4215 31.8593 24.2998 31.8625H14.9998C14.8772 31.8625 14.7595 31.8138 14.6728 31.727C14.586 31.6403 14.5373 31.5227 14.5373 31.4V8.59999C14.5373 8.47733 14.586 8.35969 14.6728 8.27295C14.7595 8.18622 14.8772 8.13749 14.9998 8.13749ZM16.6998 10.675L16.5123 10.875V19.775H16.9248C17.0386 18.065 18.3536 17.21 19.6673 17.21C20.9823 17.21 22.2961 18.065 22.4123 19.775H22.8373V10.875L22.6498 10.675H16.6998ZM19.6123 11.7125C20.1485 11.7222 20.6598 11.9404 21.0379 12.3207C21.4159 12.7011 21.6309 13.2138 21.6373 13.75C21.6308 14.2839 21.4149 14.7938 21.0362 15.1702C20.6575 15.5466 20.1462 15.7593 19.6123 15.7625C19.0753 15.7625 18.5602 15.5491 18.1804 15.1694C17.8007 14.7896 17.5873 14.2746 17.5873 13.7375C17.5873 13.2004 17.8007 12.6854 18.1804 12.3056C18.5602 11.9258 19.0753 11.7125 19.6123 11.7125ZM19.6123 11.9875V12.0125C19.2651 12.01 18.9251 12.1109 18.6354 12.3022C18.3457 12.4935 18.1195 12.7667 17.9855 13.087C17.8515 13.4073 17.8158 13.7602 17.8829 14.1008C17.95 14.4414 18.1169 14.7544 18.3624 14.9999C18.6079 15.2454 18.9209 15.4123 19.2615 15.4794C19.6021 15.5465 19.955 15.5108 20.2753 15.3768C20.5956 15.2428 20.8688 15.0166 21.0601 14.7269C21.2514 14.4372 21.3523 14.0972 21.3498 13.75C21.3435 13.2888 21.1592 12.8479 20.8354 12.5194C20.5116 12.1909 20.0734 12.0003 19.6123 11.9875ZM19.6211 12.8C19.7444 12.8013 19.8663 12.8269 19.9797 12.8754C20.0931 12.9239 20.1958 12.9943 20.282 13.0825C20.3681 13.1708 20.436 13.2751 20.4818 13.3897C20.5275 13.5042 20.5502 13.6267 20.5486 13.75C20.5453 13.9965 20.4451 14.2317 20.2696 14.4048C20.0941 14.578 19.8576 14.675 19.6111 14.675C19.3721 14.6767 19.1415 14.5871 18.9663 14.4245C18.7912 14.2619 18.6848 14.0386 18.6688 13.8001C18.6529 13.5617 18.7286 13.3261 18.8805 13.1416C19.0324 12.9571 19.249 12.8376 19.4861 12.8075C19.5309 12.8026 19.576 12.8001 19.6211 12.8ZM19.6111 13.425C19.5282 13.425 19.4487 13.4579 19.3901 13.5165C19.3315 13.5751 19.2986 13.6546 19.2986 13.7375C19.2986 13.8204 19.3315 13.8999 19.3901 13.9585C19.4487 14.0171 19.5282 14.05 19.6111 14.05C19.6939 14.05 19.7734 14.0171 19.832 13.9585C19.8906 13.8999 19.9236 13.8204 19.9236 13.7375C19.9236 13.6546 19.8906 13.5751 19.832 13.5165C19.7734 13.4579 19.6939 13.425 19.6111 13.425ZM19.6673 17.5337C18.2298 17.5737 17.2761 18.5812 17.2423 20.02C17.4423 22.895 21.8048 23.4725 22.1111 19.995C22.0336 18.4587 21.0786 17.605 19.6673 17.5337ZM19.7173 18.0125C19.9716 18.0183 20.2223 18.0745 20.4548 18.1777C20.6873 18.281 20.897 18.4293 21.0718 18.6142C21.2466 18.799 21.3831 19.0166 21.4733 19.2545C21.5635 19.4923 21.6056 19.7457 21.5973 20C21.5811 20.4994 21.3713 20.9729 21.0123 21.3205C20.6533 21.6681 20.1732 21.8624 19.6736 21.8625C19.1843 21.861 18.7141 21.6732 18.3583 21.3374C18.0025 21.0016 17.7879 20.5429 17.7582 20.0546C17.7284 19.5663 17.8857 19.085 18.198 18.7084C18.5104 18.3319 18.9544 18.0884 19.4398 18.0275C19.5311 18.0174 19.6229 18.0124 19.7148 18.0125M19.6723 18.3875C19.2612 18.3875 18.867 18.5508 18.5763 18.8415C18.2856 19.1322 18.1223 19.5264 18.1223 19.9375C18.1223 20.3486 18.2856 20.7428 18.5763 21.0335C18.867 21.3242 19.2612 21.4875 19.6723 21.4875C20.0834 21.4875 20.4777 21.3242 20.7683 21.0335C21.059 20.7428 21.2223 20.3486 21.2223 19.9375C21.2223 19.5264 21.059 19.1322 20.7683 18.8415C20.4777 18.5508 20.0834 18.3875 19.6723 18.3875ZM22.3973 20.225C22.2123 22.0937 21.0861 22.7362 19.6598 22.7375C18.975 22.7292 18.317 22.4702 17.8102 22.0095C17.3035 21.5488 16.9831 20.9184 16.9098 20.2375H16.5098V29L16.6973 29.2H22.6473L22.8348 29V20.225H22.3973Z" fill="white"/>
</svg>
