<svg width="24" height="24" viewBox="0 0 24 24" fill="none" xmlns="http://www.w3.org/2000/svg">
<path d="M8.75 1.75C9.435 1.75 10.0635 2.006 10.521 2.479C10.9785 2.9525 11.25 3.6285 11.25 4.444C11.25 5.2555 10.982 6.07 10.545 6.6865C10.11 7.3 9.48 7.75 8.75 7.75C8.02 7.75 7.39 7.3 6.955 6.6865C6.518 6.07 6.25 5.2555 6.25 4.4445C6.25 3.6285 6.5215 2.9525 6.9795 2.479C7.4365 2.006 8.065 1.75 8.75 1.75ZM3.25 6.25C3.935 6.25 4.5635 6.506 5.021 6.979C5.4785 7.4525 5.75 8.1285 5.75 8.944C5.75 9.7555 5.482 10.57 5.045 11.1865C4.61 11.8 3.98 12.25 3.25 12.25C2.52 12.25 1.89 11.8 1.455 11.1865C1.018 10.57 0.75 9.755 0.75 8.9445C0.75 8.1285 1.0215 7.4525 1.4795 6.979C1.9365 6.506 2.565 6.25 3.25 6.25ZM12 9.75C8.438 9.75 5.487 12.7825 4.558 16.585C4.146 18.272 4.7745 20.0815 6.3245 20.939C7.556 21.621 9.399 22.25 11.9995 22.25C14.6005 22.25 16.4435 21.621 17.6755 20.939C19.225 20.0815 19.8535 18.272 19.4415 16.5855C18.513 12.7825 15.5615 9.75 12 9.75ZM20.75 6.25C20.065 6.25 19.4365 6.506 18.9795 6.979C18.5215 7.4525 18.25 8.1285 18.25 8.944C18.25 9.7555 18.518 10.57 18.955 11.1865C19.39 11.8 20.02 12.25 20.75 12.25C21.48 12.25 22.11 11.8 22.545 11.1865C22.982 10.57 23.25 9.7555 23.25 8.9445C23.25 8.1285 22.9785 7.4525 22.521 6.979C22.0635 6.506 21.435 6.25 20.75 6.25ZM15.25 1.75C14.565 1.75 13.9365 2.006 13.4795 2.479C13.0215 2.9525 12.75 3.6285 12.75 4.444C12.75 5.2555 13.018 6.07 13.455 6.6865C13.89 7.3 14.52 7.75 15.25 7.75C15.98 7.75 16.61 7.3 17.045 6.6865C17.482 6.07 17.75 5.2555 17.75 4.4445C17.75 3.6285 17.4785 2.9525 17.021 2.479C16.5635 2.006 15.935 1.75 15.25 1.75Z" fill="black"/>
<path d="M11.5469 2C9.4609 2 7.42177 2.61856 5.68735 3.77747C3.95293 4.93637 2.60111 6.58357 1.80284 8.51076C1.00457 10.438 0.795706 12.5586 1.20266 14.6045C1.60961 16.6504 2.61411 18.5296 4.08911 20.0046C5.56412 21.4796 7.44339 22.4841 9.48929 22.8911C11.5352 23.298 13.6558 23.0892 15.583 22.2909C17.5102 21.4926 19.1574 20.1408 20.3163 18.4064C21.4752 16.672 22.0938 14.6328 22.0938 12.5469C22.0907 9.75062 20.9785 7.06978 19.0012 5.09253C17.024 3.11528 14.3431 2.0031 11.5469 2ZM19.75 12.5469C19.7517 14.3177 19.1776 16.041 18.1143 17.457L6.63672 5.97949C7.85583 5.06856 9.3043 4.51471 10.8202 4.37989C12.336 4.24507 13.8595 4.53459 15.2202 5.21607C16.581 5.89755 17.7253 6.94413 18.5253 8.23876C19.3252 9.53339 19.7493 11.025 19.75 12.5469ZM3.34375 12.5469C3.34206 10.7761 3.91617 9.05273 4.9795 7.63672L16.457 19.1143C15.2379 20.0252 13.7895 20.579 12.2736 20.7139C10.7577 20.8487 9.23426 20.5592 7.87352 19.8777C6.51279 19.1962 5.36846 18.1496 4.56849 16.855C3.76853 15.5604 3.34448 14.0687 3.34375 12.5469Z" fill="#FF0000"/>
</svg>
