<svg width="323" height="228" viewBox="0 0 323 228" fill="none" xmlns="http://www.w3.org/2000/svg">
<g clip-path="url(#clip0_28_1082)">
<path d="M132.8 235.214H189.2M85.8 283H236.2C241.186 283 245.968 281.322 249.494 278.335C253.019 275.347 255 271.296 255 267.071V75.9286C255 71.7041 253.019 67.6526 249.494 64.6654C245.968 61.6782 241.186 60 236.2 60H85.8C80.8139 60 76.0321 61.6782 72.5064 64.6654C68.9807 67.6526 67 71.7041 67 75.9286V267.071C67 271.296 68.9807 275.347 72.5064 278.335C76.0321 281.322 80.8139 283 85.8 283Z" stroke="black" stroke-width="9"/>
<g filter="url(#filter0_d_28_1082)">
<rect x="22" y="106" width="273" height="44" rx="6" fill="#FF0000"/>
</g>
<path d="M36.3561 134V132.849L40.6802 128.115C41.1877 127.561 41.6056 127.079 41.9339 126.669C42.2623 126.256 42.5054 125.868 42.6631 125.505C42.8252 125.139 42.9062 124.755 42.9062 124.354C42.9062 123.893 42.7953 123.495 42.5736 123.158C42.3561 122.821 42.0576 122.561 41.6781 122.377C41.2985 122.194 40.8721 122.102 40.3987 122.102C39.8955 122.102 39.4563 122.207 39.081 122.416C38.71 122.62 38.4222 122.908 38.2175 123.279C38.0171 123.65 37.9169 124.085 37.9169 124.584H36.4073C36.4073 123.817 36.5842 123.143 36.9382 122.563C37.2921 121.983 37.774 121.531 38.3838 121.207C38.9979 120.883 39.6866 120.721 40.4499 120.721C41.2175 120.721 41.8977 120.883 42.4904 121.207C43.0832 121.531 43.548 121.968 43.8849 122.518C44.2218 123.068 44.3902 123.68 44.3902 124.354C44.3902 124.836 44.3028 125.307 44.128 125.768C43.9574 126.224 43.6589 126.733 43.2324 127.296C42.8103 127.855 42.2239 128.537 41.4734 129.343L38.5309 132.49V132.593H44.6205V134H36.3561ZM48.7484 134.102C48.4328 134.102 48.162 133.989 47.936 133.763C47.71 133.537 47.597 133.267 47.597 132.951C47.597 132.635 47.71 132.365 47.936 132.139C48.162 131.913 48.4328 131.8 48.7484 131.8C49.0639 131.8 49.3347 131.913 49.5607 132.139C49.7867 132.365 49.8998 132.635 49.8998 132.951C49.8998 133.16 49.8464 133.352 49.7398 133.527C49.6375 133.701 49.4989 133.842 49.3241 133.949C49.1535 134.051 48.9616 134.102 48.7484 134.102ZM52.6363 131.313V130.009L58.3933 120.9H59.34V122.921H58.7003L54.3506 129.804V129.906H62.1033V131.313H52.6363ZM58.8027 134V130.917V130.309V120.9H60.3123V134H58.8027ZM74.0463 124.994C73.9055 124.563 73.72 124.177 73.4897 123.836C73.2637 123.49 72.9929 123.196 72.6774 122.953C72.3661 122.71 72.0121 122.524 71.6155 122.397C71.219 122.269 70.784 122.205 70.3106 122.205C69.5345 122.205 68.8288 122.405 68.1934 122.806C67.558 123.207 67.0526 123.797 66.6774 124.578C66.3021 125.358 66.1145 126.316 66.1145 127.45C66.1145 128.584 66.3042 129.542 66.6838 130.322C67.0633 131.102 67.5771 131.693 68.2253 132.094C68.8735 132.495 69.6027 132.695 70.413 132.695C71.1635 132.695 71.8245 132.535 72.3959 132.215C72.9716 131.891 73.4194 131.435 73.7392 130.846C74.0633 130.254 74.2254 129.556 74.2254 128.755L74.7115 128.857H70.7712V127.45H75.7605V128.857C75.7605 129.936 75.5303 130.874 75.0697 131.672C74.6134 132.469 73.9823 133.087 73.1763 133.527C72.3746 133.962 71.4535 134.179 70.413 134.179C69.2531 134.179 68.2339 133.906 67.3554 133.36C66.4812 132.814 65.7989 132.038 65.3085 131.032C64.8223 130.026 64.5793 128.832 64.5793 127.45C64.5793 126.414 64.7179 125.482 64.995 124.655C65.2765 123.823 65.6731 123.115 66.1848 122.531C66.6965 121.947 67.3021 121.499 68.0015 121.188C68.7008 120.876 69.4705 120.721 70.3106 120.721C71.0015 120.721 71.6454 120.825 72.2424 121.034C72.8437 121.239 73.3789 121.531 73.848 121.91C74.3213 122.286 74.7158 122.736 75.0313 123.26C75.3469 123.78 75.5644 124.358 75.6838 124.994H74.0463ZM78.8378 134V120.9H80.4241V126.733H87.4092V120.9H88.9956V134H87.4092V128.141H80.4241V134H78.8378ZM92.0456 134V132.849L97.6235 125.684V125.582H92.2247V124.175H99.568V125.377L94.1437 132.49V132.593H99.7471V134H92.0456Z" fill="white"/>
<path d="M262.781 129.031L267.594 133.844L277.219 123.531" stroke="white" stroke-width="2.0625" stroke-linecap="round" stroke-linejoin="round"/>
<g filter="url(#filter1_d_28_1082)">
<rect x="36" y="160" width="244" height="39.326" rx="5.36264" fill="white"/>
</g>
<path d="M52.49 184.992C51.8192 184.992 51.2151 184.858 50.6777 184.591C50.1403 184.325 49.7096 183.959 49.3856 183.494C49.0616 183.029 48.8844 182.499 48.8539 181.904H50.226C50.2794 182.434 50.5195 182.872 50.9464 183.219C51.3771 183.562 51.8916 183.734 52.49 183.734C52.9702 183.734 53.3971 183.621 53.7706 183.397C54.148 183.172 54.4433 182.863 54.6568 182.47C54.874 182.074 54.9827 181.626 54.9827 181.127C54.9827 180.616 54.8702 180.161 54.6454 179.76C54.4243 179.356 54.1194 179.038 53.7306 178.806C53.3419 178.573 52.8978 178.455 52.3985 178.451C52.0403 178.447 51.6725 178.503 51.2951 178.617C50.9178 178.728 50.6072 178.87 50.3632 179.046L49.0369 178.886L49.7458 173.123H55.8288V174.381H50.9349L50.5233 177.834H50.5919C50.832 177.643 51.1331 177.485 51.4952 177.359C51.8573 177.233 52.2346 177.171 52.6272 177.171C53.3438 177.171 53.9822 177.342 54.5424 177.685C55.1065 178.024 55.5487 178.489 55.8688 179.08C56.1928 179.671 56.3548 180.346 56.3548 181.104C56.3548 181.851 56.1871 182.518 55.8517 183.105C55.5201 183.688 55.0627 184.149 54.4796 184.489C53.8964 184.824 53.2332 184.992 52.49 184.992ZM72.0076 176.782C71.8818 176.397 71.716 176.052 71.5102 175.747C71.3082 175.438 71.0662 175.175 70.7841 174.958C70.5059 174.741 70.1896 174.575 69.8351 174.461C69.4806 174.346 69.0919 174.289 68.6688 174.289C67.9751 174.289 67.3443 174.468 66.7764 174.827C66.2085 175.185 65.7569 175.713 65.4215 176.41C65.0861 177.108 64.9184 177.963 64.9184 178.977C64.9184 179.991 65.088 180.847 65.4272 181.544C65.7664 182.242 66.2257 182.77 66.805 183.128C67.3844 183.486 68.0361 183.665 68.7603 183.665C69.4311 183.665 70.0219 183.522 70.5326 183.236C71.0471 182.947 71.4473 182.539 71.7332 182.013C72.0229 181.483 72.1677 180.86 72.1677 180.144L72.6022 180.235H69.0804V178.977H73.5398V180.235C73.5398 181.199 73.334 182.038 72.9223 182.751C72.5145 183.463 71.9504 184.016 71.2301 184.408C70.5135 184.797 69.6903 184.992 68.7603 184.992C67.7236 184.992 66.8127 184.748 66.0275 184.26C65.2462 183.772 64.6363 183.078 64.198 182.179C63.7635 181.279 63.5463 180.212 63.5463 178.977C63.5463 178.051 63.6701 177.218 63.9179 176.479C64.1694 175.736 64.5239 175.103 64.9813 174.581C65.4386 174.059 65.9799 173.658 66.6049 173.38C67.23 173.102 67.918 172.963 68.6688 172.963C69.2863 172.963 69.8618 173.056 70.3954 173.243C70.9328 173.426 71.4111 173.687 71.8304 174.026C72.2534 174.362 72.606 174.764 72.888 175.233C73.1701 175.697 73.3645 176.214 73.4712 176.782H72.0076ZM76.2901 184.832V173.123H77.708V178.337H83.9511V173.123H85.3689V184.832H83.9511V179.595H77.708V184.832H76.2901ZM88.0949 184.832V183.802L93.0803 177.399V177.308H88.255V176.05H94.8183V177.125L89.9702 183.482V183.574H94.9784V184.832H88.0949Z" fill="black"/>
<path d="M262.656 176.344L255.344 183.656M255.344 176.344L262.656 183.656" stroke="#FF0000" stroke-width="1.6875" stroke-linecap="round" stroke-linejoin="round"/>
</g>
<defs>
<filter id="filter0_d_28_1082" x="17.1" y="104.1" width="282.8" height="53.8" filterUnits="userSpaceOnUse" color-interpolation-filters="sRGB">
<feFlood flood-opacity="0" result="BackgroundImageFix"/>
<feColorMatrix in="SourceAlpha" type="matrix" values="0 0 0 0 0 0 0 0 0 0 0 0 0 0 0 0 0 0 127 0" result="hardAlpha"/>
<feOffset dy="3"/>
<feGaussianBlur stdDeviation="2.45"/>
<feComposite in2="hardAlpha" operator="out"/>
<feColorMatrix type="matrix" values="0 0 0 0 0 0 0 0 0 0 0 0 0 0 0 0 0 0 0.39 0"/>
<feBlend mode="normal" in2="BackgroundImageFix" result="effect1_dropShadow_28_1082"/>
<feBlend mode="normal" in="SourceGraphic" in2="effect1_dropShadow_28_1082" result="shape"/>
</filter>
<filter id="filter1_d_28_1082" x="31.6205" y="158.302" width="252.759" height="48.0849" filterUnits="userSpaceOnUse" color-interpolation-filters="sRGB">
<feFlood flood-opacity="0" result="BackgroundImageFix"/>
<feColorMatrix in="SourceAlpha" type="matrix" values="0 0 0 0 0 0 0 0 0 0 0 0 0 0 0 0 0 0 127 0" result="hardAlpha"/>
<feOffset dy="2.68132"/>
<feGaussianBlur stdDeviation="2.18974"/>
<feComposite in2="hardAlpha" operator="out"/>
<feColorMatrix type="matrix" values="0 0 0 0 0 0 0 0 0 0 0 0 0 0 0 0 0 0 0.39 0"/>
<feBlend mode="normal" in2="BackgroundImageFix" result="effect1_dropShadow_28_1082"/>
<feBlend mode="normal" in="SourceGraphic" in2="effect1_dropShadow_28_1082" result="shape"/>
</filter>
<clipPath id="clip0_28_1082">
<rect width="323" height="228" fill="white"/>
</clipPath>
</defs>
</svg>
