<svg width="48" height="49" viewBox="0 0 48 49" fill="none" xmlns="http://www.w3.org/2000/svg">
<g clip-path="url(#clip0_28_779)">
<rect width="47.4194" height="49" rx="23.7097" fill="white"/>
<g opacity="0.59" filter="url(#filter0_f_28_779)">
<rect x="2.10767" y="28.9785" width="47.4194" height="29.5054" fill="#FF0000"/>
</g>
<mask id="mask0_28_779" style="mask-type:luminance" maskUnits="userSpaceOnUse" x="12" y="22" width="24" height="22">
<path d="M12.6453 22.362H35.0499V43.6847H12.6453V22.362Z" fill="white"/>
</mask>
<g mask="url(#mask0_28_779)">
<path d="M35.0499 23.6369V41.9112C35.0499 42.8901 34.2599 43.6797 33.281 43.6797H14.4142C13.4353 43.6797 12.6453 42.8901 12.6453 41.9112V23.6369L13.8245 22.4576H34.4603L35.0499 23.6369Z" fill="#B4CFD0"/>
</g>
<mask id="mask1_28_779" style="mask-type:luminance" maskUnits="userSpaceOnUse" x="12" y="9" width="24" height="15">
<path d="M12.6453 9.48389H35.0499V23.7342H12.6453V9.48389Z" fill="white"/>
</mask>
<g mask="url(#mask1_28_779)">
<path d="M35.0499 11.2574V23.637H12.6453V11.2574C12.6453 10.2785 13.4353 9.48892 14.4142 9.48892H33.281C34.2599 9.48892 35.0499 10.2785 35.0499 11.2574Z" fill="#1A2739"/>
</g>
<path d="M18.5413 33.6583C18.5413 36.5875 20.918 38.9638 23.8476 38.9638C26.7773 38.9638 29.154 36.5875 29.154 33.6583C29.154 30.7291 26.7773 28.3528 23.8476 28.3528C20.918 28.3528 18.5413 30.7291 18.5413 33.6583Z" fill="#CAE1E1"/>
<path d="M23.8476 36.6057C22.2214 36.6057 20.8994 35.2842 20.8994 33.6583C20.8994 32.0325 22.2214 30.7109 23.8476 30.7109C25.4735 30.7109 26.7954 32.0325 26.7954 33.6583C26.7954 35.2842 25.4735 36.6057 23.8476 36.6057Z" fill="#CAE1E1"/>
<path d="M29.7437 20.6891H17.9517C17.2998 20.6891 16.7725 20.1621 16.7725 19.5102V13.6155C16.7725 12.9636 17.2998 12.4362 17.9517 12.4362H29.7437C30.3952 12.4362 30.923 12.9636 30.923 13.6155V19.5102C30.923 20.1621 30.3952 20.6891 29.7437 20.6891Z" fill="#29384F"/>
<path d="M27.217 12.4362C27.217 12.4362 28.5645 13.8109 28.5645 16.5628C28.5645 19.3144 27.217 20.6891 27.217 20.6891H20.4782C20.4782 20.6891 19.1311 19.3144 19.1311 16.5628C19.1311 13.8109 20.4782 12.4362 20.4782 12.4362H27.217Z" fill="#131D2C"/>
<path d="M25.6165 16.5629C25.6165 17.5393 24.8239 18.3314 23.8475 18.3314C22.8711 18.3314 22.0786 17.5393 22.0786 16.5629C22.0786 15.5865 22.8711 14.7944 23.8475 14.7944C24.8239 14.7944 25.6165 15.5865 25.6165 16.5629Z" fill="#1A2739"/>
<path d="M23.8477 31.3001C22.5463 31.3001 21.4891 32.3574 21.4891 33.6583C21.4891 34.9592 22.5463 36.0164 23.8477 36.0164C25.149 36.0164 26.2058 34.9592 26.2058 33.6583C26.2058 32.3574 25.149 31.3001 23.8477 31.3001ZM23.8477 37.1953C21.8969 37.1953 20.3098 35.6086 20.3098 33.6583C20.3098 31.7079 21.8969 30.1213 23.8477 30.1213C25.7984 30.1213 27.3851 31.7079 27.3851 33.6583C27.3851 35.6086 25.7984 37.1953 23.8477 37.1953Z" fill="#FF0000"/>
</g>
<defs>
<filter id="filter0_f_28_779" x="-37.83" y="-10.9592" width="127.295" height="109.381" filterUnits="userSpaceOnUse" color-interpolation-filters="sRGB">
<feFlood flood-opacity="0" result="BackgroundImageFix"/>
<feBlend mode="normal" in="SourceGraphic" in2="BackgroundImageFix" result="shape"/>
<feGaussianBlur stdDeviation="19.9688" result="effect1_foregroundBlur_28_779"/>
</filter>
<clipPath id="clip0_28_779">
<rect width="47.4194" height="49" rx="23.7097" fill="white"/>
</clipPath>
</defs>
</svg>
