<svg width="11" height="11" viewBox="0 0 11 11" fill="none" xmlns="http://www.w3.org/2000/svg">
<path d="M3.5 0.25C3.89844 0.25 4.25 0.601562 4.25 1C4.25 1.42188 3.89844 1.75 3.5 1.75H2V3.25C2 3.67188 1.64844 4 1.25 4C0.828125 4 0.5 3.67188 0.5 3.25V1C0.5 0.601562 0.828125 0.25 1.25 0.25H3.5ZM10.25 0.25C10.6484 0.25 11 0.601562 11 1V3.25C11 3.67188 10.6484 4 10.25 4C9.82812 4 9.5 3.67188 9.5 3.25V1.75H8C7.57812 1.75 7.25 1.42188 7.25 1C7.25 0.601562 7.57812 0.25 8 0.25H10.25ZM3.5 9.25C3.89844 9.25 4.25 9.60156 4.25 10C4.25 10.4219 3.89844 10.75 3.5 10.75H1.25C0.828125 10.75 0.5 10.4219 0.5 10V7.75C0.5 7.35156 0.828125 7 1.25 7C1.64844 7 2 7.35156 2 7.75V9.25H3.5ZM10.25 7C10.6484 7 11 7.35156 11 7.75V10C11 10.4219 10.6484 10.75 10.25 10.75H8C7.57812 10.75 7.25 10.4219 7.25 10C7.25 9.60156 7.57812 9.25 8 9.25H9.5V7.75C9.5 7.35156 9.82812 7 10.25 7Z" fill="#FAFAFA"/>
</svg>
