<svg width="90" height="6" viewBox="0 0 90 6" fill="none" xmlns="http://www.w3.org/2000/svg">
<path d="M87.3359 0.799805C87.4131 0.799867 87.4891 0.817938 87.5586 0.851562C87.6283 0.885338 87.6903 0.934331 87.7383 0.995117L89.1133 2.73828C89.1991 2.84704 89.246 2.98158 89.2461 3.12012C89.2461 3.25866 89.1991 3.39317 89.1133 3.50195L87.7383 5.24609C87.6904 5.3068 87.6291 5.35586 87.5596 5.38965C87.4899 5.42346 87.4124 5.44043 87.335 5.44043C87.2576 5.44036 87.1809 5.4234 87.1113 5.38965C87.0418 5.35586 86.9805 5.3068 86.9326 5.24609L85.5576 3.50293C85.4717 3.39411 85.4248 3.25874 85.4248 3.12012C85.4249 2.98165 85.4718 2.84698 85.5576 2.73828L86.9336 0.995117L87.0146 0.913086C87.0446 0.889017 87.0775 0.868432 87.1123 0.851562C87.1819 0.817841 87.2586 0.799805 87.3359 0.799805ZM86.2959 3.12012L87.335 4.4375L88.374 3.12012L87.335 1.80273L86.2959 3.12012Z" fill="#FF0000" stroke="#FF0000" stroke-width="0.4"/>
<path d="M0.988373 3.98847C2.40524 3.98866 3.8221 3.98886 5.23896 3.98905C30.7425 3.99252 56.246 3.99598 81.7495 3.99945C83.1664 3.99964 84.5833 3.99984 86.0001 4.00003C85.9924 3.33341 85.9846 2.66679 85.9769 2.00016C84.5604 2.0333 83.1439 2.06644 81.7275 2.09958C56.2309 2.69607 30.7344 3.29256 5.2378 3.88906C3.82132 3.92219 2.40485 3.95533 0.988373 3.98847Z" fill="#FF0000"/>
</svg>
