<svg width="35" height="37" viewBox="0 0 35 37" fill="none" xmlns="http://www.w3.org/2000/svg">
<path d="M16.1562 2.6875V1.34375C16.1562 0.987365 16.2978 0.645577 16.5498 0.393575C16.8018 0.141573 17.1436 0 17.5 0C17.8564 0 18.1982 0.141573 18.4502 0.393575C18.7022 0.645577 18.8438 0.987365 18.8438 1.34375V2.6875C18.8438 3.04388 18.7022 3.38567 18.4502 3.63767C18.1982 3.88968 17.8564 4.03125 17.5 4.03125C17.1436 4.03125 16.8018 3.88968 16.5498 3.63767C16.2978 3.38567 16.1562 3.04388 16.1562 2.6875ZM29.5938 8.0625C29.7703 8.06264 29.9451 8.028 30.1082 7.96056C30.2713 7.89312 30.4196 7.7942 30.5445 7.66945L31.8882 6.3257C32.1403 6.07356 32.282 5.73158 32.282 5.375C32.282 5.01842 32.1403 4.67644 31.8882 4.4243C31.6361 4.17215 31.2941 4.0305 30.9375 4.0305C30.5809 4.0305 30.2389 4.17215 29.9868 4.4243L28.643 5.76805C28.4549 5.95598 28.3268 6.19551 28.2748 6.45631C28.2229 6.71711 28.2495 6.98746 28.3513 7.23312C28.4531 7.47879 28.6255 7.68874 28.8466 7.83637C29.0678 7.98401 29.3278 8.06271 29.5938 8.0625ZM4.45555 7.66945C4.70769 7.9216 5.04967 8.06325 5.40625 8.06325C5.76283 8.06325 6.10481 7.9216 6.35695 7.66945C6.6091 7.41731 6.75075 7.07533 6.75075 6.71875C6.75075 6.36217 6.6091 6.02019 6.35695 5.76805L5.0132 4.4243C4.76106 4.17215 4.41908 4.0305 4.0625 4.0305C3.70592 4.0305 3.36394 4.17215 3.1118 4.4243C2.85965 4.67644 2.718 5.01842 2.718 5.375C2.718 5.73158 2.85965 6.07356 3.1118 6.3257L4.45555 7.66945ZM34.9688 29.5625V33.5938C34.9688 34.3065 34.6856 34.9901 34.1816 35.4941C33.6776 35.9981 32.994 36.2812 32.2812 36.2812H2.71875C2.00598 36.2812 1.3224 35.9981 0.8184 35.4941C0.314396 34.9901 0.03125 34.3065 0.03125 33.5938V29.5625C0.03125 28.8497 0.314396 28.1662 0.8184 27.6622C1.3224 27.1581 2.00598 26.875 2.71875 26.875V21.5C2.71869 19.5494 3.10472 17.6181 3.85457 15.8173C4.60443 14.0166 5.70328 12.3821 7.08779 11.0081C8.4723 9.63404 10.1151 8.54762 11.9214 7.81144C13.7278 7.07526 15.662 6.7039 17.6125 6.71875C25.7002 6.77922 32.2812 13.4862 32.2812 21.668V26.875C32.994 26.875 33.6776 27.1581 34.1816 27.6622C34.6856 28.1662 34.9688 28.8497 34.9688 29.5625ZM18.622 14.7628C21.8118 15.2986 24.2188 18.1944 24.2188 21.5C24.2188 21.8564 24.3603 22.1982 24.6123 22.4502C24.8643 22.7022 25.2061 22.8438 25.5625 22.8438C25.9189 22.8438 26.2607 22.7022 26.5127 22.4502C26.7647 22.1982 26.9062 21.8564 26.9062 21.5C26.9062 16.8977 23.5351 12.8614 19.0655 12.1122C18.8907 12.0813 18.7115 12.0853 18.5382 12.1241C18.365 12.1628 18.2012 12.2355 18.0562 12.3379C17.9112 12.4403 17.7879 12.5704 17.6935 12.7208C17.5991 12.8711 17.5354 13.0386 17.5061 13.2137C17.4768 13.3888 17.4825 13.5679 17.5229 13.7408C17.5632 13.9137 17.6374 14.0768 17.7412 14.2209C17.8449 14.3649 17.9762 14.4869 18.1274 14.58C18.2786 14.673 18.4467 14.7351 18.622 14.7628ZM32.2812 33.5938V29.5625H2.71875V33.5938H32.2812Z" fill="black"/>
</svg>
