<svg width="38" height="36" viewBox="0 0 38 36" fill="none" xmlns="http://www.w3.org/2000/svg">
<path d="M4.53452 35.4485H33.4645C36.2271 35.4485 37.958 33.4598 37.958 30.955C37.9612 30.1792 37.7578 29.4166 37.3687 28.7455L22.8762 2.81697C22.0473 1.3249 20.5372 0.551758 19.0089 0.551758C17.4988 0.551758 15.9525 1.3249 15.1228 2.81697L0.649158 28.7636C0.24373 29.4629 0.0410156 30.1999 0.0410156 30.9558C0.0410156 33.4598 1.7908 35.4485 4.53452 35.4485ZM19.0089 22.8338C18.0331 22.8338 17.4988 22.2815 17.4619 21.2875L17.2042 12.1905C17.1672 11.1958 17.9404 10.4588 18.9901 10.4588C20.0217 10.4588 20.8318 11.2139 20.7949 12.2086L20.5191 21.2875C20.4822 22.3003 19.9479 22.8338 19.0089 22.8338ZM19.0089 29.6295C17.9404 29.6295 16.9464 28.7825 16.9464 27.64C16.9464 26.4976 17.9223 25.6522 19.0089 25.6522C20.0956 25.6522 21.0714 26.4803 21.0714 27.64C21.0714 28.8005 20.0767 29.6295 19.0089 29.6295Z" fill="black"/>
</svg>
