<svg width="40" height="28" viewBox="0 0 40 28" fill="none" xmlns="http://www.w3.org/2000/svg">
<path d="M20 8.75C18.6076 8.75 17.2723 9.30312 16.2877 10.2877C15.3031 11.2723 14.75 12.6076 14.75 14C14.75 15.3924 15.3031 16.7277 16.2877 17.7123C17.2723 18.6969 18.6076 19.25 20 19.25C21.3924 19.25 22.7277 18.6969 23.7123 17.7123C24.6969 16.7277 25.25 15.3924 25.25 14C25.25 12.6076 24.6969 11.2723 23.7123 10.2877C22.7277 9.30312 21.3924 8.75 20 8.75ZM20 22.75C17.6794 22.75 15.4538 21.8281 13.8128 20.1872C12.1719 18.5462 11.25 16.3206 11.25 14C11.25 11.6794 12.1719 9.45376 13.8128 7.81282C15.4538 6.17187 17.6794 5.25 20 5.25C22.3206 5.25 24.5462 6.17187 26.1872 7.81282C27.8281 9.45376 28.75 11.6794 28.75 14C28.75 16.3206 27.8281 18.5462 26.1872 20.1872C24.5462 21.8281 22.3206 22.75 20 22.75ZM20 0.875C11.25 0.875 3.7775 6.3175 0.75 14C3.7775 21.6825 11.25 27.125 20 27.125C28.75 27.125 36.2225 21.6825 39.25 14C36.2225 6.3175 28.75 0.875 20 0.875Z" fill="black"/>
</svg>
