<svg width="17" height="17" viewBox="0 0 17 17" fill="none" xmlns="http://www.w3.org/2000/svg">
<path d="M15.2852 1.15625C15.8828 0.558594 16.9375 0.980469 16.9375 1.85938V6.95703C16.9375 7.34375 16.6211 7.625 16.2695 7.625H11.1016C10.2578 7.625 9.87109 6.60547 10.4336 6.00781L12.0156 4.46094C11.0664 3.65234 9.80078 3.125 8.5 3.125C6.14453 3.125 4.07031 4.63672 3.36719 6.85156C3.19141 7.44922 2.55859 7.76562 1.96094 7.58984C1.36328 7.41406 1.04688 6.78125 1.22266 6.18359C2.24219 3.01953 5.16016 0.875 8.5 0.875C10.4336 0.875 12.2266 1.64844 13.5977 2.87891L15.2852 1.15625ZM15.0039 9.94531C15.6016 10.1211 15.918 10.7539 15.707 11.3516C14.6875 14.5156 11.7695 16.625 8.46484 16.625C6.53125 16.625 4.73828 15.8867 3.36719 14.6562L1.67969 16.3789C1.08203 16.9766 0.0625 16.5547 0.0625 15.6758V10.5781C0.0625 10.1914 0.34375 9.91016 0.695312 9.875H5.86328C6.70703 9.91016 7.09375 10.9297 6.53125 11.4922L4.94922 13.0742C5.93359 13.8828 7.16406 14.375 8.5 14.375C10.8203 14.375 12.8945 12.8984 13.5977 10.6836C13.7734 10.0859 14.4062 9.76953 15.0039 9.94531Z" fill="#131313"/>
</svg>
