<svg width="90" height="6" viewBox="0 0 90 6" fill="none" xmlns="http://www.w3.org/2000/svg">
<path d="M2.66406 0.799805C2.58688 0.799867 2.51088 0.817938 2.44141 0.851562C2.37173 0.885338 2.30969 0.934331 2.26172 0.995117L0.886719 2.73828C0.800893 2.84704 0.753962 2.98158 0.753906 3.12012C0.753906 3.25866 0.800934 3.39317 0.886719 3.50195L2.26172 5.24609C2.3096 5.3068 2.37089 5.35586 2.44043 5.38965C2.51014 5.42346 2.58756 5.44043 2.66504 5.44043C2.74236 5.44036 2.8191 5.4234 2.88867 5.38965C2.95822 5.35586 3.0195 5.3068 3.06738 5.24609L4.44238 3.50293C4.52826 3.39411 4.5752 3.25874 4.5752 3.12012C4.57509 2.98165 4.52817 2.84698 4.44238 2.73828L3.06641 0.995117L2.98535 0.913086C2.95539 0.889017 2.9225 0.868432 2.8877 0.851562C2.81806 0.817841 2.74143 0.799805 2.66406 0.799805ZM3.7041 3.12012L2.66504 4.4375L1.62598 3.12012L2.66504 1.80273L3.7041 3.12012Z" fill="#FF0000" stroke="#FF0000" stroke-width="0.4"/>
<path d="M89.0116 3.98847C87.5948 3.98866 86.1779 3.98886 84.761 3.98905C59.2575 3.99252 33.754 3.99598 8.25046 3.99945C6.83359 3.99964 5.41673 3.99984 3.99986 4.00003C4.00761 3.33341 4.01537 2.66679 4.02312 2.00016C5.4396 2.0333 6.85607 2.06644 8.27255 2.09958C33.7691 2.69607 59.2656 3.29256 84.7622 3.88906C86.1787 3.92219 87.5952 3.95533 89.0116 3.98847Z" fill="#FF0000"/>
</svg>
