<svg width="305" height="9" viewBox="0 0 305 9" fill="none" xmlns="http://www.w3.org/2000/svg">
<g opacity="0.17" clip-path="url(#clip0_38_1607)">
<path d="M-0.689833 8.02586C-0.860815 8.02586 -1 7.88787 -1 7.71749V1.30837C-1 1.13799 -0.860815 1 -0.689833 1C-0.518251 1 -0.379666 1.13799 -0.379666 1.30837V7.71749C-0.379666 7.88787 -0.518251 8.02586 -0.689833 8.02586ZM8.26662 7.71749V1.30837C8.26662 1.13799 8.12803 1 7.95645 1C7.78487 1 7.64628 1.13799 7.64628 1.30837V7.71749C7.64628 7.88787 7.78547 8.02586 7.95645 8.02586C8.12803 8.02586 8.26662 7.88787 8.26662 7.71749ZM1.35535 7.71749V4.56662C1.35535 4.39624 1.21676 4.25885 1.04518 4.25885C0.874201 4.25885 0.735016 4.39624 0.735016 4.56662V7.71749C0.735016 7.88787 0.874201 8.02586 1.04518 8.02586C1.21676 8.02586 1.35535 7.88787 1.35535 7.71749ZM3.09997 7.71749V4.56662C3.09997 4.39624 2.96078 4.25885 2.7898 4.25885C2.61822 4.25885 2.47963 4.39624 2.47963 4.56662V7.71749C2.47963 7.88787 2.61822 8.02586 2.7898 8.02586C2.96138 8.02586 3.09997 7.88787 3.09997 7.71749ZM4.78699 7.71749V4.56662C4.78699 4.39624 4.6484 4.25885 4.47682 4.25885C4.30584 4.25885 4.16665 4.39624 4.16665 4.56662V7.71749C4.16665 7.88787 4.30584 8.02586 4.47682 8.02586C4.6484 8.02586 4.78699 7.88787 4.78699 7.71749ZM6.5034 7.71749V4.56662C6.5034 4.39624 6.36422 4.25885 6.19264 4.25885C6.02166 4.25885 5.88247 4.39624 5.88247 4.56662V7.71749C5.88247 7.88787 6.02166 8.02586 6.19264 8.02586C6.36422 8.02586 6.5034 7.88787 6.5034 7.71749ZM8.26662 7.71749V1.30837C8.26662 1.13799 8.12803 1 7.95645 1C7.78487 1 7.64628 1.13799 7.64628 1.30837V7.71749C7.64628 7.88787 7.78547 8.02586 7.95645 8.02586C8.12803 8.02586 8.26662 7.88787 8.26662 7.71749ZM16.9129 7.71749V1.30837C16.9129 1.13799 16.7737 1 16.6027 1C16.4312 1 16.2926 1.13799 16.2926 1.30837V7.71749C16.2926 7.88787 16.4312 8.02586 16.6027 8.02586C16.7737 8.02586 16.9129 7.88787 16.9129 7.71749ZM10.0016 7.71749V4.56662C10.0016 4.39624 9.86245 4.25885 9.69147 4.25885C9.51988 4.25885 9.3813 4.39624 9.3813 4.56662V7.71749C9.3813 7.88787 9.51988 8.02586 9.69147 8.02586C9.86245 8.02586 10.0016 7.88787 10.0016 7.71749ZM11.7462 7.71749V4.56662C11.7462 4.39624 11.6071 4.25885 11.4361 4.25885C11.2645 4.25885 11.1259 4.39624 11.1259 4.56662V7.71749C11.1259 7.88787 11.2645 8.02586 11.4361 8.02586C11.6071 8.02586 11.7462 7.88787 11.7462 7.71749ZM13.4333 7.71749V4.56662C13.4333 4.39624 13.2947 4.25885 13.1231 4.25885C12.9521 4.25885 12.8129 4.39624 12.8129 4.56662V7.71749C12.8129 7.88787 12.9521 8.02586 13.1231 8.02586C13.2947 8.02586 13.4333 7.88787 13.4333 7.71749ZM15.1491 7.71749V4.56662C15.1491 4.39624 15.0105 4.25885 14.8389 4.25885C14.6679 4.25885 14.5288 4.39624 14.5288 4.56662V7.71749C14.5288 7.88787 14.6679 8.02586 14.8389 8.02586C15.0105 8.02586 15.1491 7.88787 15.1491 7.71749ZM16.9129 7.71749V1.30837C16.9129 1.13799 16.7737 1 16.6027 1C16.4312 1 16.2926 1.13799 16.2926 1.30837V7.71749C16.2926 7.88787 16.4312 8.02586 16.6027 8.02586C16.7737 8.02586 16.9129 7.88787 16.9129 7.71749ZM25.5586 7.71749V1.30837C25.5586 1.13799 25.42 1 25.2484 1C25.0774 1 24.9383 1.13799 24.9383 1.30837V7.71749C24.9383 7.88787 25.0774 8.02586 25.2484 8.02586C25.42 8.02586 25.5586 7.88787 25.5586 7.71749ZM18.6479 7.71749V4.56662C18.6479 4.39624 18.5087 4.25885 18.3377 4.25885C18.1662 4.25885 18.0276 4.39624 18.0276 4.56662V7.71749C18.0276 7.88787 18.1662 8.02586 18.3377 8.02586C18.5087 8.02586 18.6479 7.88787 18.6479 7.71749ZM20.3919 7.71749V4.56662C20.3919 4.39624 20.2533 4.25885 20.0818 4.25885C19.9108 4.25885 19.7716 4.39624 19.7716 4.56662V7.71749C19.7716 7.88787 19.9108 8.02586 20.0818 8.02586C20.2533 8.02586 20.3919 7.88787 20.3919 7.71749ZM22.0796 7.71749V4.56662C22.0796 4.39624 21.9404 4.25885 21.7694 4.25885C21.5978 4.25885 21.4592 4.39624 21.4592 4.56662V7.71749C21.4592 7.88787 21.5978 8.02586 21.7694 8.02586C21.9404 8.02586 22.0796 7.88787 22.0796 7.71749ZM23.7954 7.71749V4.56662C23.7954 4.39624 23.6562 4.25885 23.4852 4.25885C23.3136 4.25885 23.175 4.39624 23.175 4.56662V7.71749C23.175 7.88787 23.3136 8.02586 23.4852 8.02586C23.6562 8.02586 23.7954 7.88787 23.7954 7.71749ZM25.5586 7.71749V1.30837C25.5586 1.13799 25.42 1 25.2484 1C25.0774 1 24.9383 1.13799 24.9383 1.30837V7.71749C24.9383 7.88787 25.0774 8.02586 25.2484 8.02586C25.42 8.02586 25.5586 7.88787 25.5586 7.71749ZM34.2049 7.71749V1.30837C34.2049 1.13799 34.0663 1 33.8947 1C33.7237 1 33.5845 1.13799 33.5845 1.30837V7.71749C33.5845 7.88787 33.7237 8.02586 33.8947 8.02586C34.0663 8.02586 34.2049 7.88787 34.2049 7.71749ZM27.2936 7.71749V4.56662C27.2936 4.39624 27.155 4.25885 26.9834 4.25885C26.8125 4.25885 26.6733 4.39624 26.6733 4.56662V7.71749C26.6733 7.88787 26.8125 8.02586 26.9834 8.02586C27.155 8.02586 27.2936 7.88787 27.2936 7.71749ZM29.0382 7.71749V4.56662C29.0382 4.39624 28.8996 4.25885 28.728 4.25885C28.5571 4.25885 28.4179 4.39624 28.4179 4.56662V7.71749C28.4179 7.88787 28.5571 8.02586 28.728 8.02586C28.8996 8.02586 29.0382 7.88787 29.0382 7.71749ZM30.7258 7.71749V4.56662C30.7258 4.39624 30.5867 4.25885 30.4157 4.25885C30.2441 4.25885 30.1055 4.39624 30.1055 4.56662V7.71749C30.1055 7.88787 30.2441 8.02586 30.4157 8.02586C30.5867 8.02586 30.7258 7.88787 30.7258 7.71749ZM32.4417 7.71749V4.56662C32.4417 4.39624 32.3025 4.25885 32.1315 4.25885C31.9599 4.25885 31.8213 4.39624 31.8213 4.56662V7.71749C31.8213 7.88787 31.9599 8.02586 32.1315 8.02586C32.3025 8.02586 32.4417 7.88787 32.4417 7.71749ZM34.2049 7.71749V1.30837C34.2049 1.13799 34.0663 1 33.8947 1C33.7237 1 33.5845 1.13799 33.5845 1.30837V7.71749C33.5845 7.88787 33.7237 8.02586 33.8947 8.02586C34.0663 8.02586 34.2049 7.88787 34.2049 7.71749ZM42.8512 7.71749V1.30837C42.8512 1.13799 42.712 1 42.541 1C42.3694 1 42.2308 1.13799 42.2308 1.30837V7.71749C42.2308 7.88787 42.3694 8.02586 42.541 8.02586C42.712 8.02586 42.8512 7.88787 42.8512 7.71749ZM35.9399 7.71749V4.56662C35.9399 4.39624 35.8013 4.25885 35.6297 4.25885C35.4581 4.25885 35.3195 4.39624 35.3195 4.56662V7.71749C35.3195 7.88787 35.4587 8.02586 35.6297 8.02586C35.8013 8.02586 35.9399 7.88787 35.9399 7.71749ZM37.6845 7.71749V4.56662C37.6845 4.39624 37.5453 4.25885 37.3743 4.25885C37.2028 4.25885 37.0642 4.39624 37.0642 4.56662V7.71749C37.0642 7.88787 37.2028 8.02586 37.3743 8.02586C37.5453 8.02586 37.6845 7.88787 37.6845 7.71749ZM39.3715 7.71749V4.56662C39.3715 4.39624 39.2329 4.25885 39.0614 4.25885C38.8904 4.25885 38.7512 4.39624 38.7512 4.56662V7.71749C38.7512 7.88787 38.8904 8.02586 39.0614 8.02586C39.2329 8.02586 39.3715 7.88787 39.3715 7.71749ZM41.0873 7.71749V4.56662C41.0873 4.39624 40.9488 4.25885 40.7772 4.25885C40.6062 4.25885 40.467 4.39624 40.467 4.56662V7.71749C40.467 7.88787 40.6062 8.02586 40.7772 8.02586C40.9488 8.02586 41.0873 7.88787 41.0873 7.71749ZM42.8512 7.71749V1.30837C42.8512 1.13799 42.712 1 42.541 1C42.3694 1 42.2308 1.13799 42.2308 1.30837V7.71749C42.2308 7.88787 42.3694 8.02586 42.541 8.02586C42.712 8.02586 42.8512 7.88787 42.8512 7.71749ZM51.4974 7.71749V1.30837C51.4974 1.13799 51.3582 1 51.1873 1C51.0157 1 50.8771 1.13799 50.8771 1.30837V7.71749C50.8771 7.88787 51.0157 8.02586 51.1873 8.02586C51.3582 8.02586 51.4974 7.88787 51.4974 7.71749ZM44.5862 7.71749V4.56662C44.5862 4.39624 44.447 4.25885 44.276 4.25885C44.1044 4.25885 43.9658 4.39624 43.9658 4.56662V7.71749C43.9658 7.88787 44.1044 8.02586 44.276 8.02586C44.447 8.02586 44.5862 7.88787 44.5862 7.71749ZM46.3302 7.71749V4.56662C46.3302 4.39624 46.1916 4.25885 46.02 4.25885C45.849 4.25885 45.7099 4.39624 45.7099 4.56662V7.71749C45.7099 7.88787 45.849 8.02586 46.02 8.02586C46.1916 8.02586 46.3302 7.88787 46.3302 7.71749ZM48.0178 7.71749V4.56662C48.0178 4.39624 47.8786 4.25885 47.7076 4.25885C47.5361 4.25885 47.3975 4.39624 47.3975 4.56662V7.71749C47.3975 7.88787 47.5361 8.02586 47.7076 8.02586C47.8786 8.02586 48.0178 7.88787 48.0178 7.71749ZM49.7336 7.71749V4.56662C49.7336 4.39624 49.595 4.25885 49.4235 4.25885C49.2519 4.25885 49.1133 4.39624 49.1133 4.56662V7.71749C49.1133 7.88787 49.2519 8.02586 49.4235 8.02586C49.595 8.02586 49.7336 7.88787 49.7336 7.71749ZM51.4974 7.71749V1.30837C51.4974 1.13799 51.3582 1 51.1873 1C51.0157 1 50.8771 1.13799 50.8771 1.30837V7.71749C50.8771 7.88787 51.0157 8.02586 51.1873 8.02586C51.3582 8.02586 51.4974 7.88787 51.4974 7.71749ZM60.1431 7.71749V1.30837C60.1431 1.13799 60.0045 1 59.833 1C59.662 1 59.5228 1.13799 59.5228 1.30837V7.71749C59.5228 7.88787 59.662 8.02586 59.833 8.02586C60.0045 8.02586 60.1431 7.88787 60.1431 7.71749ZM53.2318 7.71749V4.56662C53.2318 4.39624 53.0933 4.25885 52.9217 4.25885C52.7507 4.25885 52.6115 4.39624 52.6115 4.56662V7.71749C52.6115 7.88787 52.7507 8.02586 52.9217 8.02586C53.0933 8.02586 53.2318 7.88787 53.2318 7.71749ZM54.9765 7.71749V4.56662C54.9765 4.39624 54.8379 4.25885 54.6663 4.25885C54.4953 4.25885 54.3561 4.39624 54.3561 4.56662V7.71749C54.3561 7.88787 54.4953 8.02586 54.6663 8.02586C54.8379 8.02586 54.9765 7.88787 54.9765 7.71749ZM56.6641 7.71749V4.56662C56.6641 4.39624 56.5249 4.25885 56.3539 4.25885C56.1823 4.25885 56.0438 4.39624 56.0438 4.56662V7.71749C56.0438 7.88787 56.1823 8.02586 56.3539 8.02586C56.5249 8.02586 56.6641 7.88787 56.6641 7.71749ZM58.3799 7.71749V4.56662C58.3799 4.39624 58.2407 4.25885 58.0697 4.25885C57.8982 4.25885 57.7596 4.39624 57.7596 4.56662V7.71749C57.7596 7.88787 57.8982 8.02586 58.0697 8.02586C58.2407 8.02586 58.3799 7.88787 58.3799 7.71749ZM60.1431 7.71749V1.30837C60.1431 1.13799 60.0045 1 59.833 1C59.662 1 59.5228 1.13799 59.5228 1.30837V7.71749C59.5228 7.88787 59.662 8.02586 59.833 8.02586C60.0045 8.02586 60.1431 7.88787 60.1431 7.71749ZM68.7894 7.71749V1.30837C68.7894 1.13799 68.6502 1 68.4792 1C68.3076 1 68.1691 1.13799 68.1691 1.30837V7.71749C68.1691 7.88787 68.3076 8.02586 68.4792 8.02586C68.6502 8.02586 68.7894 7.88787 68.7894 7.71749ZM61.8781 7.71749V4.56662C61.8781 4.39624 61.7395 4.25885 61.568 4.25885C61.397 4.25885 61.2578 4.39624 61.2578 4.56662V7.71749C61.2578 7.88787 61.397 8.02586 61.568 8.02586C61.7395 8.02586 61.8781 7.88787 61.8781 7.71749ZM63.6227 7.71749V4.56662C63.6227 4.39624 63.4836 4.25885 63.3126 4.25885C63.141 4.25885 63.0024 4.39624 63.0024 4.56662V7.71749C63.0024 7.88787 63.141 8.02586 63.3126 8.02586C63.4836 8.02586 63.6227 7.88787 63.6227 7.71749ZM65.3098 7.71749V4.56662C65.3098 4.39624 65.1712 4.25885 64.9996 4.25885C64.8286 4.25885 64.6894 4.39624 64.6894 4.56662V7.71749C64.6894 7.88787 64.8286 8.02586 64.9996 8.02586C65.1712 8.02586 65.3098 7.88787 65.3098 7.71749ZM67.0256 7.71749V4.56662C67.0256 4.39624 66.887 4.25885 66.7154 4.25885C66.5444 4.25885 66.4053 4.39624 66.4053 4.56662V7.71749C66.4053 7.88787 66.5444 8.02586 66.7154 8.02586C66.887 8.02586 67.0256 7.88787 67.0256 7.71749ZM68.7894 7.71749V1.30837C68.7894 1.13799 68.6502 1 68.4792 1C68.3076 1 68.1691 1.13799 68.1691 1.30837V7.71749C68.1691 7.88787 68.3076 8.02586 68.4792 8.02586C68.6502 8.02586 68.7894 7.88787 68.7894 7.71749ZM77.4357 7.71749V1.30837C77.4357 1.13799 77.2965 1 77.1255 1C76.9539 1 76.8154 1.13799 76.8154 1.30837V7.71749C76.8154 7.88787 76.9539 8.02586 77.1255 8.02586C77.2965 8.02586 77.4357 7.88787 77.4357 7.71749ZM70.5244 7.71749V4.56662C70.5244 4.39624 70.3852 4.25885 70.2142 4.25885C70.0427 4.25885 69.9041 4.39624 69.9041 4.56662V7.71749C69.9041 7.88787 70.0427 8.02586 70.2142 8.02586C70.3852 8.02586 70.5244 7.88787 70.5244 7.71749ZM72.269 7.71749V4.56662C72.269 4.39624 72.1299 4.25885 71.9589 4.25885C71.7873 4.25885 71.6481 4.39624 71.6481 4.56662V7.71749C71.6481 7.88787 71.7873 8.02586 71.9589 8.02586C72.1299 8.02586 72.269 7.88787 72.269 7.71749ZM73.9561 7.71749V4.56662C73.9561 4.39624 73.8169 4.25885 73.6459 4.25885C73.4743 4.25885 73.3357 4.39624 73.3357 4.56662V7.71749C73.3357 7.88787 73.4743 8.02586 73.6459 8.02586C73.8175 8.02586 73.9561 7.88787 73.9561 7.71749ZM75.6719 7.71749V4.56662C75.6719 4.39624 75.5333 4.25885 75.3617 4.25885C75.1907 4.25885 75.0515 4.39624 75.0515 4.56662V7.71749C75.0515 7.88787 75.1907 8.02586 75.3617 8.02586C75.5333 8.02586 75.6719 7.88787 75.6719 7.71749ZM77.4357 7.71749V1.30837C77.4357 1.13799 77.2965 1 77.1255 1C76.9539 1 76.8154 1.13799 76.8154 1.30837V7.71749C76.8154 7.88787 76.9539 8.02586 77.1255 8.02586C77.2965 8.02586 77.4357 7.88787 77.4357 7.71749ZM86.0814 7.71749V1.30837C86.0814 1.13799 85.9428 1 85.7712 1C85.6002 1 85.461 1.13799 85.461 1.30837V7.71749C85.461 7.88787 85.6002 8.02586 85.7712 8.02586C85.9428 8.02586 86.0814 7.88787 86.0814 7.71749ZM79.1701 7.71749V4.56662C79.1701 4.39624 79.0315 4.25885 78.8599 4.25885C78.6889 4.25885 78.5498 4.39624 78.5498 4.56662V7.71749C78.5498 7.88787 78.6889 8.02586 78.8599 8.02586C79.0315 8.02586 79.1701 7.88787 79.1701 7.71749ZM80.9147 7.71749V4.56662C80.9147 4.39624 80.7761 4.25885 80.6046 4.25885C80.4336 4.25885 80.2944 4.39624 80.2944 4.56662V7.71749C80.2944 7.88787 80.4336 8.02586 80.6046 8.02586C80.7761 8.02586 80.9147 7.88787 80.9147 7.71749ZM82.6023 7.71749V4.56662C82.6023 4.39624 82.4632 4.25885 82.2922 4.25885C82.1206 4.25885 81.982 4.39624 81.982 4.56662V7.71749C81.982 7.88787 82.1206 8.02586 82.2922 8.02586C82.4632 8.02586 82.6023 7.88787 82.6023 7.71749ZM84.3182 7.71749V4.56662C84.3182 4.39624 84.179 4.25885 84.008 4.25885C83.8364 4.25885 83.6978 4.39624 83.6978 4.56662V7.71749C83.6978 7.88787 83.8364 8.02586 84.008 8.02586C84.179 8.02586 84.3182 7.88787 84.3182 7.71749Z" fill="black"/>
</g>
<g opacity="0.17" clip-path="url(#clip1_38_1607)">
<path d="M85.3102 8.02586C85.1392 8.02586 85 7.88787 85 7.71749V1.30837C85 1.13799 85.1392 1 85.3102 1C85.4817 1 85.6203 1.13799 85.6203 1.30837V7.71749C85.6203 7.88787 85.4817 8.02586 85.3102 8.02586ZM94.2666 7.71749V1.30837C94.2666 1.13799 94.128 1 93.9565 1C93.7849 1 93.6463 1.13799 93.6463 1.30837V7.71749C93.6463 7.88787 93.7855 8.02586 93.9565 8.02586C94.128 8.02586 94.2666 7.88787 94.2666 7.71749ZM87.3554 7.71749V4.56662C87.3554 4.39624 87.2168 4.25885 87.0452 4.25885C86.8742 4.25885 86.735 4.39624 86.735 4.56662V7.71749C86.735 7.88787 86.8742 8.02586 87.0452 8.02586C87.2168 8.02586 87.3554 7.88787 87.3554 7.71749ZM89.1 7.71749V4.56662C89.1 4.39624 88.9608 4.25885 88.7898 4.25885C88.6182 4.25885 88.4796 4.39624 88.4796 4.56662V7.71749C88.4796 7.88787 88.6182 8.02586 88.7898 8.02586C88.9614 8.02586 89.1 7.88787 89.1 7.71749ZM90.787 7.71749V4.56662C90.787 4.39624 90.6484 4.25885 90.4768 4.25885C90.3058 4.25885 90.1667 4.39624 90.1667 4.56662V7.71749C90.1667 7.88787 90.3058 8.02586 90.4768 8.02586C90.6484 8.02586 90.787 7.88787 90.787 7.71749ZM92.5034 7.71749V4.56662C92.5034 4.39624 92.3642 4.25885 92.1926 4.25885C92.0217 4.25885 91.8825 4.39624 91.8825 4.56662V7.71749C91.8825 7.88787 92.0217 8.02586 92.1926 8.02586C92.3642 8.02586 92.5034 7.88787 92.5034 7.71749ZM94.2666 7.71749V1.30837C94.2666 1.13799 94.128 1 93.9565 1C93.7849 1 93.6463 1.13799 93.6463 1.30837V7.71749C93.6463 7.88787 93.7855 8.02586 93.9565 8.02586C94.128 8.02586 94.2666 7.88787 94.2666 7.71749ZM102.913 7.71749V1.30837C102.913 1.13799 102.774 1 102.603 1C102.431 1 102.293 1.13799 102.293 1.30837V7.71749C102.293 7.88787 102.431 8.02586 102.603 8.02586C102.774 8.02586 102.913 7.88787 102.913 7.71749ZM96.0016 7.71749V4.56662C96.0016 4.39624 95.8624 4.25885 95.6915 4.25885C95.5199 4.25885 95.3813 4.39624 95.3813 4.56662V7.71749C95.3813 7.88787 95.5199 8.02586 95.6915 8.02586C95.8624 8.02586 96.0016 7.88787 96.0016 7.71749ZM97.7462 7.71749V4.56662C97.7462 4.39624 97.6071 4.25885 97.4361 4.25885C97.2645 4.25885 97.1259 4.39624 97.1259 4.56662V7.71749C97.1259 7.88787 97.2645 8.02586 97.4361 8.02586C97.6071 8.02586 97.7462 7.88787 97.7462 7.71749ZM99.4333 7.71749V4.56662C99.4333 4.39624 99.2947 4.25885 99.1231 4.25885C98.9521 4.25885 98.8129 4.39624 98.8129 4.56662V7.71749C98.8129 7.88787 98.9521 8.02586 99.1231 8.02586C99.2947 8.02586 99.4333 7.88787 99.4333 7.71749ZM101.149 7.71749V4.56662C101.149 4.39624 101.011 4.25885 100.839 4.25885C100.668 4.25885 100.529 4.39624 100.529 4.56662V7.71749C100.529 7.88787 100.668 8.02586 100.839 8.02586C101.011 8.02586 101.149 7.88787 101.149 7.71749ZM102.913 7.71749V1.30837C102.913 1.13799 102.774 1 102.603 1C102.431 1 102.293 1.13799 102.293 1.30837V7.71749C102.293 7.88787 102.431 8.02586 102.603 8.02586C102.774 8.02586 102.913 7.88787 102.913 7.71749ZM111.559 7.71749V1.30837C111.559 1.13799 111.42 1 111.248 1C111.077 1 110.938 1.13799 110.938 1.30837V7.71749C110.938 7.88787 111.077 8.02586 111.248 8.02586C111.42 8.02586 111.559 7.88787 111.559 7.71749ZM104.648 7.71749V4.56662C104.648 4.39624 104.509 4.25885 104.338 4.25885C104.166 4.25885 104.028 4.39624 104.028 4.56662V7.71749C104.028 7.88787 104.166 8.02586 104.338 8.02586C104.509 8.02586 104.648 7.88787 104.648 7.71749ZM106.392 7.71749V4.56662C106.392 4.39624 106.253 4.25885 106.082 4.25885C105.911 4.25885 105.772 4.39624 105.772 4.56662V7.71749C105.772 7.88787 105.911 8.02586 106.082 8.02586C106.253 8.02586 106.392 7.88787 106.392 7.71749ZM108.08 7.71749V4.56662C108.08 4.39624 107.94 4.25885 107.769 4.25885C107.598 4.25885 107.459 4.39624 107.459 4.56662V7.71749C107.459 7.88787 107.598 8.02586 107.769 8.02586C107.94 8.02586 108.08 7.88787 108.08 7.71749ZM109.795 7.71749V4.56662C109.795 4.39624 109.656 4.25885 109.485 4.25885C109.314 4.25885 109.175 4.39624 109.175 4.56662V7.71749C109.175 7.88787 109.314 8.02586 109.485 8.02586C109.656 8.02586 109.795 7.88787 109.795 7.71749ZM111.559 7.71749V1.30837C111.559 1.13799 111.42 1 111.248 1C111.077 1 110.938 1.13799 110.938 1.30837V7.71749C110.938 7.88787 111.077 8.02586 111.248 8.02586C111.42 8.02586 111.559 7.88787 111.559 7.71749ZM120.205 7.71749V1.30837C120.205 1.13799 120.066 1 119.895 1C119.724 1 119.585 1.13799 119.585 1.30837V7.71749C119.585 7.88787 119.724 8.02586 119.895 8.02586C120.066 8.02586 120.205 7.88787 120.205 7.71749ZM113.294 7.71749V4.56662C113.294 4.39624 113.155 4.25885 112.983 4.25885C112.812 4.25885 112.673 4.39624 112.673 4.56662V7.71749C112.673 7.88787 112.812 8.02586 112.983 8.02586C113.155 8.02586 113.294 7.88787 113.294 7.71749ZM115.038 7.71749V4.56662C115.038 4.39624 114.9 4.25885 114.728 4.25885C114.557 4.25885 114.418 4.39624 114.418 4.56662V7.71749C114.418 7.88787 114.557 8.02586 114.728 8.02586C114.9 8.02586 115.038 7.88787 115.038 7.71749ZM116.726 7.71749V4.56662C116.726 4.39624 116.587 4.25885 116.416 4.25885C116.244 4.25885 116.106 4.39624 116.106 4.56662V7.71749C116.106 7.88787 116.244 8.02586 116.416 8.02586C116.587 8.02586 116.726 7.88787 116.726 7.71749ZM118.442 7.71749V4.56662C118.442 4.39624 118.302 4.25885 118.131 4.25885C117.96 4.25885 117.821 4.39624 117.821 4.56662V7.71749C117.821 7.88787 117.96 8.02586 118.131 8.02586C118.302 8.02586 118.442 7.88787 118.442 7.71749ZM120.205 7.71749V1.30837C120.205 1.13799 120.066 1 119.895 1C119.724 1 119.585 1.13799 119.585 1.30837V7.71749C119.585 7.88787 119.724 8.02586 119.895 8.02586C120.066 8.02586 120.205 7.88787 120.205 7.71749ZM128.851 7.71749V1.30837C128.851 1.13799 128.712 1 128.541 1C128.369 1 128.231 1.13799 128.231 1.30837V7.71749C128.231 7.88787 128.369 8.02586 128.541 8.02586C128.712 8.02586 128.851 7.88787 128.851 7.71749ZM121.94 7.71749V4.56662C121.94 4.39624 121.801 4.25885 121.63 4.25885C121.458 4.25885 121.32 4.39624 121.32 4.56662V7.71749C121.32 7.88787 121.459 8.02586 121.63 8.02586C121.801 8.02586 121.94 7.88787 121.94 7.71749ZM123.684 7.71749V4.56662C123.684 4.39624 123.545 4.25885 123.374 4.25885C123.203 4.25885 123.064 4.39624 123.064 4.56662V7.71749C123.064 7.88787 123.203 8.02586 123.374 8.02586C123.545 8.02586 123.684 7.88787 123.684 7.71749ZM125.372 7.71749V4.56662C125.372 4.39624 125.233 4.25885 125.061 4.25885C124.89 4.25885 124.751 4.39624 124.751 4.56662V7.71749C124.751 7.88787 124.89 8.02586 125.061 8.02586C125.233 8.02586 125.372 7.88787 125.372 7.71749ZM127.087 7.71749V4.56662C127.087 4.39624 126.949 4.25885 126.777 4.25885C126.606 4.25885 126.467 4.39624 126.467 4.56662V7.71749C126.467 7.88787 126.606 8.02586 126.777 8.02586C126.949 8.02586 127.087 7.88787 127.087 7.71749ZM128.851 7.71749V1.30837C128.851 1.13799 128.712 1 128.541 1C128.369 1 128.231 1.13799 128.231 1.30837V7.71749C128.231 7.88787 128.369 8.02586 128.541 8.02586C128.712 8.02586 128.851 7.88787 128.851 7.71749ZM137.497 7.71749V1.30837C137.497 1.13799 137.358 1 137.187 1C137.016 1 136.877 1.13799 136.877 1.30837V7.71749C136.877 7.88787 137.016 8.02586 137.187 8.02586C137.358 8.02586 137.497 7.88787 137.497 7.71749ZM130.586 7.71749V4.56662C130.586 4.39624 130.447 4.25885 130.276 4.25885C130.104 4.25885 129.966 4.39624 129.966 4.56662V7.71749C129.966 7.88787 130.104 8.02586 130.276 8.02586C130.447 8.02586 130.586 7.88787 130.586 7.71749ZM132.33 7.71749V4.56662C132.33 4.39624 132.192 4.25885 132.02 4.25885C131.849 4.25885 131.71 4.39624 131.71 4.56662V7.71749C131.71 7.88787 131.849 8.02586 132.02 8.02586C132.192 8.02586 132.33 7.88787 132.33 7.71749ZM134.018 7.71749V4.56662C134.018 4.39624 133.879 4.25885 133.708 4.25885C133.536 4.25885 133.397 4.39624 133.397 4.56662V7.71749C133.397 7.88787 133.536 8.02586 133.708 8.02586C133.879 8.02586 134.018 7.88787 134.018 7.71749ZM135.734 7.71749V4.56662C135.734 4.39624 135.595 4.25885 135.423 4.25885C135.252 4.25885 135.113 4.39624 135.113 4.56662V7.71749C135.113 7.88787 135.252 8.02586 135.423 8.02586C135.595 8.02586 135.734 7.88787 135.734 7.71749ZM137.497 7.71749V1.30837C137.497 1.13799 137.358 1 137.187 1C137.016 1 136.877 1.13799 136.877 1.30837V7.71749C136.877 7.88787 137.016 8.02586 137.187 8.02586C137.358 8.02586 137.497 7.88787 137.497 7.71749ZM146.143 7.71749V1.30837C146.143 1.13799 146.005 1 145.833 1C145.662 1 145.523 1.13799 145.523 1.30837V7.71749C145.523 7.88787 145.662 8.02586 145.833 8.02586C146.005 8.02586 146.143 7.88787 146.143 7.71749ZM139.232 7.71749V4.56662C139.232 4.39624 139.093 4.25885 138.922 4.25885C138.751 4.25885 138.612 4.39624 138.612 4.56662V7.71749C138.612 7.88787 138.751 8.02586 138.922 8.02586C139.093 8.02586 139.232 7.88787 139.232 7.71749ZM140.976 7.71749V4.56662C140.976 4.39624 140.838 4.25885 140.666 4.25885C140.495 4.25885 140.356 4.39624 140.356 4.56662V7.71749C140.356 7.88787 140.495 8.02586 140.666 8.02586C140.838 8.02586 140.976 7.88787 140.976 7.71749ZM142.664 7.71749V4.56662C142.664 4.39624 142.525 4.25885 142.354 4.25885C142.182 4.25885 142.044 4.39624 142.044 4.56662V7.71749C142.044 7.88787 142.182 8.02586 142.354 8.02586C142.525 8.02586 142.664 7.88787 142.664 7.71749ZM144.38 7.71749V4.56662C144.38 4.39624 144.241 4.25885 144.07 4.25885C143.898 4.25885 143.76 4.39624 143.76 4.56662V7.71749C143.76 7.88787 143.898 8.02586 144.07 8.02586C144.241 8.02586 144.38 7.88787 144.38 7.71749ZM146.143 7.71749V1.30837C146.143 1.13799 146.005 1 145.833 1C145.662 1 145.523 1.13799 145.523 1.30837V7.71749C145.523 7.88787 145.662 8.02586 145.833 8.02586C146.005 8.02586 146.143 7.88787 146.143 7.71749ZM154.789 7.71749V1.30837C154.789 1.13799 154.65 1 154.479 1C154.308 1 154.169 1.13799 154.169 1.30837V7.71749C154.169 7.88787 154.308 8.02586 154.479 8.02586C154.65 8.02586 154.789 7.88787 154.789 7.71749ZM147.878 7.71749V4.56662C147.878 4.39624 147.74 4.25885 147.568 4.25885C147.397 4.25885 147.258 4.39624 147.258 4.56662V7.71749C147.258 7.88787 147.397 8.02586 147.568 8.02586C147.74 8.02586 147.878 7.88787 147.878 7.71749ZM149.623 7.71749V4.56662C149.623 4.39624 149.484 4.25885 149.313 4.25885C149.141 4.25885 149.002 4.39624 149.002 4.56662V7.71749C149.002 7.88787 149.141 8.02586 149.313 8.02586C149.484 8.02586 149.623 7.88787 149.623 7.71749ZM151.31 7.71749V4.56662C151.31 4.39624 151.171 4.25885 151 4.25885C150.829 4.25885 150.689 4.39624 150.689 4.56662V7.71749C150.689 7.88787 150.829 8.02586 151 8.02586C151.171 8.02586 151.31 7.88787 151.31 7.71749ZM153.026 7.71749V4.56662C153.026 4.39624 152.887 4.25885 152.715 4.25885C152.544 4.25885 152.405 4.39624 152.405 4.56662V7.71749C152.405 7.88787 152.544 8.02586 152.715 8.02586C152.887 8.02586 153.026 7.88787 153.026 7.71749ZM154.789 7.71749V1.30837C154.789 1.13799 154.65 1 154.479 1C154.308 1 154.169 1.13799 154.169 1.30837V7.71749C154.169 7.88787 154.308 8.02586 154.479 8.02586C154.65 8.02586 154.789 7.88787 154.789 7.71749ZM163.436 7.71749V1.30837C163.436 1.13799 163.297 1 163.126 1C162.954 1 162.815 1.13799 162.815 1.30837V7.71749C162.815 7.88787 162.954 8.02586 163.126 8.02586C163.297 8.02586 163.436 7.88787 163.436 7.71749ZM156.524 7.71749V4.56662C156.524 4.39624 156.385 4.25885 156.214 4.25885C156.043 4.25885 155.904 4.39624 155.904 4.56662V7.71749C155.904 7.88787 156.043 8.02586 156.214 8.02586C156.385 8.02586 156.524 7.88787 156.524 7.71749ZM158.269 7.71749V4.56662C158.269 4.39624 158.13 4.25885 157.959 4.25885C157.787 4.25885 157.648 4.39624 157.648 4.56662V7.71749C157.648 7.88787 157.787 8.02586 157.959 8.02586C158.13 8.02586 158.269 7.88787 158.269 7.71749ZM159.956 7.71749V4.56662C159.956 4.39624 159.817 4.25885 159.646 4.25885C159.474 4.25885 159.336 4.39624 159.336 4.56662V7.71749C159.336 7.88787 159.474 8.02586 159.646 8.02586C159.817 8.02586 159.956 7.88787 159.956 7.71749ZM161.672 7.71749V4.56662C161.672 4.39624 161.533 4.25885 161.362 4.25885C161.191 4.25885 161.052 4.39624 161.052 4.56662V7.71749C161.052 7.88787 161.191 8.02586 161.362 8.02586C161.533 8.02586 161.672 7.88787 161.672 7.71749ZM163.436 7.71749V1.30837C163.436 1.13799 163.297 1 163.126 1C162.954 1 162.815 1.13799 162.815 1.30837V7.71749C162.815 7.88787 162.954 8.02586 163.126 8.02586C163.297 8.02586 163.436 7.88787 163.436 7.71749ZM172.081 7.71749V1.30837C172.081 1.13799 171.943 1 171.771 1C171.6 1 171.461 1.13799 171.461 1.30837V7.71749C171.461 7.88787 171.6 8.02586 171.771 8.02586C171.943 8.02586 172.081 7.88787 172.081 7.71749ZM165.17 7.71749V4.56662C165.17 4.39624 165.032 4.25885 164.86 4.25885C164.689 4.25885 164.55 4.39624 164.55 4.56662V7.71749C164.55 7.88787 164.689 8.02586 164.86 8.02586C165.032 8.02586 165.17 7.88787 165.17 7.71749ZM166.915 7.71749V4.56662C166.915 4.39624 166.776 4.25885 166.605 4.25885C166.434 4.25885 166.294 4.39624 166.294 4.56662V7.71749C166.294 7.88787 166.434 8.02586 166.605 8.02586C166.776 8.02586 166.915 7.88787 166.915 7.71749ZM168.602 7.71749V4.56662C168.602 4.39624 168.463 4.25885 168.292 4.25885C168.121 4.25885 167.982 4.39624 167.982 4.56662V7.71749C167.982 7.88787 168.121 8.02586 168.292 8.02586C168.463 8.02586 168.602 7.88787 168.602 7.71749ZM170.318 7.71749V4.56662C170.318 4.39624 170.179 4.25885 170.008 4.25885C169.836 4.25885 169.698 4.39624 169.698 4.56662V7.71749C169.698 7.88787 169.836 8.02586 170.008 8.02586C170.179 8.02586 170.318 7.88787 170.318 7.71749Z" fill="black"/>
</g>
<g opacity="0.17" clip-path="url(#clip2_38_1607)">
<path d="M172.31 8.02586C172.139 8.02586 172 7.88787 172 7.71749V1.30837C172 1.13799 172.139 1 172.31 1C172.482 1 172.62 1.13799 172.62 1.30837V7.71749C172.62 7.88787 172.482 8.02586 172.31 8.02586ZM181.267 7.71749V1.30837C181.267 1.13799 181.128 1 180.956 1C180.785 1 180.646 1.13799 180.646 1.30837V7.71749C180.646 7.88787 180.785 8.02586 180.956 8.02586C181.128 8.02586 181.267 7.88787 181.267 7.71749ZM174.355 7.71749V4.56662C174.355 4.39624 174.217 4.25885 174.045 4.25885C173.874 4.25885 173.735 4.39624 173.735 4.56662V7.71749C173.735 7.88787 173.874 8.02586 174.045 8.02586C174.217 8.02586 174.355 7.88787 174.355 7.71749ZM176.1 7.71749V4.56662C176.1 4.39624 175.961 4.25885 175.79 4.25885C175.618 4.25885 175.48 4.39624 175.48 4.56662V7.71749C175.48 7.88787 175.618 8.02586 175.79 8.02586C175.961 8.02586 176.1 7.88787 176.1 7.71749ZM177.787 7.71749V4.56662C177.787 4.39624 177.648 4.25885 177.477 4.25885C177.306 4.25885 177.167 4.39624 177.167 4.56662V7.71749C177.167 7.88787 177.306 8.02586 177.477 8.02586C177.648 8.02586 177.787 7.88787 177.787 7.71749ZM179.503 7.71749V4.56662C179.503 4.39624 179.364 4.25885 179.193 4.25885C179.022 4.25885 178.882 4.39624 178.882 4.56662V7.71749C178.882 7.88787 179.022 8.02586 179.193 8.02586C179.364 8.02586 179.503 7.88787 179.503 7.71749ZM181.267 7.71749V1.30837C181.267 1.13799 181.128 1 180.956 1C180.785 1 180.646 1.13799 180.646 1.30837V7.71749C180.646 7.88787 180.785 8.02586 180.956 8.02586C181.128 8.02586 181.267 7.88787 181.267 7.71749ZM189.913 7.71749V1.30837C189.913 1.13799 189.774 1 189.603 1C189.431 1 189.293 1.13799 189.293 1.30837V7.71749C189.293 7.88787 189.431 8.02586 189.603 8.02586C189.774 8.02586 189.913 7.88787 189.913 7.71749ZM183.002 7.71749V4.56662C183.002 4.39624 182.862 4.25885 182.691 4.25885C182.52 4.25885 182.381 4.39624 182.381 4.56662V7.71749C182.381 7.88787 182.52 8.02586 182.691 8.02586C182.862 8.02586 183.002 7.88787 183.002 7.71749ZM184.746 7.71749V4.56662C184.746 4.39624 184.607 4.25885 184.436 4.25885C184.264 4.25885 184.126 4.39624 184.126 4.56662V7.71749C184.126 7.88787 184.264 8.02586 184.436 8.02586C184.607 8.02586 184.746 7.88787 184.746 7.71749ZM186.433 7.71749V4.56662C186.433 4.39624 186.295 4.25885 186.123 4.25885C185.952 4.25885 185.813 4.39624 185.813 4.56662V7.71749C185.813 7.88787 185.952 8.02586 186.123 8.02586C186.295 8.02586 186.433 7.88787 186.433 7.71749ZM188.149 7.71749V4.56662C188.149 4.39624 188.011 4.25885 187.839 4.25885C187.668 4.25885 187.529 4.39624 187.529 4.56662V7.71749C187.529 7.88787 187.668 8.02586 187.839 8.02586C188.011 8.02586 188.149 7.88787 188.149 7.71749ZM189.913 7.71749V1.30837C189.913 1.13799 189.774 1 189.603 1C189.431 1 189.293 1.13799 189.293 1.30837V7.71749C189.293 7.88787 189.431 8.02586 189.603 8.02586C189.774 8.02586 189.913 7.88787 189.913 7.71749ZM198.559 7.71749V1.30837C198.559 1.13799 198.42 1 198.248 1C198.077 1 197.938 1.13799 197.938 1.30837V7.71749C197.938 7.88787 198.077 8.02586 198.248 8.02586C198.42 8.02586 198.559 7.88787 198.559 7.71749ZM191.648 7.71749V4.56662C191.648 4.39624 191.509 4.25885 191.338 4.25885C191.166 4.25885 191.028 4.39624 191.028 4.56662V7.71749C191.028 7.88787 191.166 8.02586 191.338 8.02586C191.509 8.02586 191.648 7.88787 191.648 7.71749ZM193.392 7.71749V4.56662C193.392 4.39624 193.253 4.25885 193.082 4.25885C192.911 4.25885 192.772 4.39624 192.772 4.56662V7.71749C192.772 7.88787 192.911 8.02586 193.082 8.02586C193.253 8.02586 193.392 7.88787 193.392 7.71749ZM195.08 7.71749V4.56662C195.08 4.39624 194.94 4.25885 194.769 4.25885C194.598 4.25885 194.459 4.39624 194.459 4.56662V7.71749C194.459 7.88787 194.598 8.02586 194.769 8.02586C194.94 8.02586 195.08 7.88787 195.08 7.71749ZM196.795 7.71749V4.56662C196.795 4.39624 196.656 4.25885 196.485 4.25885C196.314 4.25885 196.175 4.39624 196.175 4.56662V7.71749C196.175 7.88787 196.314 8.02586 196.485 8.02586C196.656 8.02586 196.795 7.88787 196.795 7.71749ZM198.559 7.71749V1.30837C198.559 1.13799 198.42 1 198.248 1C198.077 1 197.938 1.13799 197.938 1.30837V7.71749C197.938 7.88787 198.077 8.02586 198.248 8.02586C198.42 8.02586 198.559 7.88787 198.559 7.71749ZM207.205 7.71749V1.30837C207.205 1.13799 207.066 1 206.895 1C206.724 1 206.585 1.13799 206.585 1.30837V7.71749C206.585 7.88787 206.724 8.02586 206.895 8.02586C207.066 8.02586 207.205 7.88787 207.205 7.71749ZM200.294 7.71749V4.56662C200.294 4.39624 200.155 4.25885 199.983 4.25885C199.812 4.25885 199.673 4.39624 199.673 4.56662V7.71749C199.673 7.88787 199.812 8.02586 199.983 8.02586C200.155 8.02586 200.294 7.88787 200.294 7.71749ZM202.038 7.71749V4.56662C202.038 4.39624 201.9 4.25885 201.728 4.25885C201.557 4.25885 201.418 4.39624 201.418 4.56662V7.71749C201.418 7.88787 201.557 8.02586 201.728 8.02586C201.9 8.02586 202.038 7.88787 202.038 7.71749ZM203.726 7.71749V4.56662C203.726 4.39624 203.587 4.25885 203.416 4.25885C203.244 4.25885 203.106 4.39624 203.106 4.56662V7.71749C203.106 7.88787 203.244 8.02586 203.416 8.02586C203.587 8.02586 203.726 7.88787 203.726 7.71749ZM205.442 7.71749V4.56662C205.442 4.39624 205.302 4.25885 205.131 4.25885C204.96 4.25885 204.821 4.39624 204.821 4.56662V7.71749C204.821 7.88787 204.96 8.02586 205.131 8.02586C205.302 8.02586 205.442 7.88787 205.442 7.71749ZM207.205 7.71749V1.30837C207.205 1.13799 207.066 1 206.895 1C206.724 1 206.585 1.13799 206.585 1.30837V7.71749C206.585 7.88787 206.724 8.02586 206.895 8.02586C207.066 8.02586 207.205 7.88787 207.205 7.71749ZM215.851 7.71749V1.30837C215.851 1.13799 215.712 1 215.541 1C215.369 1 215.231 1.13799 215.231 1.30837V7.71749C215.231 7.88787 215.369 8.02586 215.541 8.02586C215.712 8.02586 215.851 7.88787 215.851 7.71749ZM208.94 7.71749V4.56662C208.94 4.39624 208.801 4.25885 208.63 4.25885C208.458 4.25885 208.32 4.39624 208.32 4.56662V7.71749C208.32 7.88787 208.459 8.02586 208.63 8.02586C208.801 8.02586 208.94 7.88787 208.94 7.71749ZM210.684 7.71749V4.56662C210.684 4.39624 210.545 4.25885 210.374 4.25885C210.203 4.25885 210.064 4.39624 210.064 4.56662V7.71749C210.064 7.88787 210.203 8.02586 210.374 8.02586C210.545 8.02586 210.684 7.88787 210.684 7.71749ZM212.372 7.71749V4.56662C212.372 4.39624 212.233 4.25885 212.061 4.25885C211.89 4.25885 211.751 4.39624 211.751 4.56662V7.71749C211.751 7.88787 211.89 8.02586 212.061 8.02586C212.233 8.02586 212.372 7.88787 212.372 7.71749ZM214.087 7.71749V4.56662C214.087 4.39624 213.949 4.25885 213.777 4.25885C213.606 4.25885 213.467 4.39624 213.467 4.56662V7.71749C213.467 7.88787 213.606 8.02586 213.777 8.02586C213.949 8.02586 214.087 7.88787 214.087 7.71749ZM215.851 7.71749V1.30837C215.851 1.13799 215.712 1 215.541 1C215.369 1 215.231 1.13799 215.231 1.30837V7.71749C215.231 7.88787 215.369 8.02586 215.541 8.02586C215.712 8.02586 215.851 7.88787 215.851 7.71749ZM224.497 7.71749V1.30837C224.497 1.13799 224.358 1 224.187 1C224.016 1 223.877 1.13799 223.877 1.30837V7.71749C223.877 7.88787 224.016 8.02586 224.187 8.02586C224.358 8.02586 224.497 7.88787 224.497 7.71749ZM217.586 7.71749V4.56662C217.586 4.39624 217.447 4.25885 217.276 4.25885C217.104 4.25885 216.966 4.39624 216.966 4.56662V7.71749C216.966 7.88787 217.104 8.02586 217.276 8.02586C217.447 8.02586 217.586 7.88787 217.586 7.71749ZM219.33 7.71749V4.56662C219.33 4.39624 219.192 4.25885 219.02 4.25885C218.849 4.25885 218.71 4.39624 218.71 4.56662V7.71749C218.71 7.88787 218.849 8.02586 219.02 8.02586C219.192 8.02586 219.33 7.88787 219.33 7.71749ZM221.018 7.71749V4.56662C221.018 4.39624 220.879 4.25885 220.708 4.25885C220.536 4.25885 220.397 4.39624 220.397 4.56662V7.71749C220.397 7.88787 220.536 8.02586 220.708 8.02586C220.879 8.02586 221.018 7.88787 221.018 7.71749ZM222.734 7.71749V4.56662C222.734 4.39624 222.595 4.25885 222.423 4.25885C222.252 4.25885 222.113 4.39624 222.113 4.56662V7.71749C222.113 7.88787 222.252 8.02586 222.423 8.02586C222.595 8.02586 222.734 7.88787 222.734 7.71749ZM224.497 7.71749V1.30837C224.497 1.13799 224.358 1 224.187 1C224.016 1 223.877 1.13799 223.877 1.30837V7.71749C223.877 7.88787 224.016 8.02586 224.187 8.02586C224.358 8.02586 224.497 7.88787 224.497 7.71749ZM233.143 7.71749V1.30837C233.143 1.13799 233.005 1 232.833 1C232.662 1 232.523 1.13799 232.523 1.30837V7.71749C232.523 7.88787 232.662 8.02586 232.833 8.02586C233.005 8.02586 233.143 7.88787 233.143 7.71749ZM226.232 7.71749V4.56662C226.232 4.39624 226.093 4.25885 225.922 4.25885C225.751 4.25885 225.612 4.39624 225.612 4.56662V7.71749C225.612 7.88787 225.751 8.02586 225.922 8.02586C226.093 8.02586 226.232 7.88787 226.232 7.71749ZM227.976 7.71749V4.56662C227.976 4.39624 227.838 4.25885 227.666 4.25885C227.495 4.25885 227.356 4.39624 227.356 4.56662V7.71749C227.356 7.88787 227.495 8.02586 227.666 8.02586C227.838 8.02586 227.976 7.88787 227.976 7.71749ZM229.664 7.71749V4.56662C229.664 4.39624 229.525 4.25885 229.354 4.25885C229.182 4.25885 229.044 4.39624 229.044 4.56662V7.71749C229.044 7.88787 229.182 8.02586 229.354 8.02586C229.525 8.02586 229.664 7.88787 229.664 7.71749ZM231.38 7.71749V4.56662C231.38 4.39624 231.241 4.25885 231.07 4.25885C230.898 4.25885 230.76 4.39624 230.76 4.56662V7.71749C230.76 7.88787 230.898 8.02586 231.07 8.02586C231.241 8.02586 231.38 7.88787 231.38 7.71749ZM233.143 7.71749V1.30837C233.143 1.13799 233.005 1 232.833 1C232.662 1 232.523 1.13799 232.523 1.30837V7.71749C232.523 7.88787 232.662 8.02586 232.833 8.02586C233.005 8.02586 233.143 7.88787 233.143 7.71749ZM241.789 7.71749V1.30837C241.789 1.13799 241.65 1 241.479 1C241.308 1 241.169 1.13799 241.169 1.30837V7.71749C241.169 7.88787 241.308 8.02586 241.479 8.02586C241.65 8.02586 241.789 7.88787 241.789 7.71749ZM234.878 7.71749V4.56662C234.878 4.39624 234.74 4.25885 234.568 4.25885C234.397 4.25885 234.258 4.39624 234.258 4.56662V7.71749C234.258 7.88787 234.397 8.02586 234.568 8.02586C234.74 8.02586 234.878 7.88787 234.878 7.71749ZM236.623 7.71749V4.56662C236.623 4.39624 236.484 4.25885 236.313 4.25885C236.141 4.25885 236.002 4.39624 236.002 4.56662V7.71749C236.002 7.88787 236.141 8.02586 236.313 8.02586C236.484 8.02586 236.623 7.88787 236.623 7.71749ZM238.31 7.71749V4.56662C238.31 4.39624 238.171 4.25885 238 4.25885C237.829 4.25885 237.689 4.39624 237.689 4.56662V7.71749C237.689 7.88787 237.829 8.02586 238 8.02586C238.171 8.02586 238.31 7.88787 238.31 7.71749ZM240.026 7.71749V4.56662C240.026 4.39624 239.887 4.25885 239.715 4.25885C239.544 4.25885 239.405 4.39624 239.405 4.56662V7.71749C239.405 7.88787 239.544 8.02586 239.715 8.02586C239.887 8.02586 240.026 7.88787 240.026 7.71749ZM241.789 7.71749V1.30837C241.789 1.13799 241.65 1 241.479 1C241.308 1 241.169 1.13799 241.169 1.30837V7.71749C241.169 7.88787 241.308 8.02586 241.479 8.02586C241.65 8.02586 241.789 7.88787 241.789 7.71749ZM250.436 7.71749V1.30837C250.436 1.13799 250.297 1 250.126 1C249.954 1 249.815 1.13799 249.815 1.30837V7.71749C249.815 7.88787 249.954 8.02586 250.126 8.02586C250.297 8.02586 250.436 7.88787 250.436 7.71749ZM243.524 7.71749V4.56662C243.524 4.39624 243.385 4.25885 243.214 4.25885C243.043 4.25885 242.904 4.39624 242.904 4.56662V7.71749C242.904 7.88787 243.043 8.02586 243.214 8.02586C243.385 8.02586 243.524 7.88787 243.524 7.71749ZM245.269 7.71749V4.56662C245.269 4.39624 245.13 4.25885 244.959 4.25885C244.787 4.25885 244.648 4.39624 244.648 4.56662V7.71749C244.648 7.88787 244.787 8.02586 244.959 8.02586C245.13 8.02586 245.269 7.88787 245.269 7.71749ZM246.956 7.71749V4.56662C246.956 4.39624 246.817 4.25885 246.646 4.25885C246.474 4.25885 246.336 4.39624 246.336 4.56662V7.71749C246.336 7.88787 246.474 8.02586 246.646 8.02586C246.817 8.02586 246.956 7.88787 246.956 7.71749ZM248.672 7.71749V4.56662C248.672 4.39624 248.533 4.25885 248.362 4.25885C248.191 4.25885 248.052 4.39624 248.052 4.56662V7.71749C248.052 7.88787 248.191 8.02586 248.362 8.02586C248.533 8.02586 248.672 7.88787 248.672 7.71749ZM250.436 7.71749V1.30837C250.436 1.13799 250.297 1 250.126 1C249.954 1 249.815 1.13799 249.815 1.30837V7.71749C249.815 7.88787 249.954 8.02586 250.126 8.02586C250.297 8.02586 250.436 7.88787 250.436 7.71749ZM259.081 7.71749V1.30837C259.081 1.13799 258.943 1 258.771 1C258.6 1 258.461 1.13799 258.461 1.30837V7.71749C258.461 7.88787 258.6 8.02586 258.771 8.02586C258.943 8.02586 259.081 7.88787 259.081 7.71749ZM252.17 7.71749V4.56662C252.17 4.39624 252.032 4.25885 251.86 4.25885C251.689 4.25885 251.55 4.39624 251.55 4.56662V7.71749C251.55 7.88787 251.689 8.02586 251.86 8.02586C252.032 8.02586 252.17 7.88787 252.17 7.71749ZM253.915 7.71749V4.56662C253.915 4.39624 253.776 4.25885 253.605 4.25885C253.434 4.25885 253.294 4.39624 253.294 4.56662V7.71749C253.294 7.88787 253.434 8.02586 253.605 8.02586C253.776 8.02586 253.915 7.88787 253.915 7.71749ZM255.602 7.71749V4.56662C255.602 4.39624 255.463 4.25885 255.292 4.25885C255.121 4.25885 254.982 4.39624 254.982 4.56662V7.71749C254.982 7.88787 255.121 8.02586 255.292 8.02586C255.463 8.02586 255.602 7.88787 255.602 7.71749ZM257.318 7.71749V4.56662C257.318 4.39624 257.179 4.25885 257.008 4.25885C256.836 4.25885 256.698 4.39624 256.698 4.56662V7.71749C256.698 7.88787 256.836 8.02586 257.008 8.02586C257.179 8.02586 257.318 7.88787 257.318 7.71749Z" fill="black"/>
</g>
<g opacity="0.17" clip-path="url(#clip3_38_1607)">
<path d="M259.31 8.02586C259.139 8.02586 259 7.88787 259 7.71749V1.30837C259 1.13799 259.139 1 259.31 1C259.482 1 259.62 1.13799 259.62 1.30837V7.71749C259.62 7.88787 259.482 8.02586 259.31 8.02586ZM268.267 7.71749V1.30837C268.267 1.13799 268.128 1 267.956 1C267.785 1 267.646 1.13799 267.646 1.30837V7.71749C267.646 7.88787 267.785 8.02586 267.956 8.02586C268.128 8.02586 268.267 7.88787 268.267 7.71749ZM261.355 7.71749V4.56662C261.355 4.39624 261.217 4.25885 261.045 4.25885C260.874 4.25885 260.735 4.39624 260.735 4.56662V7.71749C260.735 7.88787 260.874 8.02586 261.045 8.02586C261.217 8.02586 261.355 7.88787 261.355 7.71749ZM263.1 7.71749V4.56662C263.1 4.39624 262.961 4.25885 262.79 4.25885C262.618 4.25885 262.48 4.39624 262.48 4.56662V7.71749C262.48 7.88787 262.618 8.02586 262.79 8.02586C262.961 8.02586 263.1 7.88787 263.1 7.71749ZM264.787 7.71749V4.56662C264.787 4.39624 264.648 4.25885 264.477 4.25885C264.306 4.25885 264.167 4.39624 264.167 4.56662V7.71749C264.167 7.88787 264.306 8.02586 264.477 8.02586C264.648 8.02586 264.787 7.88787 264.787 7.71749ZM266.503 7.71749V4.56662C266.503 4.39624 266.364 4.25885 266.193 4.25885C266.022 4.25885 265.882 4.39624 265.882 4.56662V7.71749C265.882 7.88787 266.022 8.02586 266.193 8.02586C266.364 8.02586 266.503 7.88787 266.503 7.71749ZM268.267 7.71749V1.30837C268.267 1.13799 268.128 1 267.956 1C267.785 1 267.646 1.13799 267.646 1.30837V7.71749C267.646 7.88787 267.785 8.02586 267.956 8.02586C268.128 8.02586 268.267 7.88787 268.267 7.71749ZM276.913 7.71749V1.30837C276.913 1.13799 276.774 1 276.603 1C276.431 1 276.293 1.13799 276.293 1.30837V7.71749C276.293 7.88787 276.431 8.02586 276.603 8.02586C276.774 8.02586 276.913 7.88787 276.913 7.71749ZM270.002 7.71749V4.56662C270.002 4.39624 269.862 4.25885 269.691 4.25885C269.52 4.25885 269.381 4.39624 269.381 4.56662V7.71749C269.381 7.88787 269.52 8.02586 269.691 8.02586C269.862 8.02586 270.002 7.88787 270.002 7.71749ZM271.746 7.71749V4.56662C271.746 4.39624 271.607 4.25885 271.436 4.25885C271.264 4.25885 271.126 4.39624 271.126 4.56662V7.71749C271.126 7.88787 271.264 8.02586 271.436 8.02586C271.607 8.02586 271.746 7.88787 271.746 7.71749ZM273.433 7.71749V4.56662C273.433 4.39624 273.295 4.25885 273.123 4.25885C272.952 4.25885 272.813 4.39624 272.813 4.56662V7.71749C272.813 7.88787 272.952 8.02586 273.123 8.02586C273.295 8.02586 273.433 7.88787 273.433 7.71749ZM275.149 7.71749V4.56662C275.149 4.39624 275.011 4.25885 274.839 4.25885C274.668 4.25885 274.529 4.39624 274.529 4.56662V7.71749C274.529 7.88787 274.668 8.02586 274.839 8.02586C275.011 8.02586 275.149 7.88787 275.149 7.71749ZM276.913 7.71749V1.30837C276.913 1.13799 276.774 1 276.603 1C276.431 1 276.293 1.13799 276.293 1.30837V7.71749C276.293 7.88787 276.431 8.02586 276.603 8.02586C276.774 8.02586 276.913 7.88787 276.913 7.71749ZM285.559 7.71749V1.30837C285.559 1.13799 285.42 1 285.248 1C285.077 1 284.938 1.13799 284.938 1.30837V7.71749C284.938 7.88787 285.077 8.02586 285.248 8.02586C285.42 8.02586 285.559 7.88787 285.559 7.71749ZM278.648 7.71749V4.56662C278.648 4.39624 278.509 4.25885 278.338 4.25885C278.166 4.25885 278.028 4.39624 278.028 4.56662V7.71749C278.028 7.88787 278.166 8.02586 278.338 8.02586C278.509 8.02586 278.648 7.88787 278.648 7.71749ZM280.392 7.71749V4.56662C280.392 4.39624 280.253 4.25885 280.082 4.25885C279.911 4.25885 279.772 4.39624 279.772 4.56662V7.71749C279.772 7.88787 279.911 8.02586 280.082 8.02586C280.253 8.02586 280.392 7.88787 280.392 7.71749ZM282.08 7.71749V4.56662C282.08 4.39624 281.94 4.25885 281.769 4.25885C281.598 4.25885 281.459 4.39624 281.459 4.56662V7.71749C281.459 7.88787 281.598 8.02586 281.769 8.02586C281.94 8.02586 282.08 7.88787 282.08 7.71749ZM283.795 7.71749V4.56662C283.795 4.39624 283.656 4.25885 283.485 4.25885C283.314 4.25885 283.175 4.39624 283.175 4.56662V7.71749C283.175 7.88787 283.314 8.02586 283.485 8.02586C283.656 8.02586 283.795 7.88787 283.795 7.71749ZM285.559 7.71749V1.30837C285.559 1.13799 285.42 1 285.248 1C285.077 1 284.938 1.13799 284.938 1.30837V7.71749C284.938 7.88787 285.077 8.02586 285.248 8.02586C285.42 8.02586 285.559 7.88787 285.559 7.71749ZM294.205 7.71749V1.30837C294.205 1.13799 294.066 1 293.895 1C293.724 1 293.585 1.13799 293.585 1.30837V7.71749C293.585 7.88787 293.724 8.02586 293.895 8.02586C294.066 8.02586 294.205 7.88787 294.205 7.71749ZM287.294 7.71749V4.56662C287.294 4.39624 287.155 4.25885 286.983 4.25885C286.812 4.25885 286.673 4.39624 286.673 4.56662V7.71749C286.673 7.88787 286.812 8.02586 286.983 8.02586C287.155 8.02586 287.294 7.88787 287.294 7.71749ZM289.038 7.71749V4.56662C289.038 4.39624 288.9 4.25885 288.728 4.25885C288.557 4.25885 288.418 4.39624 288.418 4.56662V7.71749C288.418 7.88787 288.557 8.02586 288.728 8.02586C288.9 8.02586 289.038 7.88787 289.038 7.71749ZM290.726 7.71749V4.56662C290.726 4.39624 290.587 4.25885 290.416 4.25885C290.244 4.25885 290.106 4.39624 290.106 4.56662V7.71749C290.106 7.88787 290.244 8.02586 290.416 8.02586C290.587 8.02586 290.726 7.88787 290.726 7.71749ZM292.442 7.71749V4.56662C292.442 4.39624 292.302 4.25885 292.131 4.25885C291.96 4.25885 291.821 4.39624 291.821 4.56662V7.71749C291.821 7.88787 291.96 8.02586 292.131 8.02586C292.302 8.02586 292.442 7.88787 292.442 7.71749ZM294.205 7.71749V1.30837C294.205 1.13799 294.066 1 293.895 1C293.724 1 293.585 1.13799 293.585 1.30837V7.71749C293.585 7.88787 293.724 8.02586 293.895 8.02586C294.066 8.02586 294.205 7.88787 294.205 7.71749ZM302.851 7.71749V1.30837C302.851 1.13799 302.712 1 302.541 1C302.369 1 302.231 1.13799 302.231 1.30837V7.71749C302.231 7.88787 302.369 8.02586 302.541 8.02586C302.712 8.02586 302.851 7.88787 302.851 7.71749ZM295.94 7.71749V4.56662C295.94 4.39624 295.801 4.25885 295.63 4.25885C295.458 4.25885 295.32 4.39624 295.32 4.56662V7.71749C295.32 7.88787 295.459 8.02586 295.63 8.02586C295.801 8.02586 295.94 7.88787 295.94 7.71749ZM297.684 7.71749V4.56662C297.684 4.39624 297.545 4.25885 297.374 4.25885C297.203 4.25885 297.064 4.39624 297.064 4.56662V7.71749C297.064 7.88787 297.203 8.02586 297.374 8.02586C297.545 8.02586 297.684 7.88787 297.684 7.71749ZM299.372 7.71749V4.56662C299.372 4.39624 299.233 4.25885 299.061 4.25885C298.89 4.25885 298.751 4.39624 298.751 4.56662V7.71749C298.751 7.88787 298.89 8.02586 299.061 8.02586C299.233 8.02586 299.372 7.88787 299.372 7.71749ZM301.087 7.71749V4.56662C301.087 4.39624 300.949 4.25885 300.777 4.25885C300.606 4.25885 300.467 4.39624 300.467 4.56662V7.71749C300.467 7.88787 300.606 8.02586 300.777 8.02586C300.949 8.02586 301.087 7.88787 301.087 7.71749ZM302.851 7.71749V1.30837C302.851 1.13799 302.712 1 302.541 1C302.369 1 302.231 1.13799 302.231 1.30837V7.71749C302.231 7.88787 302.369 8.02586 302.541 8.02586C302.712 8.02586 302.851 7.88787 302.851 7.71749ZM311.497 7.71749V1.30837C311.497 1.13799 311.358 1 311.187 1C311.016 1 310.877 1.13799 310.877 1.30837V7.71749C310.877 7.88787 311.016 8.02586 311.187 8.02586C311.358 8.02586 311.497 7.88787 311.497 7.71749ZM304.586 7.71749V4.56662C304.586 4.39624 304.447 4.25885 304.276 4.25885C304.104 4.25885 303.966 4.39624 303.966 4.56662V7.71749C303.966 7.88787 304.104 8.02586 304.276 8.02586C304.447 8.02586 304.586 7.88787 304.586 7.71749ZM306.33 7.71749V4.56662C306.33 4.39624 306.192 4.25885 306.02 4.25885C305.849 4.25885 305.71 4.39624 305.71 4.56662V7.71749C305.71 7.88787 305.849 8.02586 306.02 8.02586C306.192 8.02586 306.33 7.88787 306.33 7.71749ZM308.018 7.71749V4.56662C308.018 4.39624 307.879 4.25885 307.708 4.25885C307.536 4.25885 307.397 4.39624 307.397 4.56662V7.71749C307.397 7.88787 307.536 8.02586 307.708 8.02586C307.879 8.02586 308.018 7.88787 308.018 7.71749ZM309.734 7.71749V4.56662C309.734 4.39624 309.595 4.25885 309.423 4.25885C309.252 4.25885 309.113 4.39624 309.113 4.56662V7.71749C309.113 7.88787 309.252 8.02586 309.423 8.02586C309.595 8.02586 309.734 7.88787 309.734 7.71749ZM311.497 7.71749V1.30837C311.497 1.13799 311.358 1 311.187 1C311.016 1 310.877 1.13799 310.877 1.30837V7.71749C310.877 7.88787 311.016 8.02586 311.187 8.02586C311.358 8.02586 311.497 7.88787 311.497 7.71749ZM320.143 7.71749V1.30837C320.143 1.13799 320.005 1 319.833 1C319.662 1 319.523 1.13799 319.523 1.30837V7.71749C319.523 7.88787 319.662 8.02586 319.833 8.02586C320.005 8.02586 320.143 7.88787 320.143 7.71749ZM313.232 7.71749V4.56662C313.232 4.39624 313.093 4.25885 312.922 4.25885C312.751 4.25885 312.612 4.39624 312.612 4.56662V7.71749C312.612 7.88787 312.751 8.02586 312.922 8.02586C313.093 8.02586 313.232 7.88787 313.232 7.71749ZM314.976 7.71749V4.56662C314.976 4.39624 314.838 4.25885 314.666 4.25885C314.495 4.25885 314.356 4.39624 314.356 4.56662V7.71749C314.356 7.88787 314.495 8.02586 314.666 8.02586C314.838 8.02586 314.976 7.88787 314.976 7.71749ZM316.664 7.71749V4.56662C316.664 4.39624 316.525 4.25885 316.354 4.25885C316.182 4.25885 316.044 4.39624 316.044 4.56662V7.71749C316.044 7.88787 316.182 8.02586 316.354 8.02586C316.525 8.02586 316.664 7.88787 316.664 7.71749ZM318.38 7.71749V4.56662C318.38 4.39624 318.241 4.25885 318.07 4.25885C317.898 4.25885 317.76 4.39624 317.76 4.56662V7.71749C317.76 7.88787 317.898 8.02586 318.07 8.02586C318.241 8.02586 318.38 7.88787 318.38 7.71749ZM320.143 7.71749V1.30837C320.143 1.13799 320.005 1 319.833 1C319.662 1 319.523 1.13799 319.523 1.30837V7.71749C319.523 7.88787 319.662 8.02586 319.833 8.02586C320.005 8.02586 320.143 7.88787 320.143 7.71749ZM328.789 7.71749V1.30837C328.789 1.13799 328.65 1 328.479 1C328.308 1 328.169 1.13799 328.169 1.30837V7.71749C328.169 7.88787 328.308 8.02586 328.479 8.02586C328.65 8.02586 328.789 7.88787 328.789 7.71749ZM321.878 7.71749V4.56662C321.878 4.39624 321.74 4.25885 321.568 4.25885C321.397 4.25885 321.258 4.39624 321.258 4.56662V7.71749C321.258 7.88787 321.397 8.02586 321.568 8.02586C321.74 8.02586 321.878 7.88787 321.878 7.71749ZM323.623 7.71749V4.56662C323.623 4.39624 323.484 4.25885 323.313 4.25885C323.141 4.25885 323.002 4.39624 323.002 4.56662V7.71749C323.002 7.88787 323.141 8.02586 323.313 8.02586C323.484 8.02586 323.623 7.88787 323.623 7.71749ZM325.31 7.71749V4.56662C325.31 4.39624 325.171 4.25885 325 4.25885C324.829 4.25885 324.689 4.39624 324.689 4.56662V7.71749C324.689 7.88787 324.829 8.02586 325 8.02586C325.171 8.02586 325.31 7.88787 325.31 7.71749ZM327.026 7.71749V4.56662C327.026 4.39624 326.887 4.25885 326.715 4.25885C326.544 4.25885 326.405 4.39624 326.405 4.56662V7.71749C326.405 7.88787 326.544 8.02586 326.715 8.02586C326.887 8.02586 327.026 7.88787 327.026 7.71749ZM328.789 7.71749V1.30837C328.789 1.13799 328.65 1 328.479 1C328.308 1 328.169 1.13799 328.169 1.30837V7.71749C328.169 7.88787 328.308 8.02586 328.479 8.02586C328.65 8.02586 328.789 7.88787 328.789 7.71749ZM337.436 7.71749V1.30837C337.436 1.13799 337.297 1 337.126 1C336.954 1 336.815 1.13799 336.815 1.30837V7.71749C336.815 7.88787 336.954 8.02586 337.126 8.02586C337.297 8.02586 337.436 7.88787 337.436 7.71749ZM330.524 7.71749V4.56662C330.524 4.39624 330.385 4.25885 330.214 4.25885C330.043 4.25885 329.904 4.39624 329.904 4.56662V7.71749C329.904 7.88787 330.043 8.02586 330.214 8.02586C330.385 8.02586 330.524 7.88787 330.524 7.71749ZM332.269 7.71749V4.56662C332.269 4.39624 332.13 4.25885 331.959 4.25885C331.787 4.25885 331.648 4.39624 331.648 4.56662V7.71749C331.648 7.88787 331.787 8.02586 331.959 8.02586C332.13 8.02586 332.269 7.88787 332.269 7.71749ZM333.956 7.71749V4.56662C333.956 4.39624 333.817 4.25885 333.646 4.25885C333.474 4.25885 333.336 4.39624 333.336 4.56662V7.71749C333.336 7.88787 333.474 8.02586 333.646 8.02586C333.817 8.02586 333.956 7.88787 333.956 7.71749ZM335.672 7.71749V4.56662C335.672 4.39624 335.533 4.25885 335.362 4.25885C335.191 4.25885 335.052 4.39624 335.052 4.56662V7.71749C335.052 7.88787 335.191 8.02586 335.362 8.02586C335.533 8.02586 335.672 7.88787 335.672 7.71749ZM337.436 7.71749V1.30837C337.436 1.13799 337.297 1 337.126 1C336.954 1 336.815 1.13799 336.815 1.30837V7.71749C336.815 7.88787 336.954 8.02586 337.126 8.02586C337.297 8.02586 337.436 7.88787 337.436 7.71749ZM346.081 7.71749V1.30837C346.081 1.13799 345.943 1 345.771 1C345.6 1 345.461 1.13799 345.461 1.30837V7.71749C345.461 7.88787 345.6 8.02586 345.771 8.02586C345.943 8.02586 346.081 7.88787 346.081 7.71749ZM339.17 7.71749V4.56662C339.17 4.39624 339.032 4.25885 338.86 4.25885C338.689 4.25885 338.55 4.39624 338.55 4.56662V7.71749C338.55 7.88787 338.689 8.02586 338.86 8.02586C339.032 8.02586 339.17 7.88787 339.17 7.71749ZM340.915 7.71749V4.56662C340.915 4.39624 340.776 4.25885 340.605 4.25885C340.434 4.25885 340.294 4.39624 340.294 4.56662V7.71749C340.294 7.88787 340.434 8.02586 340.605 8.02586C340.776 8.02586 340.915 7.88787 340.915 7.71749ZM342.602 7.71749V4.56662C342.602 4.39624 342.463 4.25885 342.292 4.25885C342.121 4.25885 341.982 4.39624 341.982 4.56662V7.71749C341.982 7.88787 342.121 8.02586 342.292 8.02586C342.463 8.02586 342.602 7.88787 342.602 7.71749ZM344.318 7.71749V4.56662C344.318 4.39624 344.179 4.25885 344.008 4.25885C343.836 4.25885 343.698 4.39624 343.698 4.56662V7.71749C343.698 7.88787 343.836 8.02586 344.008 8.02586C344.179 8.02586 344.318 7.88787 344.318 7.71749Z" fill="black"/>
</g>
<defs>
<clipPath id="clip0_38_1607">
<rect width="87" height="9" fill="white"/>
</clipPath>
<clipPath id="clip1_38_1607">
<rect width="87" height="9" fill="white" transform="translate(86)"/>
</clipPath>
<clipPath id="clip2_38_1607">
<rect width="87" height="9" fill="white" transform="translate(173)"/>
</clipPath>
<clipPath id="clip3_38_1607">
<rect width="87" height="9" fill="white" transform="translate(260)"/>
</clipPath>
</defs>
</svg>
