<svg width="14" height="10" viewBox="0 0 14 10" fill="none" xmlns="http://www.w3.org/2000/svg">
<path d="M13.4733 3.19329L10.8067 0.526628C10.7445 0.464469 10.6707 0.415161 10.5895 0.381521C10.5083 0.347881 10.4212 0.330566 10.3333 0.330566C10.1558 0.330566 9.98553 0.401092 9.85999 0.526628C9.73446 0.652163 9.66393 0.822426 9.66393 0.999961C9.66393 1.1775 9.73446 1.34776 9.85999 1.47329L11.3933 2.99996H3.66666C3.48985 2.99996 3.32028 3.0702 3.19525 3.19522C3.07023 3.32025 2.99999 3.48982 2.99999 3.66663C2.99999 3.84344 3.07023 4.01301 3.19525 4.13803C3.32028 4.26306 3.48985 4.33329 3.66666 4.33329H13C13.1316 4.33264 13.2601 4.29304 13.3692 4.21948C13.4784 4.14592 13.5633 4.04171 13.6133 3.91996C13.6644 3.79855 13.6783 3.66474 13.6534 3.53542C13.6285 3.40609 13.5658 3.28704 13.4733 3.19329ZM10.3333 5.66663H0.999991C0.868374 5.66728 0.739897 5.70689 0.63075 5.78044C0.521603 5.854 0.436671 5.95822 0.386658 6.07996C0.335605 6.20137 0.321657 6.33518 0.346573 6.4645C0.371489 6.59383 0.434153 6.71288 0.526658 6.80663L3.19332 9.47329C3.2553 9.53578 3.32903 9.58538 3.41027 9.61922C3.49151 9.65307 3.57865 9.67049 3.66666 9.67049C3.75467 9.67049 3.8418 9.65307 3.92304 9.61922C4.00428 9.58538 4.07802 9.53578 4.13999 9.47329C4.20248 9.41132 4.25207 9.33758 4.28592 9.25635C4.31976 9.17511 4.33719 9.08797 4.33719 8.99996C4.33719 8.91195 4.31976 8.82482 4.28592 8.74358C4.25207 8.66234 4.20248 8.5886 4.13999 8.52663L2.60666 6.99996H10.3333C10.5101 6.99996 10.6797 6.92972 10.8047 6.8047C10.9298 6.67968 11 6.51011 11 6.33329C11 6.15648 10.9298 5.98691 10.8047 5.86189C10.6797 5.73687 10.5101 5.66663 10.3333 5.66663Z" fill="black"/>
</svg>
