<svg width="55" height="56" viewBox="0 0 55 56" fill="none" xmlns="http://www.w3.org/2000/svg">
<g filter="url(#filter0_d_28_812)">
<g clip-path="url(#clip0_28_812)">
<rect x="4" width="46.4516" height="48" rx="23.2258" fill="white"/>
<g opacity="0.59" filter="url(#filter1_f_28_812)">
<rect x="6.06445" y="28.3871" width="46.4516" height="28.9032" fill="#FF0000"/>
</g>
<path d="M55.8804 30.3604C55.8804 30.7268 55.6951 31.037 55.4211 31.2013L51.0017 33.7585C50.0662 34.2989 49.0405 34.568 48.0138 34.568C46.9881 34.568 45.9629 34.2989 45.028 33.759C43.1571 32.6799 42.0412 30.7457 42.0412 28.5868V18.6012C42.0412 17.4004 41.2344 16.8049 40.888 16.6055C40.5416 16.405 39.6234 16.0046 38.5837 16.606L36.3772 17.8809L34.542 14.7043L36.7485 13.4295C38.6183 12.3493 40.8518 12.3493 42.7221 13.429C44.593 14.5082 45.7089 16.4423 45.7089 18.6012V28.5868C45.7089 29.7876 46.5147 30.3831 46.8616 30.5825C47.208 30.7819 48.1267 31.1829 49.1664 30.5825L53.6151 28.0113C53.8728 27.8713 54.1992 27.8697 54.5111 28.0324C55.4724 28.5376 55.8804 29.6439 55.8804 30.3604Z" fill="#FF3131"/>
<path d="M28.5478 22.9299L26.075 18.4629L34.4815 13.6063C34.8825 13.3717 35.4007 13.3609 35.893 13.6187C36.575 13.9764 37.0754 14.5309 37.4164 15.1324L28.7478 20.1371L29.5335 20.9061C28.9499 21.4092 28.6051 22.1593 28.5478 22.9299Z" fill="#E19797"/>
<path d="M37.9963 17.1919C37.9963 17.7582 37.7083 18.2381 37.2813 18.4877L33.6347 20.5948C33.666 20.772 33.6839 20.9536 33.6839 21.1374V21.8102C33.6839 22.7542 33.1802 23.627 32.362 24.0999L22.3148 29.9006L21.334 28.7792L22.4553 25.8432L28.6759 22.2517C28.8337 21.734 29.1245 21.2589 29.5336 20.9055L28.7478 20.1365L37.4164 15.1313C37.8147 15.8327 37.9963 16.599 37.9963 17.1919Z" fill="#FF3131"/>
<path d="M21.3342 28.7781L15.2773 21.8539L25.4899 15.9565C26.2016 15.5458 27.0798 15.5458 27.791 15.9565L32.1445 18.4699C32.8286 18.8655 32.8286 19.8528 32.1445 20.2473L22.4555 25.8416L21.3342 28.7781Z" fill="#F0F7FE"/>
<path d="M14.842 24.2241V22.6364C14.842 21.9263 15.61 21.4832 16.2249 21.8377L21.4939 24.8802C22.3067 25.3493 22.8082 26.2172 22.8082 27.1564V29.0402C22.8082 29.8081 21.9765 30.2891 21.3118 29.9049L20.7152 29.5606" fill="#E19797"/>
<path d="M21.0235 25.7108C21.0235 26.5144 21.1435 26.9208 21.7001 27.2796V28.9905L17.1455 31.6201L15.6924 29.4979L16.4684 27.8865" fill="#FF3131"/>
<path d="M17.1455 29.9103V31.6207L11.3945 28.3004V26.5895C11.6955 26.7635 12.0711 26.5468 12.0711 26.1993V25.8243L16.4527 28.3323L16.4695 28.7387C16.4684 29.2223 16.7273 29.6687 17.1455 29.9103Z" fill="#E19797"/>
<path d="M21.0232 25.7108L16.4681 28.3415L12.0708 25.8243L16.6475 23.1823L21.0232 25.7108Z" fill="#F0F7FE"/>
<mask id="mask0_28_812" style="mask-type:luminance" maskUnits="userSpaceOnUse" x="11" y="12" width="46" height="23">
<path d="M11.2261 12.3871H56.0495V34.7237H11.2261V12.3871Z" fill="white"/>
</mask>
<g mask="url(#mask0_28_812)">
<path d="M54.5718 27.9146C54.2302 27.7357 53.8579 27.7276 53.5472 27.8956L49.0985 30.4669C48.1188 31.0338 47.2541 30.656 46.9272 30.4669C46.6008 30.2783 45.8415 29.7179 45.8415 28.5868V18.6012C45.8415 16.3931 44.7002 14.4169 42.7877 13.3123C40.8757 12.2088 38.5925 12.2088 36.6806 13.3133L36.158 13.616C36.0915 13.5754 36.0245 13.536 35.9548 13.4998C35.4328 13.2258 34.8718 13.222 34.4152 13.4895L29.1025 16.559L27.8579 15.8408C27.1073 15.408 26.1746 15.408 25.4234 15.8408L15.2497 21.7161C15.2449 21.7188 15.2405 21.7199 15.2367 21.7226C15.2324 21.7253 15.2292 21.728 15.2254 21.7307L15.2119 21.7388L15.213 21.7393C14.8985 21.9328 14.7109 22.2646 14.7109 22.6364V24.1474L11.9376 25.7475V26.1307L11.261 26.5117V28.3771L17.1455 31.7747L20.7138 29.7147L21.2439 30.0205C21.4211 30.1227 21.6152 30.1735 21.8092 30.1735C22.0037 30.1735 22.1977 30.1227 22.375 30.0205C22.3777 30.0189 22.3793 30.0167 22.382 30.0162L32.4292 24.2149C33.2857 23.721 33.8175 22.7991 33.8175 21.8101V21.1373C33.8175 20.9779 33.804 20.8196 33.7808 20.6634L37.3485 18.6023C37.83 18.3202 38.1289 17.7787 38.1289 17.1908C38.1289 17.1373 38.1272 17.0816 38.1235 17.0243L38.6487 16.7206C39.629 16.1543 40.4937 16.532 40.8206 16.7206C41.147 16.9097 41.9063 17.4701 41.9063 18.6012V28.5868C41.9063 30.7949 43.0471 32.7712 44.9601 33.8747C45.8983 34.4162 46.9531 34.7015 48.0123 34.7015C48.0123 34.7015 48.0123 34.7015 48.0129 34.7015C49.0726 34.7015 50.1291 34.4151 51.0678 33.8736L55.4894 31.3159C55.8179 31.1197 56.0141 30.7625 56.0141 30.3604C56.0141 29.5212 55.5191 28.4112 54.5718 27.9146ZM25.5569 16.0721C26.2254 15.6863 27.056 15.6863 27.725 16.0721L32.0785 18.5855C32.3579 18.7466 32.5249 19.0357 32.5249 19.3589C32.5249 19.6815 32.3579 19.9706 32.0785 20.1322L22.4993 25.6627C22.2647 25.2985 21.9464 24.9877 21.5606 24.7645L16.2916 21.7226C16.1911 21.6642 16.0857 21.6264 15.9771 21.6032L25.5569 16.0721ZM17.2784 29.9876L21.5671 27.5114V28.9143L17.2784 31.3888V29.9876ZM17.1482 29.7546C16.8099 29.5298 16.6029 29.1467 16.6018 28.7333L16.5894 28.4263L20.8899 25.9426V26.1156C20.8899 26.5684 21.1007 26.9932 21.4498 27.2709L17.1482 29.7546ZM16.4683 28.1875L14.29 26.9407L15.3513 26.3274L15.8458 26.6133L16.5732 26.1934L16.0792 25.9075L18.1306 24.7235L18.6283 25.0066L19.0828 24.744L20.7575 25.7119L16.4683 28.1875ZM18.6267 24.6986L18.129 24.4154L15.5448 25.9075L16.0387 26.1934L15.8458 26.3052L15.3513 26.0194L14.0225 26.7878L12.3396 25.8243L16.6483 23.3373L18.8175 24.59L18.6267 24.6986ZM11.5279 26.7775C11.6576 26.7992 11.7927 26.7748 11.9116 26.7062C12.0943 26.6003 12.2035 26.4117 12.2035 26.2004V26.0556L16.3208 28.4123L16.3343 28.7398C16.3343 29.2429 16.591 29.7136 17.0109 29.9854V31.3899L11.5279 28.2231V26.7775ZM21.3779 29.7887L20.9813 29.5596L21.8346 29.0672V27.2018L21.7675 27.1634C21.3914 26.9489 21.158 26.5468 21.158 26.1145V25.633L16.6483 23.0266L14.9757 23.9934V22.6364C14.9757 22.356 15.1189 22.1057 15.3578 21.9615L15.3821 21.9469C15.6264 21.8118 15.9144 21.8139 16.1571 21.9533L21.4266 24.9958C22.195 25.4395 22.6733 26.2674 22.6733 27.1553V29.0397C22.6733 29.352 22.5111 29.632 22.2409 29.7876C21.9713 29.9454 21.6481 29.9454 21.3779 29.7887ZM33.5516 21.8101C33.5516 22.7045 33.0712 23.5378 32.2968 23.9842L22.8738 29.4245C22.9164 29.3034 22.9418 29.1748 22.9418 29.0402V27.1564C22.9418 26.7105 22.8316 26.2793 22.6338 25.8945L32.2125 20.364C32.5762 20.1543 32.7924 19.7782 32.7924 19.3594C32.7924 19.2859 32.7853 19.2146 32.7729 19.1449C33.2652 19.6815 33.5527 20.3905 33.5527 21.1379V21.8101H33.5516ZM37.215 18.3721L35.7586 19.2135C35.9208 18.9719 36.0175 18.6747 36.0175 18.3488C36.0175 17.5874 35.7176 16.5401 35.0426 15.7106C34.9642 15.6128 34.8254 15.5879 34.7162 15.6506L34.7151 15.6511C34.5816 15.7284 34.5449 15.9057 34.6389 16.0262C35.2809 16.846 35.5673 17.863 35.5673 18.6077C35.5673 18.9341 35.4706 19.2324 35.3079 19.474L33.7273 20.3873C33.7116 20.3251 33.6959 20.2635 33.677 20.2035C33.7402 20.0333 33.7764 19.8474 33.7764 19.6501C33.7764 18.8871 33.4749 17.8371 32.7978 17.0065C32.7194 16.9097 32.5805 16.8849 32.4724 16.9476H32.4714C32.3379 17.0243 32.3011 17.2016 32.3962 17.3232C32.8929 17.9571 33.1766 18.7071 33.2803 19.3594C33.0242 18.9746 32.6854 18.6444 32.2795 18.3964C32.2584 18.3824 32.2352 18.3678 32.2125 18.3542L29.37 16.713L31.4689 15.4998C31.7499 15.4723 32.0525 15.5296 32.3449 15.6836C33.2517 16.1597 33.838 16.9822 34.1547 17.802C34.2115 17.9473 34.3849 18.0051 34.519 17.9273C34.6265 17.8657 34.6751 17.7349 34.6319 17.6177C34.3212 16.7736 33.7278 15.9154 32.7934 15.4247C32.5 15.2707 32.1963 15.2134 31.9147 15.2415L33.7224 14.1969C34.0002 14.1726 34.2974 14.231 34.5854 14.3823C35.4938 14.8589 36.0813 15.6846 36.3979 16.5061C36.4536 16.6509 36.6282 16.7093 36.7622 16.6314C36.8697 16.5698 36.9178 16.4391 36.8751 16.3223C36.5655 15.4766 35.971 14.6146 35.0345 14.1234C34.7454 13.9721 34.4476 13.9137 34.1698 13.9391L34.5503 13.7197C34.9275 13.4998 35.3944 13.5057 35.8321 13.7349C37.3237 14.5174 37.8641 16.2294 37.8641 17.1908C37.863 17.6858 37.6144 18.1386 37.215 18.3721ZM55.3543 31.0857L50.9343 33.6429C50.0367 34.1611 49.0272 34.4351 48.014 34.4351C48.014 34.4351 48.014 34.4351 48.0129 34.4351C47.0007 34.4351 45.9912 34.1611 45.0941 33.6439C43.2654 32.5885 42.1738 30.6982 42.1738 28.5868V18.6012C42.1738 17.3302 41.3205 16.7011 40.9546 16.4899C40.5877 16.278 39.6166 15.8543 38.5163 16.4899L38.097 16.7325C37.9705 15.8079 37.4717 14.5584 36.4066 13.7808L36.8157 13.5441C38.6444 12.4881 40.8276 12.4881 42.6564 13.5436C44.4846 14.5984 45.5767 16.4893 45.5767 18.6007V28.5857C45.5767 29.8568 46.4295 30.4858 46.7959 30.6971C47.1628 30.9095 48.1339 31.3326 49.2336 30.6971L53.6785 28.1275C53.906 28.0037 54.187 28.0118 54.4486 28.1496C55.4018 28.6495 55.7472 29.7449 55.7472 30.3599C55.7472 30.6674 55.5996 30.9387 55.3543 31.0857ZM16.3057 29.2013L16.7077 30.3875L11.8333 27.5725L12.2424 26.8548L16.3057 29.2013ZM20.7451 26.9872L20.8786 27.218L17.2114 29.3347L17.079 29.104L20.7451 26.9872ZM14.7115 28.0853L14.4224 27.92V27.566L14.7115 27.7319V28.0853ZM13.4404 27.3585L13.1513 27.1931V26.8397L13.4404 27.0051V27.3585ZM14.076 27.7222L13.7868 27.5563V27.2028L14.076 27.3682V27.7222ZM12.8049 26.9942L12.5158 26.8289V26.4749L12.8049 26.6408V26.9942ZM16.0074 28.8273L15.6945 28.6474V28.2939L16.0074 28.4739V28.8273ZM15.347 28.4496L15.0579 28.2842V27.9308L15.347 28.0961V28.4496ZM14.4224 29.2812L14.7115 29.4466V29.8006L14.4224 29.6347V29.2812ZM13.1513 28.5533L13.4404 28.7192V29.0726L13.1513 28.9073V28.5533ZM13.7868 28.9176L14.076 29.0835V29.4369L13.7868 29.2715V28.9176ZM12.5158 28.1902L12.8049 28.3555V28.7095L12.5158 28.5436V28.1902ZM15.6934 30.0086L16.0068 30.1886V30.5426L15.6934 30.3626V30.0086ZM15.0579 29.6444L15.347 29.8103V30.1637L15.0579 29.9984V29.6444ZM15.5529 24.6565L16.2743 25.0736L15.32 25.6238L14.5991 25.2077L15.5529 24.6565ZM17.7421 25.921L18.4716 26.3425L17.5427 26.8786L16.8131 26.4571L17.7421 25.921Z" fill="#1C0140"/>
</g>
<path d="M14.7108 29.0273L14.4216 28.8614L14.5459 28.6922C14.6416 28.5625 14.8188 28.5247 14.9583 28.6052L15.0026 28.6306L14.7108 29.0273ZM13.1506 28.1345L13.4397 28.3004L13.7321 27.9038L13.6883 27.8789C13.5489 27.7989 13.3705 27.8357 13.276 27.9654L13.1506 28.1345ZM14.3676 28.2669L14.3238 28.2421C14.1844 28.1626 14.0061 28.1988 13.9115 28.3291L13.7867 28.4982L14.0758 28.6636L14.3676 28.2669ZM13.0966 27.5395L13.0528 27.5141C12.9134 27.4347 12.735 27.4714 12.6405 27.6011L12.5156 27.7703L12.8047 27.9362L13.0966 27.5395ZM16.2304 29.3331C16.0909 29.2537 15.9126 29.2899 15.8175 29.4201L15.6932 29.5893L16.0066 29.7692L16.2509 29.4369L16.2304 29.3331ZM15.6386 28.9948L15.5949 28.97C15.4554 28.89 15.2771 28.9267 15.182 29.0564L15.0577 29.2256L15.3468 29.3915L15.6386 28.9948Z" fill="#FF3131"/>
</g>
</g>
<defs>
<filter id="filter0_d_28_812" x="0" y="0" width="54.4517" height="56" filterUnits="userSpaceOnUse" color-interpolation-filters="sRGB">
<feFlood flood-opacity="0" result="BackgroundImageFix"/>
<feColorMatrix in="SourceAlpha" type="matrix" values="0 0 0 0 0 0 0 0 0 0 0 0 0 0 0 0 0 0 127 0" result="hardAlpha"/>
<feOffset dy="4"/>
<feGaussianBlur stdDeviation="2"/>
<feComposite in2="hardAlpha" operator="out"/>
<feColorMatrix type="matrix" values="0 0 0 0 0 0 0 0 0 0 0 0 0 0 0 0 0 0 0.25 0"/>
<feBlend mode="normal" in2="BackgroundImageFix" result="effect1_dropShadow_28_812"/>
<feBlend mode="normal" in="SourceGraphic" in2="effect1_dropShadow_28_812" result="shape"/>
</filter>
<filter id="filter1_f_28_812" x="-33.0581" y="-10.7355" width="124.697" height="107.148" filterUnits="userSpaceOnUse" color-interpolation-filters="sRGB">
<feFlood flood-opacity="0" result="BackgroundImageFix"/>
<feBlend mode="normal" in="SourceGraphic" in2="BackgroundImageFix" result="shape"/>
<feGaussianBlur stdDeviation="19.5613" result="effect1_foregroundBlur_28_812"/>
</filter>
<clipPath id="clip0_28_812">
<rect x="4" width="46.4516" height="48" rx="23.2258" fill="white"/>
</clipPath>
</defs>
</svg>
