<svg width="37" height="37" viewBox="0 0 37 37" fill="none" xmlns="http://www.w3.org/2000/svg">
<path d="M32.833 11.3335V22.0835C32.833 25.8849 31.3229 29.5307 28.6349 32.2187C25.9468 34.9067 22.3011 36.4168 18.4997 36.4168C14.6982 36.4168 11.0525 34.9067 8.36448 32.2187C5.67646 29.5307 4.16634 25.8849 4.16634 22.0835V11.3335H32.833ZM18.4997 14.9168C16.653 14.9169 14.8776 15.6299 13.5438 16.907C12.2099 18.1841 11.4205 19.9268 11.3402 21.7717L11.333 22.0835C11.333 23.5009 11.7533 24.8865 12.5408 26.0651C13.3283 27.2436 14.4476 28.1622 15.7571 28.7046C17.0666 29.2471 18.5076 29.389 19.8978 29.1125C21.288 28.8359 22.565 28.1534 23.5673 27.1511C24.5695 26.1488 25.2521 24.8718 25.5286 23.4816C25.8052 22.0914 25.6632 20.6505 25.1208 19.3409C24.5784 18.0314 23.6598 16.9121 22.4813 16.1246C21.3027 15.3371 19.9171 14.9168 18.4997 14.9168ZM18.5176 20.2918C18.9743 20.2923 19.4135 20.4672 19.7455 20.7807C20.0776 21.0942 20.2774 21.5226 20.3042 21.9785C20.331 22.4344 20.1826 22.8833 19.8895 23.2334C19.5964 23.5836 19.1807 23.8087 18.7272 23.8626L18.4997 23.8752C18.043 23.8747 17.6038 23.6998 17.2717 23.3863C16.9397 23.0728 16.7398 22.6444 16.7131 22.1885C16.6863 21.7326 16.8346 21.2837 17.1277 20.9335C17.4208 20.5834 17.8366 20.3583 18.2901 20.3044L18.5176 20.2918ZM0.583008 5.9585V4.16683C0.583008 3.21647 0.960536 2.30504 1.63254 1.63303C2.30455 0.961025 3.21598 0.583496 4.16634 0.583496H32.833C33.7834 0.583496 34.6948 0.961025 35.3668 1.63303C36.0388 2.30504 36.4163 3.21647 36.4163 4.16683V5.9585C36.4163 6.90885 36.0388 7.82029 35.3668 8.4923C34.6948 9.1643 33.7834 9.54183 32.833 9.54183H4.16634C3.21598 9.54183 2.30455 9.1643 1.63254 8.4923C0.960536 7.82029 0.583008 6.90885 0.583008 5.9585Z" fill="black"/>
</svg>
