<svg width="25" height="25" viewBox="0 0 25 25" fill="none" xmlns="http://www.w3.org/2000/svg">
<path d="M22.222 2.77783H2.77756C2.4092 2.77783 2.05594 2.92416 1.79547 3.18463C1.535 3.4451 1.38867 3.79836 1.38867 4.16672V20.8334C1.38867 21.2017 1.535 21.555 1.79547 21.8155C2.05594 22.0759 2.4092 22.2223 2.77756 22.2223H22.222C22.5904 22.2223 22.9436 22.0759 23.2041 21.8155C23.4646 21.555 23.6109 21.2017 23.6109 20.8334V4.16672C23.6109 3.79836 23.4646 3.4451 23.2041 3.18463C22.9436 2.92416 22.5904 2.77783 22.222 2.77783ZM6.19423 5.55561C6.60627 5.55561 7.00906 5.67779 7.35167 5.90671C7.69427 6.13563 7.96129 6.46101 8.11898 6.84169C8.27666 7.22236 8.31792 7.64125 8.23753 8.04538C8.15714 8.44951 7.95873 8.82072 7.66737 9.11208C7.37601 9.40344 7.00479 9.60186 6.60067 9.68225C6.19654 9.76263 5.77765 9.72137 5.39697 9.56369C5.01629 9.40601 4.69092 9.13898 4.462 8.79638C4.23308 8.45378 4.11089 8.05099 4.11089 7.63894C4.11089 7.08641 4.33039 6.5565 4.72109 6.1658C5.11179 5.7751 5.64169 5.55561 6.19423 5.55561ZM4.16645 18.7501V15.9028L8.33312 11.6806C8.46323 11.5513 8.63924 11.4787 8.8227 11.4787C9.00616 11.4787 9.18217 11.5513 9.31228 11.6806L11.1109 13.4376L5.77756 18.7501H4.16645ZM20.8331 18.7501H7.74284L12.0692 14.4237L15.8192 10.6737C15.9493 10.5443 16.1253 10.4717 16.3088 10.4717C16.4923 10.4717 16.6683 10.5443 16.7984 10.6737L20.8331 14.7084V18.7501Z" fill="black"/>
</svg>
