<svg width="24" height="24" viewBox="0 0 24 24" fill="none" xmlns="http://www.w3.org/2000/svg">
<path d="M9.04177 19.003H14.9578C14.8396 19.702 14.4776 20.3365 13.9362 20.7941C13.3947 21.2517 12.7087 21.5028 11.9998 21.5028C11.2909 21.5028 10.6048 21.2517 10.0634 20.7941C9.52191 20.3365 9.15998 19.702 9.04177 19.003ZM11.9998 2.00299C13.9889 2.00299 15.8965 2.79317 17.3031 4.19969C18.7096 5.60621 19.4998 7.51387 19.4998 9.50299V13.503L20.9178 16.663C20.9822 16.8075 21.0096 16.9659 20.9973 17.1236C20.985 17.2814 20.9336 17.4336 20.8475 17.5665C20.7615 17.6993 20.6436 17.8085 20.5047 17.8842C20.3657 17.9599 20.21 17.9997 20.0518 18H3.95177C3.7933 18 3.63736 17.9603 3.49814 17.8846C3.35892 17.8089 3.24084 17.6996 3.15467 17.5666C3.06849 17.4336 3.01696 17.2812 3.00475 17.1232C2.99254 16.9652 3.02005 16.8066 3.08477 16.662L4.49977 13.502V9.48999L4.50477 9.23999C4.57318 7.29784 5.39277 5.45807 6.79087 4.10828C8.18897 2.75849 10.0564 2.00308 11.9998 2.00299ZM22.9998 8.24999C23.1898 8.25005 23.3727 8.32224 23.5116 8.45196C23.6504 8.58169 23.7348 8.75929 23.7478 8.94887C23.7607 9.13845 23.7013 9.32588 23.5813 9.47329C23.4614 9.6207 23.29 9.71709 23.1018 9.74299L22.9998 9.74999H20.9998C20.8097 9.74993 20.6268 9.67775 20.488 9.54802C20.3491 9.41829 20.2647 9.24069 20.2517 9.05111C20.2388 8.86153 20.2983 8.6741 20.4182 8.52669C20.5381 8.37928 20.7095 8.28289 20.8978 8.25699L20.9998 8.24999H22.9998ZM2.99977 8.24999C3.18979 8.25005 3.37271 8.32224 3.51156 8.45196C3.65041 8.58169 3.73485 8.75929 3.7478 8.94887C3.76075 9.13845 3.70126 9.32588 3.58134 9.47329C3.46142 9.6207 3.29002 9.71709 3.10177 9.74299L2.99977 9.74999H0.999771C0.809748 9.74993 0.62683 9.67775 0.48798 9.54802C0.349129 9.41829 0.264697 9.24069 0.251745 9.05111C0.238793 8.86153 0.298287 8.6741 0.418204 8.52669C0.538121 8.37928 0.709521 8.28289 0.897771 8.25699L0.999771 8.24999H2.99977ZM22.5998 2.54999C22.7077 2.69373 22.7603 2.87143 22.7482 3.05075C22.7361 3.23006 22.66 3.39907 22.5338 3.52699L22.4498 3.59999L20.4498 5.09999C20.2984 5.2141 20.1094 5.26663 19.9208 5.24703C19.7322 5.22742 19.5581 5.13713 19.4334 4.99432C19.3087 4.85151 19.2427 4.66678 19.2487 4.47729C19.2547 4.2878 19.3323 4.10762 19.4658 3.97299L19.5498 3.89999L21.5498 2.39999C21.7089 2.28064 21.9089 2.2294 22.1058 2.25753C22.3027 2.28566 22.4804 2.39086 22.5998 2.54999ZM2.44977 2.39999L4.44977 3.89999C4.52856 3.95909 4.59495 4.03312 4.64513 4.11787C4.69531 4.20262 4.7283 4.29642 4.74223 4.39392C4.75616 4.49143 4.75075 4.59072 4.72631 4.68613C4.70186 4.78154 4.65887 4.8712 4.59977 4.94999C4.54068 5.02878 4.46664 5.09517 4.38189 5.14535C4.29714 5.19553 4.20334 5.22852 4.10584 5.24245C4.00834 5.25638 3.90905 5.25097 3.81364 5.22653C3.71823 5.20208 3.62856 5.15909 3.54977 5.09999L1.54977 3.59999C1.47098 3.5409 1.4046 3.46686 1.35442 3.38211C1.30423 3.29736 1.27124 3.20356 1.25731 3.10606C1.24338 3.00856 1.24879 2.90926 1.27324 2.81385C1.29768 2.71844 1.34068 2.62878 1.39977 2.54999C1.45887 2.4712 1.5329 2.40482 1.61765 2.35463C1.7024 2.30445 1.7962 2.27146 1.89371 2.25753C1.99121 2.2436 2.0905 2.24901 2.18591 2.27346C2.28132 2.2979 2.37098 2.3409 2.44977 2.39999Z" fill="black"/>
</svg>
