<svg width="22" height="20" viewBox="0 0 22 20" fill="none" xmlns="http://www.w3.org/2000/svg">
<path fill-rule="evenodd" clip-rule="evenodd" d="M7 0.25C5.20979 0.25 3.4929 0.961159 2.22703 2.22703C0.961159 3.4929 0.25 5.20979 0.25 7V13C0.25 14.7902 0.961159 16.5071 2.22703 17.773C3.4929 19.0388 5.20979 19.75 7 19.75H15C16.7902 19.75 18.5071 19.0388 19.773 17.773C21.0388 16.5071 21.75 14.7902 21.75 13V7C21.75 5.20979 21.0388 3.4929 19.773 2.22703C18.5071 0.961159 16.7902 0.25 15 0.25H7ZM11.4 3.483C11.2966 3.37451 11.1631 3.29947 11.0167 3.26755C10.8703 3.23564 10.7177 3.24832 10.5785 3.30396C10.4394 3.35959 10.3201 3.45563 10.2361 3.57969C10.152 3.70375 10.1071 3.85015 10.107 4V8.407L8.486 7.029C8.33443 6.9001 8.13786 6.8367 7.93954 6.85273C7.74122 6.86877 7.5574 6.96293 7.4285 7.1145C7.2996 7.26607 7.2362 7.46264 7.25223 7.66096C7.26827 7.85928 7.36243 8.0431 7.514 8.172L9.666 10L7.514 11.829C7.43895 11.8928 7.3772 11.9708 7.33229 12.0585C7.28738 12.1462 7.26017 12.2418 7.25223 12.34C7.2443 12.4382 7.25577 12.537 7.28602 12.6308C7.31626 12.7246 7.36468 12.8115 7.4285 12.8865C7.49232 12.9616 7.5703 13.0233 7.65799 13.0682C7.74567 13.1131 7.84134 13.1403 7.93954 13.1483C8.03774 13.1562 8.13654 13.1447 8.2303 13.1145C8.32406 13.0842 8.41095 13.0358 8.486 12.972L10.107 11.593V16C10.1071 16.1499 10.152 16.2962 10.2361 16.4203C10.3201 16.5444 10.4394 16.6404 10.5785 16.696C10.7177 16.7517 10.8703 16.7644 11.0167 16.7324C11.1631 16.7005 11.2966 16.6255 11.4 16.517L14.543 13.217C14.6133 13.1431 14.6678 13.0557 14.7032 12.9601C14.7385 12.8644 14.754 12.7626 14.7487 12.6607C14.7433 12.5589 14.7173 12.4592 14.6721 12.3678C14.627 12.2764 14.5636 12.1951 14.486 12.129L11.982 10L14.486 7.871C14.5636 7.80488 14.627 7.72363 14.6721 7.6322C14.7173 7.54077 14.7433 7.4411 14.7487 7.33927C14.754 7.23744 14.7385 7.13558 14.7032 7.03994C14.6678 6.9443 14.6133 6.85687 14.543 6.783L11.4 3.483ZM12.91 12.758L11.607 11.65V14.125L12.91 12.758ZM11.607 5.875V8.35L12.91 7.243L11.607 5.875Z" fill="#FF0000"/>
</svg>
