<svg width="27" height="27" viewBox="0 0 27 27" fill="none" xmlns="http://www.w3.org/2000/svg">
<path d="M2.25 21.375C2.25 23.2875 3.7125 24.75 5.625 24.75H21.375C23.2875 24.75 24.75 23.2875 24.75 21.375V12.375H2.25V21.375ZM21.375 4.5H19.125V3.375C19.125 2.7 18.675 2.25 18 2.25C17.325 2.25 16.875 2.7 16.875 3.375V4.5H10.125V3.375C10.125 2.7 9.675 2.25 9 2.25C8.325 2.25 7.875 2.7 7.875 3.375V4.5H5.625C3.7125 4.5 2.25 5.9625 2.25 7.875V10.125H24.75V7.875C24.75 5.9625 23.2875 4.5 21.375 4.5Z" fill="black"/>
</svg>
