<svg width="15" height="11" viewBox="0 0 15 11" fill="none" xmlns="http://www.w3.org/2000/svg">
<path d="M3.75957 10.3869C2.77665 10.3869 1.93695 10.0467 1.24047 9.36618C0.543999 8.6857 0.195546 7.85399 0.195114 6.87106C0.195114 6.02855 0.448947 5.27786 0.956612 4.61897C1.46428 3.96009 2.12856 3.53883 2.94947 3.35521C3.2195 2.36148 3.75957 1.55678 4.56968 0.941097C5.37978 0.325418 6.2979 0.0175781 7.32403 0.0175781C8.5878 0.0175781 9.65994 0.457843 10.5405 1.33837C11.421 2.2189 11.8611 3.29083 11.8606 4.55416C12.6059 4.64057 13.2244 4.96202 13.7161 5.51851C14.2078 6.075 14.4534 6.72568 14.453 7.47054C14.453 8.28064 14.1695 8.96934 13.6027 9.53663C13.0358 10.1039 12.3471 10.3873 11.5366 10.3869H3.75957ZM3.75957 9.09075H11.5366C11.9902 9.09075 12.3737 8.93413 12.6869 8.62089C13.0002 8.30765 13.1568 7.9242 13.1568 7.47054C13.1568 7.01688 13.0002 6.63343 12.6869 6.32019C12.3737 6.00695 11.9902 5.85033 11.5366 5.85033H10.5645V4.55416C10.5645 3.65765 10.2484 2.89334 9.61631 2.26124C8.98421 1.62915 8.22012 1.31331 7.32403 1.31375C6.42795 1.31418 5.66386 1.63023 5.03176 2.26189C4.39966 2.89356 4.08362 3.65765 4.08362 4.55416H3.75957C3.13309 4.55416 2.59842 4.77559 2.15557 5.21845C1.71271 5.66131 1.49128 6.19598 1.49128 6.82246C1.49128 7.44894 1.71271 7.98361 2.15557 8.42646C2.59842 8.86932 3.13309 9.09075 3.75957 9.09075Z" fill="#FF0000"/>
</svg>
