<svg width="20" height="20" viewBox="0 0 20 20" fill="none" xmlns="http://www.w3.org/2000/svg">
<path fill-rule="evenodd" clip-rule="evenodd" d="M11.0832 9.07917V1.33333C11.0832 1.04602 10.969 0.770465 10.7659 0.567301C10.5627 0.364137 10.2871 0.25 9.99983 0.25C9.71251 0.25 9.43696 0.364137 9.2338 0.567301C9.03063 0.770465 8.9165 1.04602 8.9165 1.33333V9.07917L6.5115 6.07183C6.42434 5.95581 6.31476 5.85848 6.18926 5.78563C6.06376 5.71277 5.92491 5.66587 5.78094 5.6477C5.63697 5.62954 5.49081 5.64049 5.35115 5.6799C5.21149 5.7193 5.08117 5.78637 4.96793 5.87711C4.85469 5.96785 4.76083 6.08041 4.69193 6.20812C4.62302 6.33583 4.58048 6.47609 4.56682 6.62055C4.55316 6.76502 4.56867 6.91076 4.61242 7.04912C4.65617 7.18748 4.72727 7.31564 4.8215 7.426L9.15483 12.8427C9.25634 12.9692 9.38497 13.0713 9.53122 13.1415C9.67747 13.2116 9.83762 13.2481 9.99983 13.2481C10.162 13.2481 10.3222 13.2116 10.4684 13.1415C10.6147 13.0713 10.7433 12.9692 10.8448 12.8427L15.1782 7.426C15.2724 7.31564 15.3435 7.18748 15.3872 7.04912C15.431 6.91076 15.4465 6.76502 15.4328 6.62055C15.4192 6.47609 15.3766 6.33583 15.3077 6.20812C15.2388 6.08041 15.145 5.96785 15.0317 5.87711C14.9185 5.78637 14.7882 5.7193 14.6485 5.6799C14.5088 5.64049 14.3627 5.62954 14.2187 5.6477C14.0748 5.66587 13.9359 5.71277 13.8104 5.78563C13.6849 5.85848 13.5753 5.95581 13.4882 6.07183L11.0832 9.07917Z" fill="black"/>
<path fill-rule="evenodd" clip-rule="evenodd" d="M7.46175 14.1968L4.97117 11.0833H2.41667C1.84203 11.0833 1.29093 11.3116 0.884602 11.7179C0.478273 12.1242 0.25 12.6753 0.25 13.25V17.5833C0.25 18.1579 0.478273 18.709 0.884602 19.1154C1.29093 19.5217 1.84203 19.75 2.41667 19.75H17.5833C18.158 19.75 18.7091 19.5217 19.1154 19.1154C19.5217 18.709 19.75 18.1579 19.75 17.5833V13.25C19.75 12.6753 19.5217 12.1242 19.1154 11.7179C18.7091 11.3116 18.158 11.0833 17.5833 11.0833H15.0288L12.5372 14.1968C12.2327 14.5774 11.8465 14.8846 11.4072 15.0957C10.968 15.3068 10.4868 15.4164 9.99946 15.4164C9.51209 15.4164 9.03095 15.3068 8.59168 15.0957C8.1524 14.8846 7.76623 14.5774 7.46175 14.1968ZM15.4167 14.3333C15.1293 14.3333 14.8538 14.4474 14.6506 14.6506C14.4475 14.8538 14.3333 15.1293 14.3333 15.4166C14.3333 15.704 14.4475 15.9795 14.6506 16.1827C14.8538 16.3858 15.1293 16.5 15.4167 16.5H15.4275C15.7148 16.5 15.9904 16.3858 16.1935 16.1827C16.3967 15.9795 16.5108 15.704 16.5108 15.4166C16.5108 15.1293 16.3967 14.8538 16.1935 14.6506C15.9904 14.4474 15.7148 14.3333 15.4275 14.3333H15.4167Z" fill="black"/>
</svg>
