<svg width="54" height="54" viewBox="0 0 54 54" fill="none" xmlns="http://www.w3.org/2000/svg">
<circle cx="27" cy="27" r="27" fill="black"/>
<path d="M22.3333 27.045V37.833C22.3333 38.5182 22.6055 39.1752 23.09 39.6597C23.5745 40.1442 24.2315 40.4163 24.9167 40.4163H30.0833C30.7685 40.4163 31.4256 40.1442 31.91 39.6597C32.3945 39.1752 32.6667 38.5182 32.6667 37.833V27.045C34.0449 26.332 36.5417 24.5547 36.5417 21.0413V18.458H18.4583V21.0413C18.4583 24.5547 20.9551 26.332 22.3333 27.045ZM26.2083 26.208H28.7917V30.083H26.2083V26.208ZM18.4583 14.583H36.5417V17.1663H18.4583V14.583Z" fill="white"/>
</svg>
