<svg width="54" height="54" viewBox="0 0 54 54" fill="none" xmlns="http://www.w3.org/2000/svg">
<circle cx="27" cy="27" r="27" fill="black"/>
<path d="M37.6562 17.9062H17.3438C16.9116 17.9062 16.5625 18.2554 16.5625 18.6875V34.3125C16.5625 34.7446 16.9116 35.0938 17.3438 35.0938H37.6562C38.0884 35.0938 38.4375 34.7446 38.4375 34.3125V18.6875C38.4375 18.2554 38.0884 17.9062 37.6562 17.9062ZM23.252 21.4219C24.1138 21.4219 24.8145 22.1226 24.8145 22.9844C24.8145 23.8462 24.1138 24.5469 23.252 24.5469C22.3901 24.5469 21.6895 23.8462 21.6895 22.9844C21.6895 22.1226 22.3901 21.4219 23.252 21.4219ZM35.7983 32.0933C35.7628 32.1232 35.7178 32.1396 35.6714 32.1396H19.3262C19.2188 32.1396 19.1309 32.0518 19.1309 31.9443C19.1309 31.8979 19.1479 31.854 19.1772 31.8174L23.335 26.8857C23.4033 26.8027 23.5278 26.793 23.6108 26.8613C23.6182 26.8687 23.6279 26.876 23.6353 26.8857L26.062 29.7666L29.9219 25.189C29.9902 25.106 30.1147 25.0962 30.1978 25.1646C30.2051 25.1719 30.2148 25.1792 30.2222 25.189L35.8276 31.8198C35.8911 31.9004 35.8813 32.0249 35.7983 32.0933Z" fill="white"/>
</svg>
