<svg width="24" height="24" viewBox="0 0 24 24" fill="none" xmlns="http://www.w3.org/2000/svg">
<g clip-path="url(#clip0_9_367)">
<path d="M22.776 10.2071L13.4449 10.2067C13.0328 10.2067 12.6989 10.5406 12.6989 10.9527V13.9335C12.6989 14.3455 13.0328 14.6795 13.4448 14.6795H18.6996C18.1242 16.1728 17.0502 17.4234 15.68 18.218L17.9207 22.0967C21.5149 20.018 23.6398 16.3707 23.6398 12.2879C23.6398 11.7066 23.597 11.291 23.5113 10.823C23.4461 10.4675 23.1375 10.2071 22.776 10.2071Z" fill="#167EE6"/>
<path d="M12.2018 19.1584C9.63025 19.1584 7.3853 17.7533 6.17959 15.6742L2.30103 17.9098C4.2748 21.3306 7.97232 23.6342 12.2018 23.6342C14.2767 23.6342 16.2344 23.0756 17.921 22.102V22.0967L15.6803 18.218C14.6555 18.8124 13.4694 19.1584 12.2018 19.1584Z" fill="black"/>
<path d="M17.9208 22.102V22.0967L15.6802 18.218C14.6553 18.8123 13.4694 19.1584 12.2017 19.1584V23.6342C14.2765 23.6342 16.2344 23.0756 17.9208 22.102Z" fill="black"/>
<path d="M5.23916 12.1959C5.23916 10.9283 5.58508 9.74246 6.17938 8.71762L2.30082 6.48206C1.32191 8.16326 0.763306 10.1157 0.763306 12.1959C0.763306 14.276 1.32191 16.2285 2.30082 17.9097L6.17938 15.6742C5.58508 14.6493 5.23916 13.4634 5.23916 12.1959Z" fill="#FFD500"/>
<path d="M12.2018 5.23349C13.8787 5.23349 15.4191 5.82935 16.6222 6.82051C16.919 7.065 17.3504 7.04735 17.6223 6.77547L19.7343 4.6634C20.0428 4.35493 20.0208 3.84999 19.6913 3.56412C17.6755 1.81536 15.0528 0.757629 12.2018 0.757629C7.97232 0.757629 4.2748 3.06124 2.30103 6.48209L6.17959 8.71765C7.3853 6.63852 9.63025 5.23349 12.2018 5.23349Z" fill="#FF4B26"/>
<path d="M16.622 6.82051C16.9188 7.065 17.3503 7.04735 17.6221 6.77547L19.7342 4.6634C20.0426 4.35493 20.0206 3.84999 19.6912 3.56412C17.6754 1.81531 15.0526 0.757629 12.2017 0.757629V5.23349C13.8785 5.23349 15.4189 5.82935 16.622 6.82051Z" fill="#D93F21"/>
</g>
<defs>
<clipPath id="clip0_9_367">
<rect width="22.8766" height="22.8766" fill="white" transform="translate(0.763428 0.757629)"/>
</clipPath>
</defs>
</svg>
