<svg width="32" height="32" viewBox="0 0 32 32" fill="none" xmlns="http://www.w3.org/2000/svg">
<path fill-rule="evenodd" clip-rule="evenodd" d="M16.9998 25.28V29.3334H14.9998V25.28C12.7108 25.0333 10.5937 23.9493 9.05548 22.2364C7.51724 20.5234 6.66641 18.3023 6.6665 16V13.3334H8.6665V16C8.6665 17.9449 9.43912 19.8102 10.8144 21.1855C12.1897 22.5607 14.0549 23.3334 15.9998 23.3334C17.9448 23.3334 19.81 22.5607 21.1853 21.1855C22.5606 19.8102 23.3332 17.9449 23.3332 16V13.3334H25.3332V16C25.3333 18.3023 24.4824 20.5234 22.9442 22.2364C21.406 23.9493 19.2889 25.0333 16.9998 25.28ZM10.6665 8.00002C10.6665 6.58553 11.2284 5.22898 12.2286 4.22878C13.2288 3.22859 14.5853 2.66669 15.9998 2.66669C17.4143 2.66669 18.7709 3.22859 19.7711 4.22878C20.7713 5.22898 21.3332 6.58553 21.3332 8.00002V16C21.3332 17.4145 20.7713 18.7711 19.7711 19.7713C18.7709 20.7715 17.4143 21.3334 15.9998 21.3334C14.5853 21.3334 13.2288 20.7715 12.2286 19.7713C11.2284 18.7711 10.6665 17.4145 10.6665 16V8.00002Z" fill="black"/>
</svg>
