<svg width="21" height="21" viewBox="0 0 21 21" fill="none" xmlns="http://www.w3.org/2000/svg">
<path d="M9.9436 0.877232C10.5295 0.603795 11.1936 0.603795 11.7795 0.877232L20.3342 4.82254C20.6467 4.97879 20.8811 5.29129 20.8811 5.64286C20.8811 6.03348 20.6467 6.34598 20.3342 6.50223L11.7795 10.4475C11.1936 10.721 10.5295 10.721 9.9436 10.4475L1.38892 6.50223C1.07642 6.34598 0.881104 6.03348 0.881104 5.64286C0.881104 5.29129 1.07642 4.97879 1.38892 4.82254L9.9436 0.877232ZM20.3342 9.82254C20.6467 9.97879 20.8811 10.2913 20.8811 10.6429C20.8811 11.0335 20.6467 11.346 20.3342 11.5022L11.7795 15.4475C11.1936 15.721 10.5295 15.721 9.9436 15.4475L1.38892 11.5022C1.07642 11.346 0.881104 11.0335 0.881104 10.6429C0.881104 10.2913 1.07642 9.97879 1.38892 9.82254L3.49829 8.84598L9.43579 11.5804C10.3342 12.01 11.3889 12.01 12.2874 11.5804L18.2249 8.84598L20.3342 9.82254ZM12.2874 16.5804L18.2249 13.846L20.3342 14.8225C20.6467 14.9788 20.8811 15.2913 20.8811 15.6429C20.8811 16.0335 20.6467 16.346 20.3342 16.5022L11.7795 20.4475C11.1936 20.721 10.5295 20.721 9.9436 20.4475L1.38892 16.5022C1.07642 16.346 0.881104 16.0335 0.881104 15.6429C0.881104 15.2913 1.07642 14.9788 1.38892 14.8225L3.49829 13.846L9.43579 16.5804C10.3342 17.01 11.3889 17.01 12.2874 16.5804Z" fill="#131313"/>
</svg>
