<svg width="23" height="28" viewBox="0 0 23 28" fill="none" xmlns="http://www.w3.org/2000/svg">
<path d="M15.0385 5.25C16.5042 5.25 17.6923 4.07477 17.6923 2.625C17.6923 1.17523 16.5042 0 15.0385 0C13.5728 0 12.3846 1.17523 12.3846 2.625C12.3846 4.07477 13.5728 5.25 15.0385 5.25ZM6.28575 17.3616L5.46748 19.2495H1.76923C0.792284 19.2495 0 20.0331 0 20.9995C0 21.9658 0.792284 22.7495 1.76923 22.7495H6.05132C7.11562 22.7495 8.07377 22.1238 8.4901 21.1586L8.97608 20.0364L8.38615 19.6919C7.42856 19.1324 6.72418 18.3045 6.28575 17.3616ZM21.2308 12.2495H18.7964L17.3556 9.33734C16.6645 7.94008 15.3956 6.91852 13.9399 6.55156L10.01 5.39547C8.44531 5.02359 6.81596 5.36539 5.54046 6.33281L3.34716 7.99586C2.57147 8.58375 2.4244 9.68188 3.01986 10.4491C3.61531 11.2164 4.72495 11.3602 5.5001 10.7729L7.69449 9.10984C8.11856 8.78773 8.65873 8.67234 9.09163 8.77406L9.90438 9.01305L7.83327 13.7922C7.13553 15.4044 7.76084 17.2927 9.28736 18.1841L13.9858 20.9278L12.467 25.7255C12.1751 26.6476 12.6942 27.6292 13.6264 27.918C13.8028 27.9727 13.9808 27.9989 14.1561 27.9989C14.9085 27.9989 15.6063 27.5193 15.8435 26.7712L17.5928 21.2445C17.9195 20.1086 17.433 18.8885 16.3963 18.27L13.0105 16.2936L14.7416 12.0127L15.8623 14.2784C16.3046 15.172 17.24 15.7489 18.2457 15.7489H21.2308C22.2077 15.7489 23 14.9652 23 13.9989C23 13.0326 22.2077 12.2495 21.2308 12.2495Z" fill="black"/>
</svg>
