<svg width="22" height="22" viewBox="0 0 22 22" fill="none" xmlns="http://www.w3.org/2000/svg">
<path fill-rule="evenodd" clip-rule="evenodd" d="M10.943 0.250023H11.057C13.366 0.250023 15.175 0.250024 16.587 0.440024C18.031 0.634024 19.171 1.04002 20.066 1.93402C20.961 2.82902 21.366 3.96902 21.56 5.41402C21.75 6.82502 21.75 8.63402 21.75 10.943V11.031C21.75 12.94 21.75 14.502 21.646 15.774C21.542 17.054 21.329 18.121 20.851 19.009C20.6417 19.3997 20.38 19.752 20.066 20.066C19.171 20.961 18.031 21.366 16.586 21.56C15.175 21.75 13.366 21.75 11.057 21.75H10.943C8.634 21.75 6.825 21.75 5.413 21.56C3.969 21.366 2.829 20.96 1.934 20.066C1.141 19.273 0.731 18.286 0.514 17.06C0.299 15.857 0.26 14.36 0.252 12.502C0.250667 12.0287 0.25 11.528 0.25 11V10.942C0.25 8.63302 0.25 6.82402 0.44 5.41202C0.634 3.96802 1.04 2.82802 1.934 1.93302C2.829 1.03802 3.969 0.633024 5.414 0.439023C6.825 0.249023 8.634 0.249023 10.943 0.249023M5.613 1.92502C4.335 2.09702 3.564 2.42502 2.995 2.99402C2.425 3.56402 2.098 4.33402 1.926 5.61302C1.752 6.91302 1.75 8.62102 1.75 10.999V11.843L2.751 10.967C3.19007 10.5827 3.75882 10.3796 4.34203 10.3989C4.92524 10.4182 5.47931 10.6585 5.892 11.071L10.182 15.361C10.5149 15.6939 10.9546 15.8986 11.4235 15.9392C11.8925 15.9798 12.3608 15.8537 12.746 15.583L13.044 15.373C13.5997 14.9826 14.2714 14.7922 14.9493 14.8331C15.6273 14.8739 16.2713 15.1436 16.776 15.598L19.606 18.145C19.892 17.547 20.061 16.761 20.151 15.652C20.249 14.447 20.25 12.945 20.25 10.999C20.25 8.62102 20.248 6.91302 20.074 5.61302C19.902 4.33402 19.574 3.56302 19.005 2.99302C18.435 2.42402 17.665 2.09702 16.386 1.92502C15.086 1.75102 13.378 1.74902 11 1.74902C8.622 1.74902 6.913 1.75102 5.613 1.92502Z" fill="black"/>
</svg>
