<svg width="17" height="16" viewBox="0 0 17 16" fill="none" xmlns="http://www.w3.org/2000/svg">
<path d="M8.44599 10.7938C9.52894 10.7938 10.3902 9.93118 10.3902 8.84952C10.3902 7.76787 9.52894 6.90527 8.44599 6.90527C7.36304 6.90527 6.50174 7.76787 6.50174 8.84952C6.50174 9.93118 7.36304 10.7938 8.44599 10.7938Z" fill="#FF0000"/>
<path d="M14.1601 7.674C14.0081 6.92743 13.7096 6.21839 13.282 5.58782C12.8631 4.96659 12.3284 4.4319 11.7071 4.01297C11.0758 3.58684 10.367 3.28851 9.62096 3.13482C9.22895 3.05519 8.8298 3.0161 8.42979 3.01817V1.7207L5.85365 3.66495L8.42979 5.6092V4.31433C8.74346 4.31304 9.05713 4.34285 9.35979 4.40507C9.93964 4.52456 10.4905 4.75639 10.9813 5.0875C11.4651 5.41358 11.8814 5.82991 12.2075 6.31367C12.7137 7.06241 12.9837 7.9458 12.9826 8.84962C12.983 9.45621 12.8618 10.0567 12.6261 10.6157C12.5122 10.8852 12.3724 11.143 12.2088 11.3856C12.0455 11.6274 11.8593 11.8529 11.6527 12.0589C11.0253 12.685 10.2289 13.1145 9.36108 13.2948C8.75759 13.4172 8.13568 13.4172 7.53219 13.2948C6.95206 13.1752 6.40098 12.9432 5.91004 12.6117C5.42686 12.2859 5.01099 11.87 4.68516 11.3869C4.17951 10.6373 3.90937 9.75378 3.9094 8.84962H2.61324C2.61314 10.0122 2.96046 11.1483 3.61064 12.1121C4.03054 12.7317 4.56457 13.2657 5.18418 13.6856C6.14699 14.3373 7.2834 14.6845 8.44599 14.6824C8.84087 14.6827 9.23476 14.643 9.62161 14.5638C10.3674 14.41 11.076 14.1117 11.7071 13.6856C12.0168 13.4764 12.3057 13.2379 12.5697 12.9734C12.8345 12.7092 13.0732 12.4201 13.2826 12.1101C13.9338 11.1476 14.2808 10.0117 14.2787 8.84962C14.2791 8.45474 14.2394 8.06085 14.1601 7.674Z" fill="#FF0000"/>
</svg>
