<svg width="33" height="33" viewBox="0 0 33 33" fill="none" xmlns="http://www.w3.org/2000/svg">
<path fill-rule="evenodd" clip-rule="evenodd" d="M13.4447 28.875H19.5553C23.8466 28.875 25.993 28.875 27.5344 27.8644C28.1996 27.4287 28.7725 26.8661 29.2201 26.2089C30.25 24.6964 30.25 22.5885 30.25 18.3755C30.25 14.1625 30.25 12.0546 29.2201 10.5421C28.7725 9.88487 28.1996 9.32231 27.5344 8.88663C26.5444 8.23625 25.3041 8.00388 23.4052 7.92138C22.4991 7.92138 21.7195 7.24763 21.5421 6.3745C21.4066 5.73495 21.0544 5.1618 20.545 4.75194C20.0357 4.34207 19.4005 4.12061 18.7467 4.125H14.2533C12.8948 4.125 11.7246 5.06688 11.4579 6.3745C11.2805 7.24763 10.5009 7.92138 9.59475 7.92138C7.69725 8.00388 6.457 8.23763 5.46562 8.88663C4.80086 9.32245 4.2285 9.885 3.78125 10.5421C2.75 12.0546 2.75 14.1611 2.75 18.3755C2.75 22.5899 2.75 24.695 3.77988 26.2089C4.22538 26.8634 4.79737 27.4258 5.46562 27.8644C7.007 28.875 9.15337 28.875 13.4447 28.875ZM16.5 12.7504C13.3361 12.7504 10.7704 15.268 10.7704 18.3741C10.7704 21.4803 13.3375 24.002 16.5 24.002C19.6625 24.002 22.2296 21.483 22.2296 18.3769C22.2296 15.2708 19.6625 12.7504 16.5 12.7504ZM16.5 14.9999C14.6025 14.9999 13.0625 16.511 13.0625 18.3755C13.0625 20.2386 14.6025 21.7498 16.5 21.7498C18.3975 21.7498 19.9375 20.2386 19.9375 18.3755C19.9375 16.5124 18.3975 14.9999 16.5 14.9999ZM22.9928 13.8751C22.9928 13.2536 23.5056 12.7504 24.1395 12.7504H25.6658C26.2983 12.7504 26.8125 13.2536 26.8125 13.8751C26.8096 14.1761 26.6873 14.4636 26.4726 14.6745C26.2578 14.8854 25.9681 15.0024 25.6671 14.9999H24.1395C23.9903 15.0013 23.8424 14.9734 23.704 14.9176C23.5657 14.8619 23.4397 14.7795 23.3332 14.675C23.2267 14.5706 23.1418 14.4462 23.0834 14.3089C23.025 14.1717 22.9942 14.0243 22.9928 13.8751Z" fill="black"/>
</svg>
