<svg width="14" height="14" viewBox="0 0 14 14" fill="none" xmlns="http://www.w3.org/2000/svg">
<path d="M11.1107 10.1937L13.8864 12.9688L12.9694 13.8859L10.1943 11.1101C9.16173 11.9379 7.87739 12.3881 6.55401 12.3862C3.33433 12.3862 0.721254 9.77314 0.721254 6.55346C0.721254 3.33378 3.33433 0.720703 6.55401 0.720703C9.77369 0.720703 12.3868 3.33378 12.3868 6.55346C12.3886 7.87684 11.9384 9.16117 11.1107 10.1937ZM9.81063 9.71286C10.6329 8.86693 11.0922 7.73321 11.0906 6.55346C11.0906 4.04732 9.06015 2.01687 6.55401 2.01687C4.04787 2.01687 2.01742 4.04732 2.01742 6.55346C2.01742 9.0596 4.04787 11.09 6.55401 11.09C7.73376 11.0917 8.86748 10.6324 9.71342 9.81008L9.81063 9.71286Z" fill="white"/>
</svg>
