<svg width="25" height="21" viewBox="0 0 25 21" fill="none" xmlns="http://www.w3.org/2000/svg">
<path d="M12.0312 5.95532L11.1718 6.69751C11.2109 6.97095 11.2109 7.24438 11.2109 7.51782C11.2109 7.79126 11.2109 8.0647 11.1718 8.33813L12.0312 9.11938C12.3047 9.35376 12.4218 9.74438 12.2656 10.0959C12.1875 10.2913 12.0703 10.5256 11.9531 10.7209L11.8359 10.9163C11.7187 11.1116 11.6015 11.3069 11.4843 11.5022C11.25 11.7756 10.8593 11.8928 10.5078 11.7756L9.41403 11.385C8.98434 11.7366 8.51559 12.01 7.96871 12.2053L7.73434 13.3381C7.65621 13.7288 7.38278 14.0022 7.03121 14.0413C6.75778 14.0803 6.48434 14.0803 6.2109 14.0803C5.97653 14.0803 5.70309 14.0803 5.42965 14.0413C5.07809 14.0022 4.76559 13.7288 4.72653 13.3381L4.45309 12.2053C3.94528 12.01 3.47653 11.7366 3.04684 11.385L1.95309 11.7756C1.60153 11.8928 1.2109 11.7756 0.976527 11.5022C0.85934 11.3069 0.70309 11.1116 0.585902 10.9163L0.468715 10.7209C0.39059 10.5256 0.273402 10.2913 0.195277 10.0959C0.0390272 9.74438 0.156215 9.35376 0.429652 9.11938L1.28903 8.33813C1.24996 8.10376 1.24996 7.83032 1.24996 7.51782C1.24996 7.24438 1.24996 6.97095 1.28903 6.73657L0.429652 5.95532C0.156215 5.68188 0.0390272 5.33032 0.195277 4.97876C0.273402 4.74438 0.39059 4.54907 0.468715 4.35376L0.585902 4.15845C0.742152 3.96313 0.85934 3.76782 0.976527 3.57251C1.2109 3.29907 1.60153 3.18188 1.95309 3.29907L3.04684 3.65063C3.47653 3.33813 3.94528 3.0647 4.49215 2.86938L4.72653 1.69751C4.80465 1.34595 5.07809 1.07251 5.42965 1.03345C5.70309 0.994385 5.93746 0.955322 6.2109 0.955322H6.24996C6.5234 0.955322 6.75778 0.994385 7.03121 1.03345C7.38278 1.07251 7.69528 1.34595 7.7734 1.73657L8.00778 2.86938C8.51559 3.02563 8.98434 3.33813 9.41403 3.65063L10.5078 3.29907C10.8593 3.18188 11.25 3.29907 11.4843 3.57251C11.6015 3.76782 11.7578 3.96313 11.875 4.15845L11.9922 4.35376C12.0703 4.54907 12.1875 4.74438 12.2656 4.97876C12.4218 5.33032 12.3047 5.68188 12.0312 5.95532ZM4.37496 7.51782C4.37496 8.22095 4.72653 8.80688 5.31246 9.15845C5.85934 9.51001 6.60153 9.51001 7.18746 9.15845C7.73434 8.80688 8.12496 8.22095 8.12496 7.51782C8.12496 6.85376 7.73434 6.26782 7.18746 5.91626C6.60153 5.5647 5.85934 5.5647 5.31246 5.91626C4.72653 6.26782 4.37496 6.85376 4.37496 7.51782ZM19.6875 20.2131L18.9453 19.3538C18.6718 19.3928 18.3984 19.3928 18.125 19.3928C17.8515 19.3928 17.5781 19.3928 17.3047 19.3538L16.5234 20.2131C16.289 20.4866 15.8984 20.6038 15.5468 20.4475C15.3515 20.3694 15.1172 20.2522 14.9218 20.135L14.7265 20.0178C14.5312 19.9006 14.3359 19.7834 14.1406 19.6272C13.8672 19.4319 13.75 19.0413 13.8672 18.6897L14.2578 17.5959C13.9062 17.1663 13.6328 16.6975 13.4375 16.1506L12.3047 15.9163C11.914 15.8381 11.6406 15.5647 11.6015 15.2131C11.5625 14.9397 11.5625 14.6663 11.5625 14.3928C11.5625 14.1194 11.5625 13.885 11.6015 13.6116C11.6406 13.26 11.914 12.9475 12.3047 12.8694L13.4375 12.635C13.6328 12.1272 13.9062 11.6584 14.2578 11.2288L13.8672 10.135C13.75 9.78345 13.8672 9.39282 14.1406 9.15845C14.3359 9.04126 14.5312 8.88501 14.7265 8.76782L14.9218 8.65063C15.1172 8.57251 15.3515 8.45532 15.5468 8.3772C15.8984 8.22095 16.289 8.33813 16.5234 8.61157L17.3047 9.47095C17.539 9.43188 17.8125 9.43188 18.125 9.43188C18.3984 9.43188 18.6718 9.43188 18.9062 9.47095L19.6875 8.61157C19.9609 8.33813 20.3515 8.22095 20.664 8.3772C20.8984 8.45532 21.0937 8.57251 21.289 8.65063L21.4843 8.76782C21.6797 8.92407 21.875 9.04126 22.0703 9.15845C22.3437 9.39282 22.4609 9.78345 22.3437 10.135L21.9922 11.2288C22.3047 11.6584 22.5781 12.1272 22.7734 12.635L23.9453 12.9084C24.2968 12.9866 24.5703 13.26 24.6093 13.6116C24.6484 13.885 24.6875 14.1584 24.6875 14.4319C24.6875 14.6663 24.6484 14.9397 24.6093 15.2131C24.5703 15.5647 24.2968 15.8772 23.9453 15.9163L22.7734 16.1897C22.6172 16.6975 22.3047 17.1663 21.9922 17.5959L22.3437 18.6897C22.4609 19.0413 22.3437 19.4319 22.0703 19.6663C21.875 19.7834 21.6797 19.9006 21.4843 20.0178L21.289 20.1741C21.0937 20.2522 20.8984 20.3694 20.664 20.4475C20.3125 20.6038 19.9609 20.4866 19.6875 20.2131ZM18.125 12.5178C17.4218 12.5178 16.8359 12.9084 16.4843 13.4553C16.1328 14.0413 16.1328 14.7834 16.4843 15.3303C16.8359 15.9163 17.4218 16.2678 18.125 16.2678C18.789 16.2678 19.375 15.9163 19.7265 15.3303C20.0781 14.7834 20.0781 14.0413 19.7265 13.4553C19.375 12.9084 18.789 12.5178 18.125 12.5178Z" fill="#131313"/>
</svg>
