<svg width="31" height="31" viewBox="0 0 31 31" fill="none" xmlns="http://www.w3.org/2000/svg">
<path d="M16.4688 2.58334C16.4688 2.32642 16.3667 2.08001 16.185 1.89833C16.0033 1.71666 15.7569 1.61459 15.5 1.61459C15.2431 1.61459 14.9967 1.71666 14.815 1.89833C14.6333 2.08001 14.5312 2.32642 14.5312 2.58334V6.45834C14.5312 6.71527 14.6333 6.96168 14.815 7.14335C14.9967 7.32503 15.2431 7.42709 15.5 7.42709C15.7569 7.42709 16.0033 7.32503 16.185 7.14335C16.3667 6.96168 16.4688 6.71527 16.4688 6.45834V2.58334Z" fill="black"/>
<path fill-rule="evenodd" clip-rule="evenodd" d="M2.5835 27.4479H5.16683V20.6667C5.16683 17.9261 6.25552 15.2978 8.19339 13.3599C10.1313 11.422 12.7596 10.3333 15.5002 10.3333C18.2407 10.3333 20.8691 11.422 22.8069 13.3599C24.7448 15.2978 25.8335 17.9261 25.8335 20.6667V27.4479H28.4168C28.6738 27.4479 28.9202 27.55 29.1018 27.7317C29.2835 27.9133 29.3856 28.1597 29.3856 28.4167C29.3856 28.6736 29.2835 28.92 29.1018 29.1017C28.9202 29.2834 28.6738 29.3854 28.4168 29.3854H2.5835C2.32657 29.3854 2.08016 29.2834 1.89849 29.1017C1.71681 28.92 1.61475 28.6736 1.61475 28.4167C1.61475 28.1597 1.71681 27.9133 1.89849 27.7317C2.08016 27.55 2.32657 27.4479 2.5835 27.4479ZM16.4689 24.2833C16.8383 24.0701 17.127 23.7409 17.2902 23.3469C17.4534 22.9528 17.482 22.5159 17.3716 22.104C17.2613 21.692 17.018 21.3279 16.6796 21.0683C16.3413 20.8087 15.9267 20.6679 15.5002 20.6679C15.0737 20.6679 14.6591 20.8087 14.3207 21.0683C13.9823 21.3279 13.7391 21.692 13.6287 22.104C13.5183 22.5159 13.5469 22.9528 13.7101 23.3469C13.8734 23.7409 14.162 24.0701 14.5314 24.2833V27.4479H16.4689V24.2833ZM17.5604 14.4912C17.6081 14.3732 17.6786 14.2658 17.7678 14.175C17.8571 14.0843 17.9633 14.012 18.0805 13.9623C18.1977 13.9127 18.3236 13.8866 18.4508 13.8856C18.5781 13.8846 18.7044 13.9087 18.8223 13.9565C19.5851 14.2657 20.278 14.7249 20.86 15.3069C21.4419 15.8889 21.9012 16.5818 22.2104 17.3445C22.3007 17.5814 22.2947 17.8442 22.1934 18.0767C22.0922 18.3091 21.9039 18.4926 21.6689 18.5877C21.434 18.6829 21.1711 18.6822 20.9366 18.5857C20.7022 18.4892 20.5149 18.3047 20.415 18.0717C20.2032 17.5495 19.8887 17.0751 19.4903 16.6766C19.0918 16.2781 18.6174 15.9637 18.0951 15.7519C17.8571 15.6555 17.6671 15.4686 17.5668 15.2322C17.4666 14.9958 17.4642 14.7293 17.5604 14.4912Z" fill="black"/>
<path d="M27.8093 7.06542C27.9908 7.24706 28.0927 7.49328 28.0927 7.75C28.0927 8.00672 27.9908 8.25294 27.8093 8.43459L25.8718 10.3721C25.7832 10.4673 25.6762 10.5436 25.5574 10.5966C25.4385 10.6495 25.3103 10.678 25.1802 10.6803C25.0501 10.6826 24.9209 10.6586 24.8003 10.6099C24.6797 10.5612 24.5701 10.4887 24.4781 10.3967C24.3861 10.3047 24.3136 10.1951 24.2649 10.0745C24.2161 9.95386 24.1922 9.82465 24.1945 9.69458C24.1968 9.5645 24.2253 9.43622 24.2782 9.31739C24.3312 9.19856 24.4075 9.09161 24.5027 9.00292L26.4402 7.06542C26.6218 6.884 26.868 6.7821 27.1248 6.7821C27.3815 6.7821 27.6277 6.884 27.8093 7.06542ZM4.55934 7.06542C4.3757 6.8943 4.13281 6.80114 3.88184 6.80557C3.63086 6.81 3.39141 6.91167 3.21392 7.08916C3.03642 7.26665 2.93475 7.5061 2.93033 7.75708C2.9259 8.00805 3.01906 8.25094 3.19018 8.43459L5.12768 10.3721C5.31132 10.5432 5.55421 10.6364 5.80519 10.6319C6.05616 10.6275 6.29561 10.5258 6.47311 10.3483C6.6506 10.1709 6.75227 9.9314 6.7567 9.68043C6.76112 9.42945 6.66796 9.18656 6.49684 9.00292L4.55934 7.06542Z" fill="black"/>
</svg>
