<svg width="24" height="24" viewBox="0 0 24 24" fill="none" xmlns="http://www.w3.org/2000/svg">
<path d="M18.328 12C18.328 10.3359 17.3108 8.91094 15.8671 8.31094L15.0983 10.1578C15.8202 10.4578 16.3265 11.1703 16.3265 12.0047C16.3265 12.8344 15.8202 13.5469 15.0983 13.8516L15.8671 15.6984C17.3108 15.0891 18.328 13.6641 18.328 12ZM17.4046 4.61719L16.6358 6.46406C18.8062 7.36875 20.3296 9.50625 20.3296 12C20.3296 14.4984 18.8062 16.6313 16.6358 17.5359L17.4046 19.3828C20.2968 18.1781 22.3265 15.3281 22.3265 12C22.3265 8.67188 20.2968 5.82188 17.4046 4.61719ZM2.32959 6.99844V16.9969H6.32803L13.3265 24V0L6.32803 6.99844H2.32959Z" fill="black"/>
</svg>
