<svg width="33" height="33" viewBox="0 0 33 33" fill="none" xmlns="http://www.w3.org/2000/svg">
<path d="M16.5 1.375L4.125 6.875V15.125C4.125 22.7562 9.405 29.8925 16.5 31.625C23.595 29.8925 28.875 22.7562 28.875 15.125V6.875L16.5 1.375ZM16.5 9.625C18.425 9.625 20.35 11.1375 20.35 13.0625V15.125C21.175 15.125 22 15.95 22 16.9125V21.725C22 22.55 21.175 23.375 20.2125 23.375H12.65C11.825 23.375 11 22.55 11 21.5875V16.775C11 15.95 11.825 15.125 12.65 15.125V13.0625C12.65 11.1375 14.575 9.625 16.5 9.625ZM16.5 11.275C15.4 11.275 14.4375 11.9625 14.4375 13.0625V15.125H18.5625V13.0625C18.5625 11.9625 17.6 11.275 16.5 11.275Z" fill="black"/>
</svg>
