<svg width="27" height="27" viewBox="0 0 27 27" fill="none" xmlns="http://www.w3.org/2000/svg">
<path fill-rule="evenodd" clip-rule="evenodd" d="M20.7135 7.3125L19.8124 22.6316C19.7788 23.2047 19.5275 23.7432 19.1098 24.137C18.6922 24.5308 18.1398 24.7501 17.5658 24.75H9.43425C8.86022 24.7501 8.30784 24.5308 7.89019 24.137C7.47254 23.7432 7.22121 23.2047 7.18762 22.6316L6.28875 7.3125H3.9375V6.1875C3.9375 6.03832 3.99676 5.89524 4.10225 5.78975C4.20774 5.68426 4.35082 5.625 4.5 5.625H22.5C22.6492 5.625 22.7923 5.68426 22.8977 5.78975C23.0032 5.89524 23.0625 6.03832 23.0625 6.1875V7.3125H20.7135ZM11.25 2.8125H15.75C15.8992 2.8125 16.0423 2.87176 16.1477 2.97725C16.2532 3.08274 16.3125 3.22582 16.3125 3.375V4.5H10.6875V3.375C10.6875 3.22582 10.7468 3.08274 10.8523 2.97725C10.9577 2.87176 11.1008 2.8125 11.25 2.8125ZM10.125 10.125L10.6875 20.25H12.375L11.925 10.125H10.125ZM15.1875 10.125L14.625 20.25H16.3125L16.875 10.125H15.1875Z" fill="black"/>
</svg>
